<?xml version="1.0" encoding="utf-8"?>
<!-- Generator: Adobe Illustrator 26.3.1, SVG Export Plug-In . SVG Version: 6.00 Build 0)  -->
<svg version="1.1" xmlns="http://www.w3.org/2000/svg" xmlns:xlink="http://www.w3.org/1999/xlink" x="0px" y="0px"
	 viewBox="0 0 285.5 285.4" style="enable-background:new 0 0 285.5 285.4;" xml:space="preserve">
<style type="text/css">
	.st0{fill:#0A0A09;}
	.st1{fill:#C9A84C;}
</style>
<g id="Layer_1">
	<path class="st0" d="M254.6,283.2H31.4c-15.9,0-28.9-12.9-28.9-28.9V31.1c0-15.9,12.9-28.9,28.9-28.9h223.2
		c15.9,0,28.9,12.9,28.9,28.9v223.2C283.5,270.3,270.5,283.2,254.6,283.2z"/>
	<g>
		<path class="st1" d="M178.6,44c11.3,11.4,18.2,27,18.2,44.3c0,5.5-0.7,10.8-2,15.8c6.9,11.1,11,24.2,11,38.2c0,39.8-32.2,72-72,72
			h-45c0,14.7-7.1,27.8-18,36h63c59.6,0,108-48.4,108-108C241.8,98.6,215.9,61,178.6,44z"/>
		<path class="st1" d="M135.2,34.7L135.2,34.7h-0.5c-0.2,0-0.4,0-0.6,0l0,0h-54l0,0h-36v216c19.9,0,36-16.1,36-36l0,0h0.1v-72h54
			l0,0c29.8,0,54-24.2,54-54C188.1,59.2,164.5,35.3,135.2,34.7z M134.1,106.7h-54v-36h54.7c9.6,0.4,17.3,8.3,17.3,18
			C152.1,98.6,144.1,106.7,134.1,106.7z"/>
	</g>
</g>
<g id="Layer_2">
</g>
</svg>
