<?xml version="1.0" encoding="utf-8"?>
<!-- Generator: Adobe Illustrator 26.3.1, SVG Export Plug-In . SVG Version: 6.00 Build 0)  -->
<svg version="1.1" xmlns="http://www.w3.org/2000/svg" xmlns:xlink="http://www.w3.org/1999/xlink" x="0px" y="0px"
	 viewBox="0 0 544.3 647.1" style="enable-background:new 0 0 544.3 647.1;" xml:space="preserve">
<style type="text/css">
	.st0{fill:none;stroke:#FFFFFF;stroke-width:0.25;stroke-miterlimit:10;}
	.st1{opacity:0.41;fill:#FFFFFF;enable-background:new    ;}
	.st2{opacity:0;fill:#FFFFFF;enable-background:new    ;}
	.st3{fill:none;stroke:#FFFFFF;stroke-width:0.25;stroke-miterlimit:10.0003;}
	.st4{fill:none;stroke:#FFFFFF;stroke-width:0.25;stroke-miterlimit:10.0002;}
	.st5{fill:none;stroke:#FFFFFF;stroke-miterlimit:10;}
	.st6{fill:none;stroke:#FFFFFF;stroke-width:0.25;stroke-miterlimit:10.0005;}
	.st7{display:none;opacity:0;fill:#FFFFFF;enable-background:new    ;}
	.st8{display:none;opacity:0.16;fill:#FFFFFF;enable-background:new    ;}
</style>
<g id="Layer_2">
</g>
<g id="Layer_1">
	<g id="Layer_2_00000129900937182315382590000009256360085447527819_">
	</g>
	<g id="Layer_3">
	</g>
	<g id="Layer_1_00000171707954802976592240000006076420259904700852_">
		<path class="st0" d="M-164.1,393.2"/>
		<g>
			<path class="st1" d="M399.8,105.8c24.9,25.2,40.2,59.6,40.2,97.8c0,12.1-1.5,23.8-4.4,34.9c15.2,24.5,24.3,53.4,24.3,84.3
				c0,87.8-71.1,158.9-158.9,158.9h-99.3c0,32.4-15.7,61.4-39.7,79.5h139.1c131.6,0,238.4-106.8,238.4-238.4
				C539.3,226.3,482.2,143.3,399.8,105.8z"/>
			<path class="st1" d="M304,85.3L304,85.3h-1.1c-0.4,0-0.9,0-1.3,0l0,0H182.4l0,0H103V562c43.9,0,79.5-35.5,79.5-79.5l0,0h0.2
				V323.6h119.2l0,0c65.8,0,119.2-53.4,119.2-119.2C420.8,139.6,368.7,86.6,304,85.3z M301.6,244.2H182.4v-79.5h120.7
				c21.2,0.9,38.2,18.3,38.2,39.7C341.3,226.3,323.5,244.2,301.6,244.2z"/>
			<path class="st2" d="M400.1,105.9c24.9,25.2,40.2,59.6,40.2,97.8c0,12.1-1.5,23.8-4.4,34.9c15.2,24.5,24.3,53.4,24.3,84.3
				c0,87.8-71.1,158.9-158.9,158.9H202c0,32.4-15.7,61.4-39.7,79.5h139.1c131.6,0,238.4-106.8,238.4-238.4
				C539.6,226.4,482.5,143.4,400.1,105.9z"/>
			<path class="st2" d="M304.4,85.3L304.4,85.3h-1.1c-0.4,0-0.9,0-1.3,0l0,0H182.7l0,0h-79.5v476.8c43.9,0,79.5-35.5,79.5-79.5l0,0
				h0.2V323.7h119.2l0,0c65.8,0,119.2-53.4,119.2-119.2C421.1,139.6,369,86.7,304.4,85.3z M301.9,244.3H182.7v-79.5h120.7
				c21.2,0.9,38.2,18.3,38.2,39.7C341.7,226.4,323.8,244.3,301.9,244.3z"/>
			<rect x="103.8" y="85" class="st0" width="396.4" height="476.8"/>
			<circle class="st0" cx="301.6" cy="204.4" r="39.7"/>
			<circle class="st0" cx="301.6" cy="125" r="39.7"/>
			<circle class="st0" cx="301.6" cy="283.9" r="39.7"/>
			
				<ellipse transform="matrix(0.1602 -0.9871 0.9871 0.1602 -15.2371 390.8909)" class="st0" cx="222.1" cy="204.4" rx="39.7" ry="39.7"/>
			<ellipse class="st3" cx="142.6" cy="204.5" rx="39.7" ry="39.7"/>
			<circle class="st0" cx="301.6" cy="204.4" r="119.2"/>
			<circle class="st0" cx="301.6" cy="442.8" r="119.2"/>
			<circle class="st0" cx="301.6" cy="323.6" r="238.4"/>
			<rect x="103" y="85.3" class="st0" width="79.5" height="79.5"/>
			<rect x="103" y="164.7" class="st0" width="79.5" height="79.5"/>
			<rect x="103" y="244.2" class="st0" width="79.5" height="79.5"/>
			<rect x="103" y="323.4" class="st0" width="79.5" height="79.5"/>
			<rect x="103" y="403.1" class="st0" width="79.5" height="79.5"/>
			<rect x="103" y="482.6" class="st0" width="79.5" height="79.5"/>
			<rect x="103" y="562" class="st0" width="79.2" height="79.5"/>
			<rect x="182.2" y="482.6" class="st0" width="79.5" height="79.2"/>
			<rect x="103" y="601.5" class="st0" width="79.2" height="39.7"/>
			<rect x="103" y="561.8" class="st0" width="79.2" height="19.9"/>
			<rect x="182.2" y="482.8" class="st0" width="39.7" height="79.2"/>
			<rect x="182.2" y="482.6" class="st0" width="19.9" height="79.2"/>
			<ellipse class="st3" cx="102.9" cy="482.3" rx="79.5" ry="79.5"/>
			<ellipse class="st4" cx="103" cy="482.6" rx="99.3" ry="99.3"/>
			<path class="st5" d="M304,85.3L304,85.3h-1.1c-0.4,0-0.9,0-1.3,0l0,0H182.4l0,0H103V562c43.9,0,79.5-35.5,79.5-79.5l0,0h0.2
				V323.6h119.2l0,0c65.8,0,119.2-53.4,119.2-119.2C420.8,139.3,368.7,86.6,304,85.3z M301.6,244.2H182.4v-79.5h120.7
				c21.2,0.9,38.2,18.3,38.2,39.7C341.3,226.3,323.5,244.2,301.6,244.2z"/>
			<path class="st5" d="M399.8,105.6c24.9,25.2,40.2,59.6,40.2,97.8c0,12.1-1.5,23.8-4.4,34.9c15.2,24.5,24.3,53.4,24.3,84.3
				c0,87.8-71.1,158.9-158.9,158.9h-99.3c0,32.4-15.7,61.4-39.7,79.5h139.1c131.6,0,238.4-106.8,238.4-238.4
				C539.3,226.3,482.2,143.3,399.8,105.6z"/>
			<rect x="103" y="323.4" class="st0" width="247.7" height="79.5"/>
			<rect x="103" y="323.6" class="st0" width="238.4" height="39.7"/>
			<rect x="103" y="323.4" class="st0" width="238.4" height="19.9"/>
			<rect x="103" y="323.6" class="st0" width="247.7" height="39.7"/>
			<rect x="103" y="343.5" class="st0" width="247.7" height="39.7"/>
			<rect x="103" y="323.4" class="st0" width="247.7" height="19.9"/>
			<circle class="st0" cx="301.6" cy="323.6" r="158.9"/>
			<circle class="st0" cx="301.6" cy="204.4" r="139.1"/>
			<rect x="103" y="5.6" class="st0" width="247.7" height="79.5"/>
			<rect x="103" y="45.3" class="st0" width="247.7" height="39.7"/>
			<rect x="103" y="65.4" class="st0" width="247.7" height="19.9"/>
			<rect x="103" y="85.3" class="st0" width="402.2" height="476.8"/>
			<rect x="182.4" y="482.6" class="st0" width="322.7" height="79.5"/>
			<rect x="182.4" y="403.1" class="st0" width="322.7" height="79.5"/>
			<rect x="182.4" y="323.4" class="st0" width="322.7" height="79.5"/>
			<rect x="182.4" y="244.2" class="st0" width="322.7" height="79.5"/>
			<rect x="182.4" y="164.7" class="st0" width="322.7" height="79.5"/>
			<rect x="182.4" y="85.3" class="st0" width="322.7" height="79.5"/>
			<rect x="182.4" y="85.3" class="st0" width="317.8" height="79.5"/>
			<rect x="182.4" y="164.7" class="st0" width="317.8" height="79.5"/>
			<rect x="182.4" y="244.2" class="st0" width="317.8" height="79.5"/>
			<rect x="182.4" y="323.6" class="st0" width="317.8" height="79.5"/>
			<rect x="182.4" y="403.1" class="st0" width="317.8" height="79.5"/>
			<rect x="182.4" y="482.6" class="st0" width="317.8" height="79.5"/>
			<rect x="103" y="85.3" class="st0" width="79.5" height="476.8"/>
			<rect x="261.9" y="85.3" class="st0" width="79.5" height="476.8"/>
			<rect x="341.3" y="85.3" class="st0" width="79.5" height="476.8"/>
			<rect x="420.8" y="85.3" class="st0" width="79.5" height="476.8"/>
			<rect x="182.4" y="85.3" class="st0" width="79.5" height="476.8"/>
			<rect x="261.9" y="85" class="st0" width="79.5" height="476.8"/>
			<rect x="341.3" y="85.3" class="st0" width="79.5" height="476.8"/>
			<rect x="420.8" y="85" class="st0" width="79.5" height="476.8"/>
			
				<ellipse transform="matrix(0.4641 -0.8858 0.8858 0.4641 -386.2072 406.2005)" class="st6" cx="142.6" cy="522.3" rx="39.7" ry="39.7"/>
			
				<ellipse transform="matrix(0.4641 -0.8858 0.8858 0.4641 -315.8181 363.6761)" class="st6" cx="142.6" cy="442.8" rx="39.7" ry="39.7"/>
			<path class="st7" d="M399.8,105.8c24.9,25.2,40.2,59.6,40.2,97.8c0,12.1-1.5,23.8-4.4,34.9c15.2,24.5,24.3,53.4,24.3,84.3
				c0,87.8-71.1,158.9-158.9,158.9h-99.3c0,32.4-15.7,61.4-39.7,79.5h139.1c131.6,0,238.4-106.8,238.4-238.4
				C539.3,226.3,482.2,143.3,399.8,105.8z"/>
			<path class="st7" d="M304,85.3L304,85.3h-1.1c-0.4,0-0.9,0-1.3,0l0,0H182.4l0,0H103V562c43.9,0,79.5-35.5,79.5-79.5l0,0h0.2
				V323.6h119.2l0,0c65.8,0,119.2-53.4,119.2-119.2C420.8,139.6,368.7,86.6,304,85.3z M301.6,244.2H182.4v-79.5h120.7
				c21.2,0.9,38.2,18.3,38.2,39.7C341.3,226.3,323.5,244.2,301.6,244.2z"/>
			<path class="st8" d="M402.1,106c24.9,25.2,40.2,59.6,40.2,97.8c0,12.1-1.5,23.8-4.4,34.9c15.2,24.5,24.3,53.4,24.3,84.3
				c0,87.8-71.1,158.9-158.9,158.9H204c0,32.4-15.7,61.4-39.7,79.5h139.1c131.6,0,238.4-106.8,238.4-238.4
				C541.6,226.5,484.5,143.5,402.1,106z"/>
			<path class="st8" d="M306.3,85.5L306.3,85.5h-1.1c-0.4,0-0.9,0-1.3,0l0,0H184.7l0,0h-79.5v476.8c43.9,0,79.5-35.5,79.5-79.5l0,0
				h0.2V323.9h119.2l0,0c65.8,0,119.2-53.4,119.2-119.2C423.1,139.8,371,86.8,306.3,85.5z M303.9,244.4H184.7v-79.5h120.7
				c21.2,0.9,38.2,18.3,38.2,39.7C343.6,226.5,325.8,244.4,303.9,244.4z"/>
			<path class="st7" d="M398.7,105.5c24.9,25.2,40.2,59.6,40.2,97.8c0,12.1-1.5,23.8-4.4,34.9c15.2,24.5,24.3,53.4,24.3,84.3
				c0,87.8-71.1,158.9-158.9,158.9h-99.3c0,32.4-15.7,61.4-39.7,79.5H300c131.6,0,238.4-106.8,238.4-238.4
				C538.2,226,481,143,398.7,105.5z"/>
			<path class="st7" d="M302.9,85L302.9,85h-1.1c-0.4,0-0.9,0-1.3,0l0,0H181.3l0,0h-79.5v476.8c43.9,0,79.5-35.5,79.5-79.5l0,0h0.2
				V323.4h119.2l0,0c65.8,0,119.2-53.4,119.2-119.2C419.7,139.3,367.6,86.3,302.9,85z M300.5,243.9H181.3v-79.5H302
				c21.2,0.9,38.2,18.3,38.2,39.7C340.2,226,322.3,243.9,300.5,243.9z"/>
		</g>
	</g>
	<g id="Layer_4">
	</g>
</g>
</svg>
