<?xml version="1.0" encoding="utf-8"?>
<!-- Generator: Adobe Illustrator 26.3.1, SVG Export Plug-In . SVG Version: 6.00 Build 0)  -->
<svg version="1.1" xmlns="http://www.w3.org/2000/svg" xmlns:xlink="http://www.w3.org/1999/xlink" x="0px" y="0px"
	 viewBox="0 0 544.3 647.1" style="enable-background:new 0 0 544.3 647.1;" xml:space="preserve">
<style type="text/css">
	.st0{opacity:0.3;fill:#FFFFFF;enable-background:new    ;}
	.st1{fill:#FFFFFF;}
	.st2{display:none;fill:#FFFFFF;fill-opacity:0;}
	.st3{display:none;opacity:0.16;fill:#FFFFFF;enable-background:new    ;}
</style>
<g id="Layer_2">
</g>
<g id="Layer_1">
	<g id="Layer_2_00000000936078248092832970000005334153560858547109_">
	</g>
	<g id="Layer_1_00000060016607836901119020000006555549892992290221_">
		<g id="Layer_2_00000129900937182315382590000009256360085447527819_">
		</g>
		<g id="Layer_3">
		</g>
		<g id="Layer_1_00000171707954802976592240000006076420259904700852_">
			<g>
				<path class="st0" d="M399.8,105.8c24.9,25.2,40.2,59.6,40.2,97.8c0,12.1-1.5,23.8-4.4,34.9c15.2,24.5,24.3,53.4,24.3,84.3
					c0,87.8-71.1,158.9-158.9,158.9h-99.3c0,32.4-15.7,61.4-39.7,79.5h139.1c131.6,0,238.4-106.8,238.4-238.4
					C539.3,226.3,482.2,143.3,399.8,105.8z"/>
				<path class="st0" d="M304,85.3L304,85.3h-1.1c-0.4,0-0.9,0-1.3,0l0,0H182.4l0,0H103V562c43.9,0,79.5-35.5,79.5-79.5l0,0h0.2
					V323.6h119.2l0,0c65.8,0,119.2-53.4,119.2-119.2C420.8,139.6,368.7,86.6,304,85.3z M301.6,244.2H182.4v-79.5h120.7
					c21.2,0.9,38.2,18.3,38.2,39.7C341.3,226.3,323.5,244.2,301.6,244.2z"/>
				<path class="st1" d="M500.3,561.9H103.7v-477h396.7V561.9z M103.9,561.7h396.2V85.1H103.9V561.7z"/>
				<path class="st1" d="M301.6,244.2c-22,0-39.8-17.9-39.8-39.8s17.9-39.8,39.8-39.8c22,0,39.8,17.9,39.8,39.8
					S323.6,244.2,301.6,244.2z M301.6,164.8c-21.8,0-39.6,17.8-39.6,39.6s17.8,39.6,39.6,39.6c21.8,0,39.6-17.8,39.6-39.6
					S323.4,164.8,301.6,164.8z"/>
				<path class="st1" d="M301.6,164.8c-22,0-39.8-17.9-39.8-39.8s17.9-39.8,39.8-39.8c22,0,39.8,17.9,39.8,39.8
					S323.6,164.8,301.6,164.8z M301.6,85.4c-21.8,0-39.6,17.8-39.6,39.6s17.8,39.6,39.6,39.6c21.8,0,39.6-17.8,39.6-39.6
					S323.4,85.4,301.6,85.4z"/>
				<path class="st1" d="M301.6,323.7c-22,0-39.8-17.9-39.8-39.8s17.9-39.8,39.8-39.8c22,0,39.8,17.9,39.8,39.8
					S323.6,323.7,301.6,323.7z M301.6,244.3c-21.8,0-39.6,17.8-39.6,39.6s17.8,39.6,39.6,39.6c21.8,0,39.6-17.8,39.6-39.6
					S323.4,244.3,301.6,244.3z"/>
				<path class="st1" d="M222.1,244.2c-2.1,0-4.3-0.2-6.4-0.5c-21.7-3.5-36.4-24-32.9-45.7c3.5-21.7,24-36.4,45.7-32.9
					c10.5,1.7,19.7,7.4,25.9,16c6.2,8.6,8.7,19.2,7,29.7C258.2,230.3,241.3,244.2,222.1,244.2z M183,198.1
					c-3.5,21.5,11.2,41.9,32.7,45.4c2.1,0.3,4.3,0.5,6.4,0.5c19.1,0,35.9-13.8,39-33.2c1.7-10.4-0.8-20.9-7-29.5
					c-6.2-8.6-15.3-14.2-25.8-15.9C206.9,161.8,186.5,176.5,183,198.1L183,198.1z"/>
				<path class="st1" d="M142.6,244.3c-22,0-39.8-17.9-39.8-39.8s17.9-39.8,39.8-39.8s39.8,17.9,39.8,39.8S164.6,244.3,142.6,244.3z
					 M142.6,164.9c-21.8,0-39.6,17.8-39.6,39.6s17.8,39.6,39.6,39.6s39.6-17.8,39.6-39.6S164.4,164.9,142.6,164.9z"/>
				<path class="st1" d="M301.6,323.7c-16.1,0-31.7-3.2-46.4-9.4c-14.2-6-27-14.6-37.9-25.6c-11-11-19.6-23.7-25.6-37.9
					c-6.2-14.7-9.4-30.3-9.4-46.4c0-16.1,3.2-31.7,9.4-46.4c6-14.2,14.6-27,25.6-37.9c11-11,23.7-19.6,37.9-25.6
					c14.7-6.2,30.3-9.4,46.4-9.4s31.7,3.2,46.4,9.4c14.2,6,27,14.6,37.9,25.6c11,11,19.6,23.7,25.6,37.9c6.2,14.7,9.4,30.3,9.4,46.4
					s-3.2,31.7-9.4,46.4c-6,14.2-14.6,27-25.6,37.9c-11,11-23.7,19.6-37.9,25.6C333.3,320.6,317.7,323.7,301.6,323.7z M301.6,85.3
					c-16.1,0-31.7,3.1-46.3,9.4c-14.2,6-26.9,14.6-37.8,25.5c-10.9,10.9-19.5,23.7-25.5,37.8c-6.2,14.7-9.4,30.3-9.4,46.3
					s3.1,31.7,9.4,46.3c6,14.2,14.6,26.9,25.5,37.8c10.9,10.9,23.7,19.5,37.8,25.5c14.7,6.2,30.3,9.4,46.3,9.4s31.7-3.1,46.3-9.4
					c14.2-6,26.9-14.6,37.8-25.5c10.9-10.9,19.5-23.7,25.5-37.8c6.2-14.7,9.4-30.3,9.4-46.3s-3.1-31.7-9.4-46.3
					c-6-14.2-14.6-26.9-25.5-37.8c-10.9-10.9-23.7-19.5-37.8-25.5C333.3,88.5,317.7,85.3,301.6,85.3z"/>
				<path class="st1" d="M301.6,562.1c-16.1,0-31.7-3.2-46.4-9.4c-14.2-6-27-14.6-37.9-25.6c-11-11-19.6-23.7-25.6-37.9
					c-6.2-14.7-9.4-30.3-9.4-46.4s3.2-31.7,9.4-46.4c6-14.2,14.6-27,25.6-37.9c11-11,23.7-19.6,37.9-25.6
					c14.7-6.2,30.3-9.4,46.4-9.4s31.7,3.2,46.4,9.4c14.2,6,27,14.6,37.9,25.6c11,11,19.6,23.7,25.6,37.9c6.2,14.7,9.4,30.3,9.4,46.4
					s-3.2,31.7-9.4,46.4c-6,14.2-14.6,27-25.6,37.9c-11,11-23.7,19.6-37.9,25.6C333.3,559,317.7,562.1,301.6,562.1z M301.6,323.7
					c-16.1,0-31.7,3.1-46.3,9.4c-14.2,6-26.9,14.6-37.8,25.5c-10.9,10.9-19.5,23.7-25.5,37.8c-6.2,14.7-9.4,30.3-9.4,46.3
					s3.1,31.7,9.4,46.3c6,14.2,14.6,26.9,25.5,37.8c10.9,10.9,23.7,19.5,37.8,25.5c14.7,6.2,30.3,9.4,46.3,9.4s31.7-3.1,46.3-9.4
					c14.2-6,26.9-14.6,37.8-25.5s19.5-23.7,25.5-37.8c6.2-14.7,9.4-30.3,9.4-46.3s-3.1-31.7-9.4-46.3c-6-14.2-14.6-26.9-25.5-37.8
					s-23.7-19.5-37.8-25.5C333.3,326.9,317.7,323.7,301.6,323.7z"/>
				<path class="st1" d="M301.6,562.1c-32.2,0-63.4-6.3-92.8-18.7c-28.4-12-53.9-29.2-75.8-51.1s-39.1-47.4-51.1-75.8
					c-12.4-29.4-18.7-60.6-18.7-92.8s6.3-63.4,18.7-92.8c12-28.4,29.2-53.9,51.1-75.8s47.4-39.1,75.8-51.1
					c29.4-12.4,60.6-18.7,92.8-18.7c32.2,0,63.4,6.3,92.8,18.7c28.4,12,53.9,29.2,75.8,51.1c21.9,21.9,39.1,47.4,51.1,75.8
					c12.4,29.4,18.7,60.6,18.7,92.8s-6.3,63.4-18.7,92.8c-12,28.4-29.2,53.9-51.1,75.8c-21.9,21.9-47.4,39.1-75.8,51.1
					C365,555.8,333.8,562.1,301.6,562.1z M301.6,85.3c-32.2,0-63.4,6.3-92.7,18.7c-28.4,12-53.9,29.2-75.7,51.1S94.1,202.5,82,230.9
					c-12.4,29.4-18.7,60.6-18.7,92.7c0,32.2,6.3,63.4,18.7,92.7c12,28.4,29.2,53.9,51.1,75.7s47.4,39.1,75.7,51.1
					c29.4,12.4,60.6,18.7,92.7,18.7s63.4-6.3,92.7-18.7c28.4-12,53.9-29.2,75.7-51.1s39.1-47.4,51.1-75.7
					c12.4-29.4,18.7-60.6,18.7-92.7c0-32.2-6.3-63.4-18.7-92.7c-12-28.4-29.2-53.9-51.1-75.7s-47.4-39.1-75.7-51.1
					C365,91.6,333.8,85.3,301.6,85.3z"/>
				<path class="st1" d="M182.6,164.9h-79.8V85.2h79.8V164.9z M103.1,164.7h79.2V85.4h-79.2V164.7z"/>
				<path class="st1" d="M182.6,244.3h-79.8v-79.8h79.8V244.3z M103.1,244.1h79.2v-79.2h-79.2V244.1z"/>
				<path class="st1" d="M182.6,323.8h-79.8v-79.8h79.8V323.8z M103.1,323.6h79.2v-79.2h-79.2V323.6z"/>
				<path class="st1" d="M182.6,403h-79.8v-79.8h79.8V403z M103.1,402.8h79.2v-79.3h-79.2V402.8z"/>
				<path class="st1" d="M182.6,482.7h-79.8V403h79.8V482.7z M103.1,482.5h79.2v-79.2h-79.2V482.5z"/>
				<path class="st1" d="M182.6,562.2h-79.8v-79.8h79.8V562.2z M103.1,562h79.2v-79.2h-79.2V562z"/>
				<path class="st1" d="M182.3,641.6h-79.5v-79.8h79.5V641.6z M103.1,641.4h79v-79.2h-79V641.4z"/>
				<path class="st1" d="M261.8,561.9h-79.8v-79.5h79.8V561.9z M182.3,561.7h79.2v-79h-79.2V561.7z"/>
				<path class="st1" d="M182.3,641.3h-79.5v-40h79.5V641.3z M103.1,641.1h79v-39.5h-79V641.1z"/>
				<path class="st1" d="M182.3,581.8h-79.5v-20.2h79.5V581.8z M103.1,581.6h79v-19.7h-79V581.6z"/>
				<path class="st1" d="M222,562.1h-39.9v-79.5H222V562.1z M182.3,561.9h39.4v-79h-39.4V561.9z"/>
				<path class="st1" d="M202.2,561.9h-20.1v-79.5h20.1V561.9z M182.3,561.7H202v-79h-19.6V561.7z"/>
				<path class="st1" d="M102.9,561.9c-21.3,0-41.3-8.3-56.3-23.3c-15-15-23.3-35-23.3-56.3S31.6,441,46.6,426
					c15-15,35-23.3,56.3-23.3s41.3,8.3,56.3,23.3c15,15,23.3,35,23.3,56.3s-8.3,41.3-23.3,56.3C144.2,553.6,124.2,561.9,102.9,561.9
					z M102.9,402.9c-21.2,0-41.1,8.3-56.1,23.2c-15,15-23.2,34.9-23.2,56.1s8.3,41.1,23.2,56.1c15,15,34.9,23.2,56.1,23.2
					s41.1-8.3,56.1-23.2c15-15,23.2-34.9,23.2-56.1s-8.3-41.1-23.2-56.1C144,411.2,124.1,402.9,102.9,402.9z"/>
				<path class="st1" d="M103,582c-26.6,0-51.5-10.3-70.3-29.1c-18.8-18.8-29.1-43.7-29.1-70.3s10.3-51.5,29.1-70.3
					c18.8-18.8,43.7-29.1,70.3-29.1s51.5,10.3,70.3,29.1c18.8,18.8,29.1,43.7,29.1,70.3s-10.3,51.5-29.1,70.3
					C154.5,571.7,129.6,582,103,582z M103,383.4c-26.5,0-51.4,10.3-70.1,29c-18.7,18.7-29,43.6-29,70.1s10.3,51.4,29,70.1
					c18.7,18.7,43.6,29,70.1,29s51.4-10.3,70.1-29c18.7-18.7,29-43.6,29-70.1s-10.3-51.4-29-70.1C154.4,393.7,129.5,383.4,103,383.4
					z"/>
				<path class="st1" d="M103,562.5h-0.5V84.8H304c31.5,0.6,60.9,13.3,83,35.8c22.1,22.5,34.4,52.2,34.5,83.8
					c0,66-53.7,119.7-119.7,119.7H183.2V483H183C182.7,526.9,146.9,562.5,103,562.5z M103.5,85.8v475.7c43.3-0.3,78.5-35.6,78.5-79
					V482h0.2V323.1h119.7c65.5,0,118.7-53.2,118.7-118.7c-0.1-31.3-12.3-60.8-34.3-83.1C364.4,99,335.2,86.4,304,85.8H103.5z
					 M301.6,244.7H181.9v-80.5h121.2c21.7,0.9,38.7,18.6,38.7,40.2C341.8,226.6,323.8,244.7,301.6,244.7z M182.9,243.7h118.7
					c21.6,0,39.2-17.6,39.2-39.3c0-21.1-16.6-38.3-37.7-39.2l-120.2,0V243.7z"/>
				<path class="st1" d="M301.1,561.5H160.5l1.2-0.9c24.7-18.7,39.5-48.2,39.5-79.1V481H301c87.3,0,158.4-71.1,158.4-158.4
					c0-29.4-8.4-58.5-24.2-84l-0.1-0.2l0.1-0.2c2.9-11.1,4.4-22.8,4.4-34.8c0-36.7-14.2-71.3-40.1-97.4l-1.9-1.9l2.5,1.1
					c41.1,18.8,76,48.8,100.9,86.7c25.5,38.9,39,84.1,39.1,130.7C540,454.3,432.8,561.5,301.1,561.5z M163.5,560.5h137.6
					c131.2,0,237.9-106.7,237.9-237.9c-0.1-46.5-13.6-91.5-38.9-130.2c-24.3-37-58.1-66.4-98-85.2c24.8,26.1,38.5,60.1,38.5,96.2
					c0,12-1.5,23.7-4.4,34.8c15.9,25.7,24.3,54.8,24.3,84.4c0,87.9-71.5,159.4-159.4,159.4h-98.8C202,512.5,187.6,541.7,163.5,560.5
					z"/>
				<path class="st1" d="M350.8,403h-248v-79.8h248V403z M103.1,402.8h247.5v-79.3H103.1V402.8z"/>
				<path class="st1" d="M341.5,363.4H102.9v-39.9h238.7V363.4z M103.1,363.2h238.2v-39.4H103.1V363.2z"/>
				<path class="st1" d="M341.5,343.4H102.9v-20.1h238.7V343.4z M103.1,343.2h238.2v-19.6H103.1V343.2z"/>
				<path class="st1" d="M350.8,363.4h-248v-39.9h248V363.4z M103.1,363.2h247.5v-39.4H103.1V363.2z"/>
				<path class="st1" d="M350.8,383.3h-248v-40h248V383.3z M103.1,383.1h247.5v-39.5H103.1V383.1z"/>
				<path class="st1" d="M350.8,343.4h-248v-20.1h248V343.4z M103.1,343.2h247.5v-19.6H103.1V343.2z"/>
				<path class="st1" d="M301.6,482.6c-21.5,0-42.3-4.2-61.9-12.5c-18.9-8-35.9-19.5-50.5-34.1s-26.1-31.6-34.1-50.5
					c-8.3-19.6-12.5-40.4-12.5-61.9s4.2-42.3,12.5-61.9c8-18.9,19.5-35.9,34.1-50.5s31.6-26.1,50.5-34.1
					c19.6-8.3,40.4-12.5,61.9-12.5c21.5,0,42.3,4.2,61.9,12.5c18.9,8,35.9,19.5,50.5,34.1s26.1,31.6,34.1,50.5
					c8.3,19.6,12.5,40.4,12.5,61.9s-4.2,42.3-12.5,61.9c-8,18.9-19.5,35.9-34.1,50.5s-31.6,26.1-50.5,34.1
					C343.9,478.4,323.1,482.6,301.6,482.6z M301.6,164.8c-21.4,0-42.2,4.2-61.8,12.5c-18.9,8-35.9,19.4-50.5,34s-26,31.6-34,50.5
					c-8.3,19.6-12.5,40.4-12.5,61.8c0,21.4,4.2,42.2,12.5,61.8c8,18.9,19.4,35.9,34,50.5s31.6,26,50.5,34
					c19.6,8.3,40.4,12.5,61.8,12.5s42.2-4.2,61.8-12.5c18.9-8,35.9-19.4,50.5-34c14.6-14.6,26-31.6,34-50.5
					c8.3-19.6,12.5-40.4,12.5-61.8c0-21.4-4.2-42.2-12.5-61.8c-8-18.9-19.4-35.9-34-50.5c-14.6-14.6-31.6-26-50.5-34
					C343.8,169,323,164.8,301.6,164.8z"/>
				<path class="st1" d="M301.6,343.6c-18.8,0-37-3.7-54.2-10.9c-16.6-7-31.5-17.1-44.3-29.8s-22.8-27.7-29.8-44.3
					c-7.3-17.2-10.9-35.4-10.9-54.2s3.7-37,10.9-54.2c7-16.6,17.1-31.5,29.8-44.3s27.7-22.8,44.3-29.8c17.2-7.3,35.4-10.9,54.2-10.9
					s37,3.7,54.2,10.9c16.6,7,31.5,17.1,44.3,29.8s22.8,27.7,29.8,44.3c7.3,17.2,10.9,35.4,10.9,54.2s-3.7,37-10.9,54.2
					c-7,16.6-17.1,31.5-29.8,44.3s-27.7,22.8-44.3,29.8C338.6,339.9,320.4,343.6,301.6,343.6z M301.6,65.4c-18.8,0-37,3.7-54.1,10.9
					c-16.5,7-31.4,17-44.2,29.8c-12.8,12.8-22.8,27.6-29.8,44.2c-7.2,17.1-10.9,35.3-10.9,54.1s3.7,37,10.9,54.1
					c7,16.5,17,31.4,29.8,44.2c12.8,12.8,27.6,22.8,44.2,29.8c17.1,7.2,35.3,10.9,54.1,10.9s37-3.7,54.1-10.9
					c16.5-7,31.4-17,44.2-29.8c12.8-12.8,22.8-27.6,29.8-44.2c7.2-17.1,10.9-35.3,10.9-54.1s-3.7-37-10.9-54.1
					c-7-16.5-17-31.4-29.8-44.2c-12.8-12.8-27.6-22.8-44.2-29.8C338.6,69.1,320.4,65.4,301.6,65.4z"/>
				<path class="st1" d="M350.8,85.2h-248V5.5h248V85.2z M103.1,85h247.5V5.7H103.1V85z"/>
				<path class="st1" d="M350.8,85.1h-248v-40h248V85.1z M103.1,84.9h247.5V45.4H103.1V84.9z"/>
				<path class="st1" d="M350.8,85.4h-248V65.3h248V85.4z M103.1,85.2h247.5V65.5H103.1V85.2z"/>
				<path class="st1" d="M505.3,562.2H102.9v-477h402.5V562.2z M103.1,562h402V85.4h-402V562z"/>
				<path class="st1" d="M505.2,562.2H182.3v-79.8h322.9V562.2z M182.5,562H505v-79.2H182.5V562z"/>
				<path class="st1" d="M505.2,482.7H182.3V403h322.9V482.7z M182.5,482.5H505v-79.2H182.5V482.5z"/>
				<path class="st1" d="M505.2,403H182.3v-79.8h322.9V403z M182.5,402.8H505v-79.3H182.5V402.8z"/>
				<path class="st1" d="M505.2,323.8H182.3v-79.8h322.9V323.8z M182.5,323.6H505v-79.2H182.5V323.6z"/>
				<path class="st1" d="M505.2,244.3H182.3v-79.8h322.9V244.3z M182.5,244.1H505v-79.2H182.5V244.1z"/>
				<path class="st1" d="M505.2,164.9H182.3V85.2h322.9V164.9z M182.5,164.7H505V85.4H182.5V164.7z"/>
				<path class="st1" d="M500.3,164.9H182.3V85.2h318.1V164.9z M182.5,164.7h317.6V85.4H182.5V164.7z"/>
				<path class="st1" d="M500.3,244.3H182.3v-79.8h318.1V244.3z M182.5,244.1h317.6v-79.2H182.5V244.1z"/>
				<path class="st1" d="M500.3,323.8H182.3v-79.8h318.1V323.8z M182.5,323.6h317.6v-79.2H182.5V323.6z"/>
				<path class="st1" d="M500.3,403.2H182.3v-79.7h318.1V403.2z M182.5,403h317.6v-79.2H182.5V403z"/>
				<path class="st1" d="M500.3,482.7H182.3V403h318.1V482.7z M182.5,482.5h317.6v-79.2H182.5V482.5z"/>
				<path class="st1" d="M500.3,562.2H182.3v-79.8h318.1V562.2z M182.5,562h317.6v-79.2H182.5V562z"/>
				<path class="st1" d="M182.6,562.2h-79.8v-477h79.8V562.2z M103.1,562h79.2V85.4h-79.2V562z"/>
				<path class="st1" d="M341.5,562.2h-79.8v-477h79.8V562.2z M262,562h79.3V85.4H262V562z"/>
				<path class="st1" d="M420.9,562.2h-79.8v-477h79.8V562.2z M341.4,562h79.2V85.4h-79.2V562z"/>
				<path class="st1" d="M500.4,562.2h-79.8v-477h79.8V562.2z M420.9,562h79.2V85.4h-79.2V562z"/>
				<path class="st1" d="M262,562.2h-79.8v-477H262V562.2z M182.5,562h79.2V85.4h-79.2V562z"/>
				<path class="st1" d="M341.5,561.9h-79.8v-477h79.8V561.9z M262,561.7h79.3V85.1H262V561.7z"/>
				<path class="st1" d="M420.9,562.2h-79.8v-477h79.8V562.2z M341.4,562h79.2V85.4h-79.2V562z"/>
				<path class="st1" d="M500.4,561.9h-79.8v-477h79.8V561.9z M420.9,561.7h79.2V85.1h-79.2V561.7z"/>
				<path class="st1" d="M142.6,562.1c-6.2,0-12.5-1.5-18.4-4.5c-19.5-10.2-27-34.3-16.8-53.8c4.9-9.4,13.2-16.4,23.4-19.5
					c10.2-3.2,20.9-2.2,30.4,2.7c19.5,10.2,27,34.3,16.8,53.8C170.8,554.3,156.9,562.1,142.6,562.1z M142.7,482.7
					c-4,0-8,0.6-11.8,1.8c-10.1,3.2-18.3,10-23.3,19.4c-4.9,9.4-5.9,20.1-2.7,30.2c3.2,10.1,10,18.3,19.4,23.3
					c9.4,4.9,20.1,5.9,30.2,2.7c10.1-3.2,18.3-10,23.3-19.4c10.1-19.3,2.6-43.3-16.7-53.4C155.2,484.2,149,482.7,142.7,482.7z"/>
				<path class="st1" d="M142.5,482.7c-6.4,0-12.6-1.5-18.4-4.6c-9.4-4.9-16.4-13.2-19.5-23.4c-3.2-10.2-2.2-20.9,2.7-30.4l0.1,0.1
					l-0.1-0.1c4.9-9.4,13.2-16.4,23.4-19.5c10.2-3.2,20.9-2.2,30.4,2.7c19.5,10.2,27,34.3,16.8,53.8c-4.9,9.4-13.2,16.4-23.4,19.5
					C150.6,482.1,146.5,482.7,142.5,482.7z M142.6,403.3c-4,0-8,0.6-11.8,1.8c-10.1,3.2-18.3,10-23.3,19.4l0,0
					c-4.9,9.4-5.9,20.1-2.7,30.2c3.2,10.1,10,18.3,19.4,23.3c9.4,4.9,20.1,5.9,30.2,2.7c10.1-3.2,18.3-10,23.3-19.4
					c4.9-9.4,5.9-20.1,2.7-30.2c-3.2-10.1-10-18.3-19.4-23.3C155.2,404.8,149,403.3,142.6,403.3z"/>
				<path class="st2" d="M399.8,105.8c24.9,25.2,40.2,59.6,40.2,97.8c0,12.1-1.5,23.8-4.4,34.9c15.2,24.5,24.3,53.4,24.3,84.3
					c0,87.8-71.1,158.9-158.9,158.9h-99.3c0,32.4-15.7,61.4-39.7,79.5h139.1c131.6,0,238.4-106.8,238.4-238.4
					C539.3,226.3,482.2,143.3,399.8,105.8z"/>
				<path class="st2" d="M304,85.3L304,85.3h-1.1c-0.4,0-0.9,0-1.3,0l0,0H182.4l0,0H103V562c43.9,0,79.5-35.5,79.5-79.5l0,0h0.2
					V323.6h119.2l0,0c65.8,0,119.2-53.4,119.2-119.2C420.8,139.6,368.7,86.6,304,85.3z M301.6,244.2H182.4v-79.5h120.7
					c21.2,0.9,38.2,18.3,38.2,39.7C341.3,226.3,323.5,244.2,301.6,244.2z"/>
				<path class="st3" d="M402.1,106c24.9,25.2,40.2,59.6,40.2,97.8c0,12.1-1.5,23.8-4.4,34.9c15.2,24.5,24.3,53.4,24.3,84.3
					c0,87.8-71.1,158.9-158.9,158.9H204c0,32.4-15.7,61.4-39.7,79.5h139.1c131.6,0,238.4-106.8,238.4-238.4
					C541.6,226.5,484.5,143.5,402.1,106z"/>
				<path class="st3" d="M306.3,85.5L306.3,85.5h-1.1c-0.4,0-0.9,0-1.3,0l0,0H184.7l0,0h-79.5v476.8c43.9,0,79.5-35.5,79.5-79.5l0,0
					h0.2V323.9h119.2l0,0c65.8,0,119.2-53.4,119.2-119.2C423.1,139.8,371,86.8,306.3,85.5z M303.9,244.4H184.7v-79.5h120.7
					c21.2,0.9,38.2,18.3,38.2,39.7C343.6,226.5,325.8,244.4,303.9,244.4z"/>
				<path class="st2" d="M398.7,105.5c24.9,25.2,40.2,59.6,40.2,97.8c0,12.1-1.5,23.8-4.4,34.9c15.2,24.5,24.3,53.4,24.3,84.3
					c0,87.8-71.1,158.9-158.9,158.9h-99.3c0,32.4-15.7,61.4-39.7,79.5H300c131.6,0,238.4-106.8,238.4-238.4
					C538.2,226,481,143,398.7,105.5z"/>
				<path class="st2" d="M302.9,85L302.9,85h-1.1c-0.4,0-0.9,0-1.3,0l0,0H181.3l0,0h-79.5v476.8c43.9,0,79.5-35.5,79.5-79.5l0,0h0.2
					V323.4h119.2l0,0c65.8,0,119.2-53.4,119.2-119.2C419.7,139.3,367.6,86.3,302.9,85z M300.5,243.9H181.3v-79.5H302
					c21.2,0.9,38.2,18.3,38.2,39.7C340.2,226,322.3,243.9,300.5,243.9z"/>
			</g>
		</g>
		<g id="Layer_4">
		</g>
	</g>
</g>
</svg>
