<?xml version="1.0" encoding="utf-8"?>
<!-- Generator: Adobe Illustrator 26.3.1, SVG Export Plug-In . SVG Version: 6.00 Build 0)  -->
<svg version="1.1" xmlns="http://www.w3.org/2000/svg" xmlns:xlink="http://www.w3.org/1999/xlink" x="0px" y="0px"
	 viewBox="0 0 1029.8 829.5" style="enable-background:new 0 0 1029.8 829.5;" xml:space="preserve">
<style type="text/css">
	.st0{fill:none;stroke:#000000;stroke-width:0.25;stroke-miterlimit:10;}
	.st1{opacity:0.41;fill:#FFFFFF;enable-background:new    ;}
	.st2{fill:none;stroke:#000000;stroke-width:0.25;stroke-miterlimit:9.9999;}
	.st3{fill:none;stroke:#000000;stroke-width:0.25;stroke-miterlimit:10.0003;}
	.st4{fill:none;stroke:#000000;stroke-width:0.25;stroke-miterlimit:10.0002;}
	.st5{fill:none;stroke:#000000;stroke-miterlimit:10;}
	.st6{opacity:0.16;enable-background:new    ;}
	.st7{opacity:0.16;fill:#FFFFFF;enable-background:new    ;}
	.st8{fill:url(#SVGID_1_);}
	.st9{fill:url(#SVGID_00000027573596038217063570000008782234265997428413_);}
	.st10{fill:url(#SVGID_00000122680753171995884770000003789100308634941065_);}
	.st11{fill:url(#SVGID_00000163789724140547343850000013994272026736341420_);}
	.st12{fill:url(#SVGID_00000168104531354521045460000005955188155934154671_);}
	.st13{fill:url(#SVGID_00000123431615881636338550000014765509197695088529_);}
	.st14{fill:url(#SVGID_00000167396941122331933230000001312854167872976319_);}
	.st15{fill:url(#SVGID_00000181773438622411467130000017985409020287146647_);}
	.st16{fill:url(#SVGID_00000063621329718660981880000013764673200932291205_);}
	.st17{fill:url(#SVGID_00000124131880862553485450000007004466773499606969_);}
	.st18{fill:url(#SVGID_00000156574575769467237480000013741476638962763699_);}
	.st19{fill:url(#SVGID_00000034090486143969067650000013831425161860976009_);}
	.st20{fill:url(#SVGID_00000078019740560009793150000016426574262735091614_);}
	.st21{fill:url(#SVGID_00000078046742202389447730000009872721171162610850_);}
	.st22{fill:url(#SVGID_00000090997306684657412780000006383528624770820755_);}
	.st23{fill:url(#SVGID_00000096020647535994384060000002266700240077855152_);}
	.st24{fill:url(#SVGID_00000141446597141267767530000014723349290350588082_);}
	.st25{fill:url(#SVGID_00000057149796068557373660000005155588627342874046_);}
	.st26{fill:url(#SVGID_00000065786030875205350380000018286002566576306093_);}
	.st27{fill:url(#SVGID_00000109714400859502631370000009154080280697440433_);}
</style>
<g id="Layer_2">
</g>
<g id="Layer_3">
</g>
<g id="Layer_1">
	<path class="st0" d="M78.6,393.2"/>
	<g>
		<path class="st1" d="M642.6,105.8c24.9,25.2,40.2,59.6,40.2,97.8c0,12.1-1.5,23.8-4.4,34.9c15.2,24.5,24.3,53.4,24.3,84.3
			c0,87.8-71.1,158.9-158.9,158.9h-99.3c0,32.4-15.7,61.4-39.7,79.5h139.1c131.6,0,238.4-106.8,238.4-238.4
			C782.1,226.3,724.9,143.3,642.6,105.8z"/>
		<path class="st1" d="M546.8,85.3L546.8,85.3h-1.1c-0.4,0-0.9,0-1.3,0l0,0H425.1l0,0h-79.5V562c43.9,0,79.5-35.5,79.5-79.5l0,0h0.2
			V323.6h119.2l0,0c65.8,0,119.2-53.4,119.2-119.2C663.5,139.6,611.4,86.6,546.8,85.3z M544.3,244.2H425.1v-79.5h120.7
			c21.2,0.9,38.2,18.3,38.2,39.7C584.1,226.3,566.2,244.2,544.3,244.2z"/>
		<path class="st1" d="M642.9,105.9c24.9,25.2,40.2,59.6,40.2,97.8c0,12.1-1.5,23.8-4.4,34.9c15.2,24.5,24.3,53.4,24.3,84.3
			c0,87.8-71.1,158.9-158.9,158.9h-99.3c0,32.4-15.7,61.4-39.7,79.5H544c131.6,0,238.4-106.8,238.4-238.4
			C782.4,226.4,725.2,143.4,642.9,105.9z"/>
		<path class="st1" d="M547.1,85.3L547.1,85.3H546c-0.4,0-0.9,0-1.3,0l0,0H425.5l0,0H346v476.8c43.9,0,79.5-35.5,79.5-79.5l0,0h0.2
			V323.7h119.2l0,0c65.8,0,119.2-53.4,119.2-119.2C663.8,139.6,611.8,86.7,547.1,85.3z M544.7,244.3H425.5v-79.5h120.7
			c21.2,0.9,38.2,18.3,38.2,39.7C584.4,226.4,566.5,244.3,544.7,244.3z"/>
		<rect x="346.6" y="85" class="st0" width="396.4" height="476.8"/>
		<circle class="st0" cx="544.3" cy="204.4" r="39.7"/>
		<circle class="st0" cx="544.3" cy="125" r="39.7"/>
		<circle class="st0" cx="544.3" cy="283.9" r="39.7"/>
		<circle class="st0" cx="464.9" cy="204.4" r="39.7"/>
		
			<ellipse transform="matrix(0.5063 -0.8624 0.8624 0.5063 13.9648 433.2716)" class="st2" cx="385.4" cy="204.4" rx="39.7" ry="39.7"/>
		<circle class="st0" cx="544.3" cy="204.4" r="119.2"/>
		<circle class="st0" cx="544.3" cy="442.8" r="119.2"/>
		<circle class="st0" cx="544.3" cy="323.6" r="238.4"/>
		<rect x="345.7" y="85.3" class="st0" width="79.5" height="79.5"/>
		<rect x="345.7" y="164.7" class="st0" width="79.5" height="79.5"/>
		<rect x="345.7" y="244.2" class="st0" width="79.5" height="79.5"/>
		<rect x="345.7" y="323.4" class="st0" width="79.5" height="79.5"/>
		<rect x="345.7" y="403.1" class="st0" width="79.5" height="79.5"/>
		<rect x="345.7" y="482.6" class="st0" width="79.5" height="79.5"/>
		<rect x="345.7" y="562" class="st0" width="79.2" height="79.5"/>
		<rect x="424.9" y="482.6" class="st0" width="79.5" height="79.2"/>
		<rect x="345.7" y="601.5" class="st0" width="79.2" height="39.7"/>
		<rect x="345.7" y="561.8" class="st0" width="79.2" height="19.9"/>
		<rect x="424.9" y="482.8" class="st0" width="39.7" height="79.2"/>
		<rect x="424.9" y="482.6" class="st0" width="19.9" height="79.2"/>
		<ellipse class="st3" cx="345.6" cy="482.3" rx="79.5" ry="79.5"/>
		<ellipse class="st4" cx="345.7" cy="482.6" rx="99.3" ry="99.3"/>
		<path class="st5" d="M546.8,85.3L546.8,85.3h-1.1c-0.4,0-0.9,0-1.3,0l0,0H425.1l0,0h-79.5V562c43.9,0,79.5-35.5,79.5-79.5l0,0h0.2
			V323.6h119.2l0,0c65.8,0,119.2-53.4,119.2-119.2C663.5,139.3,611.4,86.6,546.8,85.3z M544.3,244.2H425.1v-79.5h120.7
			c21.2,0.9,38.2,18.3,38.2,39.7C584.1,226.3,566.2,244.2,544.3,244.2z"/>
		<path class="st5" d="M642.6,105.6c24.9,25.2,40.2,59.6,40.2,97.8c0,12.1-1.5,23.8-4.4,34.9c15.2,24.5,24.3,53.4,24.3,84.3
			c0,87.8-71.1,158.9-158.9,158.9h-99.3c0,32.4-15.7,61.4-39.7,79.5h139.1c131.6,0,238.4-106.8,238.4-238.4
			C782.1,226.3,724.9,143.3,642.6,105.6z"/>
		<rect x="345.7" y="323.4" class="st0" width="247.7" height="79.5"/>
		<rect x="345.7" y="323.6" class="st0" width="238.4" height="39.7"/>
		<rect x="345.7" y="323.4" class="st0" width="238.4" height="19.9"/>
		<rect x="345.7" y="323.6" class="st0" width="247.7" height="39.7"/>
		<rect x="345.7" y="343.5" class="st0" width="247.7" height="39.7"/>
		<rect x="345.7" y="323.4" class="st0" width="247.7" height="19.9"/>
		<circle class="st0" cx="544.3" cy="323.6" r="158.9"/>
		<circle class="st0" cx="544.3" cy="204.4" r="139.1"/>
		<rect x="345.7" y="5.6" class="st0" width="247.7" height="79.5"/>
		<rect x="345.7" y="45.3" class="st0" width="247.7" height="39.7"/>
		<rect x="345.7" y="65.4" class="st0" width="247.7" height="19.9"/>
		<rect x="345.7" y="85.3" class="st0" width="402.2" height="476.8"/>
		<rect x="425.1" y="482.6" class="st0" width="322.7" height="79.5"/>
		<rect x="425.1" y="403.1" class="st0" width="322.7" height="79.5"/>
		<rect x="425.1" y="323.4" class="st0" width="322.7" height="79.5"/>
		<rect x="425.1" y="244.2" class="st0" width="322.7" height="79.5"/>
		<rect x="425.1" y="164.7" class="st0" width="322.7" height="79.5"/>
		<rect x="425.1" y="85.3" class="st0" width="322.7" height="79.5"/>
		<rect x="425.1" y="85.3" class="st0" width="317.8" height="79.5"/>
		<rect x="425.1" y="164.7" class="st0" width="317.8" height="79.5"/>
		<rect x="425.1" y="244.2" class="st0" width="317.8" height="79.5"/>
		<rect x="425.1" y="323.6" class="st0" width="317.8" height="79.5"/>
		<rect x="425.1" y="403.1" class="st0" width="317.8" height="79.5"/>
		<rect x="425.1" y="482.6" class="st0" width="317.8" height="79.5"/>
		<rect x="345.7" y="85.3" class="st0" width="79.5" height="476.8"/>
		<rect x="504.6" y="85.3" class="st0" width="79.5" height="476.8"/>
		<rect x="584.1" y="85.3" class="st0" width="79.5" height="476.8"/>
		<rect x="663.5" y="85.3" class="st0" width="79.5" height="476.8"/>
		<rect x="425.1" y="85.3" class="st0" width="79.5" height="476.8"/>
		<rect x="504.6" y="85" class="st0" width="79.5" height="476.8"/>
		<rect x="584.1" y="85.3" class="st0" width="79.5" height="476.8"/>
		<rect x="663.5" y="85" class="st0" width="79.5" height="476.8"/>
		
			<ellipse transform="matrix(0.4641 -0.8858 0.8858 0.4641 -256.0662 621.2463)" class="st3" cx="385.4" cy="522.2" rx="39.7" ry="39.7"/>
		
			<ellipse transform="matrix(0.4641 -0.8858 0.8858 0.4641 -185.6828 578.6614)" class="st3" cx="385.4" cy="442.8" rx="39.7" ry="39.7"/>
		<path class="st6" d="M642.6,105.8c24.9,25.2,40.2,59.6,40.2,97.8c0,12.1-1.5,23.8-4.4,34.9c15.2,24.5,24.3,53.4,24.3,84.3
			c0,87.8-71.1,158.9-158.9,158.9h-99.3c0,32.4-15.7,61.4-39.7,79.5h139.1c131.6,0,238.4-106.8,238.4-238.4
			C782.1,226.3,724.9,143.3,642.6,105.8z"/>
		<path class="st6" d="M546.8,85.3L546.8,85.3h-1.1c-0.4,0-0.9,0-1.3,0l0,0H425.1l0,0h-79.5V562c43.9,0,79.5-35.5,79.5-79.5l0,0h0.2
			V323.6h119.2l0,0c65.8,0,119.2-53.4,119.2-119.2C663.5,139.6,611.4,86.6,546.8,85.3z M544.3,244.2H425.1v-79.5h120.7
			c21.2,0.9,38.2,18.3,38.2,39.7C584.1,226.3,566.2,244.2,544.3,244.2z"/>
		<path class="st7" d="M644.9,106c24.9,25.2,40.2,59.6,40.2,97.8c0,12.1-1.5,23.8-4.4,34.9c15.2,24.5,24.3,53.4,24.3,84.3
			c0,87.8-71.1,158.9-158.9,158.9h-99.3c0,32.4-15.7,61.4-39.7,79.5H546c131.6,0,238.4-106.8,238.4-238.4
			C784.4,226.5,727.2,143.5,644.9,106z"/>
		<path class="st7" d="M549.1,85.5L549.1,85.5H548c-0.4,0-0.9,0-1.3,0l0,0H427.5l0,0H348v476.8c43.9,0,79.5-35.5,79.5-79.5l0,0h0.2
			V323.9h119.2l0,0c65.8,0,119.2-53.4,119.2-119.2C665.8,139.8,613.7,86.8,549.1,85.5z M546.6,244.4H427.5v-79.5h120.7
			c21.2,0.9,38.2,18.3,38.2,39.7C586.4,226.5,568.5,244.4,546.6,244.4z"/>
		<path class="st6" d="M641.4,105.5c24.9,25.2,40.2,59.6,40.2,97.8c0,12.1-1.5,23.8-4.4,34.9c15.2,24.5,24.3,53.4,24.3,84.3
			c0,87.8-71.1,158.9-158.9,158.9h-99.3c0,32.4-15.7,61.4-39.7,79.5h139.1c131.6,0,238.4-106.8,238.4-238.4
			C780.9,226,723.8,143,641.4,105.5z"/>
		<path class="st6" d="M545.6,85L545.6,85h-1.1c-0.4,0-0.9,0-1.3,0l0,0H424l0,0h-79.5v476.8c43.9,0,79.5-35.5,79.5-79.5l0,0h0.2
			V323.4h119.2l0,0c65.8,0,119.2-53.4,119.2-119.2C662.4,139.3,610.3,86.3,545.6,85z M543.2,243.9H424v-79.5h120.7
			c21.2,0.9,38.2,18.3,38.2,39.7C582.9,226,565.1,243.9,543.2,243.9z"/>
	</g>
</g>
<g id="Layer_4">
	<g>
		<g>
			<linearGradient id="SVGID_1_" gradientUnits="userSpaceOnUse" x1="313.063" y1="552.0436" x2="313.063" y2="663.4334">
				<stop  offset="0.2499" style="stop-color:#3E3E3F"/>
				<stop  offset="1" style="stop-color:#77787B"/>
			</linearGradient>
			<path class="st8" d="M302.4,796.7v-27.1h5.3c3.9,0,6.6,0.4,8.3,0.9c2.5,0.9,4.4,2.5,5.8,4.9c1.4,2.3,2,5,2,8.1
				c0,2.7-0.5,5-1.7,7.2c-1.2,2.2-2.5,3.6-4.2,4.5c-1.7,0.9-4.2,1.4-7.5,1.4h-8V796.7z M304.8,794h2.9c3.6,0,5.9-0.2,7.3-0.7
				c1.9-0.7,3.4-1.8,4.6-3.6c1-1.8,1.7-3.8,1.7-6.3c0-2.7-0.7-4.9-1.9-6.6s-2.9-3.1-4.9-3.8c-1.5-0.5-4.2-0.7-8-0.7h-1.9V794H304.8z
				"/>
			
				<linearGradient id="SVGID_00000080175358003666533050000010305785878713868973_" gradientUnits="userSpaceOnUse" x1="350.3687" y1="552.0436" x2="350.3687" y2="663.4334">
				<stop  offset="0.2499" style="stop-color:#3E3E3F"/>
				<stop  offset="1" style="stop-color:#77787B"/>
			</linearGradient>
			<path style="fill:url(#SVGID_00000080175358003666533050000010305785878713868973_);" d="M343.1,769.6h14.6v2.7h-12v8.4h12v2.7
				h-12V794h12v2.7h-14.6V769.6z"/>
			
				<linearGradient id="SVGID_00000109746793931600720670000002272670967496110467_" gradientUnits="userSpaceOnUse" x1="381.1458" y1="552.0436" x2="381.1458" y2="663.4334">
				<stop  offset="0.2499" style="stop-color:#3E3E3F"/>
				<stop  offset="1" style="stop-color:#77787B"/>
			</linearGradient>
			<path style="fill:url(#SVGID_00000109746793931600720670000002272670967496110467_);" d="M373.8,791.7l2.2-1.4
				c1.5,3.1,3.2,4.5,5.3,4.5c0.8,0,1.7-0.2,2.4-0.7c0.7-0.4,1.4-1.1,1.7-1.6c0.3-0.5,0.5-1.4,0.5-2.3c0-0.9-0.3-1.8-0.8-2.7
				c-0.8-1.3-2.2-2.7-4.4-4.3c-2.2-1.8-3.4-2.9-3.9-3.8c-0.8-1.3-1.4-2.7-1.4-4.1c0-1.3,0.3-2.3,0.8-3.2c0.5-0.9,1.4-1.8,2.2-2.3
				c1-0.5,2-0.9,3.2-0.9c1.2,0,2.4,0.4,3.4,0.9c1,0.7,2.2,1.8,3.4,3.4l-2,1.6c-1-1.4-1.9-2.2-2.5-2.7c-0.7-0.4-1.4-0.7-2.2-0.7
				c-1,0-1.9,0.4-2.5,1.1c-0.7,0.7-1,1.4-1,2.5c0,0.5,0.2,1.1,0.3,1.8s0.7,1.1,1.2,1.8c0.3,0.4,1.4,1.3,3.2,2.7
				c2.2,1.8,3.7,3.2,4.6,4.7c0.8,1.4,1.2,2.7,1.2,4.1c0,2-0.7,3.6-2,5.2c-1.4,1.4-3.1,2.2-5.1,2.2c-1.5,0-2.9-0.4-4.2-1.3
				C376,795.1,374.8,793.6,373.8,791.7z"/>
			
				<linearGradient id="SVGID_00000172399573369196504370000016998201761754189202_" gradientUnits="userSpaceOnUse" x1="409.2946" y1="552.0436" x2="409.2946" y2="663.4334">
				<stop  offset="0.2499" style="stop-color:#3E3E3F"/>
				<stop  offset="1" style="stop-color:#77787B"/>
			</linearGradient>
			<path style="fill:url(#SVGID_00000172399573369196504370000016998201761754189202_);" d="M408,769.6h2.5v27.1H408V769.6z"/>
			
				<linearGradient id="SVGID_00000160908904793417748660000000015988988905727875_" gradientUnits="userSpaceOnUse" x1="442.8698" y1="552.0436" x2="442.8698" y2="663.4334">
				<stop  offset="0.2499" style="stop-color:#3E3E3F"/>
				<stop  offset="1" style="stop-color:#77787B"/>
			</linearGradient>
			<path style="fill:url(#SVGID_00000160908904793417748660000000015988988905727875_);" d="M455.3,774l-2,2
				c-1.4-1.4-3.1-2.7-4.7-3.4s-3.4-1.1-4.9-1.1c-2,0-3.9,0.5-5.8,1.6c-1.9,1.1-3.2,2.5-4.2,4.3c-1,1.8-1.5,3.6-1.5,5.8
				c0,2,0.5,4,1.5,5.8c1,1.8,2.4,3.2,4.2,4.3s3.7,1.6,5.9,1.6c2.7,0,4.9-0.7,6.6-2.3c1.9-1.6,2.9-3.6,3.2-6.1h-8.1v-2.7h11
				c0,4.1-1.2,7.5-3.6,10.1c-2.4,2.5-5.4,3.8-9.3,3.8c-4.7,0-8.5-1.6-11.2-5c-2.2-2.7-3.2-5.8-3.2-9.2c0-2.5,0.7-5,1.9-7.2
				s2.9-4,5.1-5.2c2.2-1.3,4.6-1.8,7.1-1.8c2.2,0,4.2,0.4,6.1,1.3C451.8,771,453.6,772.3,455.3,774z"/>
			
				<linearGradient id="SVGID_00000093164030642187692960000017708553550255544240_" gradientUnits="userSpaceOnUse" x1="486.0256" y1="552.0436" x2="486.0256" y2="663.4334">
				<stop  offset="0.2499" style="stop-color:#3E3E3F"/>
				<stop  offset="1" style="stop-color:#77787B"/>
			</linearGradient>
			<path style="fill:url(#SVGID_00000093164030642187692960000017708553550255544240_);" d="M476,796.7v-27.1h0.5l17,20.8v-20.8h2.5
				v27.1h-0.5l-17-20.5v20.5H476z"/>
			
				<linearGradient id="SVGID_00000179640140086696069700000005906186489997249437_" gradientUnits="userSpaceOnUse" x1="545.4603" y1="552.0436" x2="545.4603" y2="663.4334">
				<stop  offset="0.2499" style="stop-color:#3E3E3F"/>
				<stop  offset="1" style="stop-color:#77787B"/>
			</linearGradient>
			<path style="fill:url(#SVGID_00000179640140086696069700000005906186489997249437_);" d="M538.1,791.7l2.2-1.4
				c1.5,3.1,3.2,4.5,5.3,4.5c0.8,0,1.7-0.2,2.4-0.7c0.7-0.4,1.4-1.1,1.7-1.6c0.3-0.7,0.5-1.4,0.5-2.3c0-0.9-0.3-1.8-0.8-2.7
				c-0.8-1.3-2.2-2.7-4.4-4.3c-2.2-1.8-3.4-2.9-3.9-3.8c-0.8-1.3-1.4-2.7-1.4-4.1c0-1.3,0.3-2.3,0.8-3.2c0.5-0.9,1.4-1.8,2.2-2.3
				c1-0.5,2-0.9,3.2-0.9s2.4,0.4,3.4,0.9c1,0.7,2.2,1.8,3.4,3.4l-2,1.6c-1-1.4-1.9-2.2-2.5-2.7c-0.7-0.4-1.4-0.7-2.2-0.7
				c-1,0-1.9,0.4-2.5,1.1s-1,1.4-1,2.5c0,0.5,0.2,1.1,0.3,1.8c0.2,0.7,0.7,1.1,1.2,1.8c0.3,0.4,1.4,1.3,3.2,2.7
				c2.2,1.8,3.7,3.2,4.6,4.7s1.2,2.7,1.2,4.1c0,2-0.7,3.6-2,5.2c-1.4,1.4-3.1,2.2-5.1,2.2c-1.5,0-2.9-0.4-4.2-1.3
				C540.3,795.1,539.1,793.6,538.1,791.7z"/>
			
				<linearGradient id="SVGID_00000000932194809848848890000009793985265412072866_" gradientUnits="userSpaceOnUse" x1="577.1701" y1="552.0436" x2="577.1701" y2="663.4334">
				<stop  offset="0.2499" style="stop-color:#3E3E3F"/>
				<stop  offset="1" style="stop-color:#77787B"/>
			</linearGradient>
			<path style="fill:url(#SVGID_00000000932194809848848890000009793985265412072866_);" d="M570.1,772.3v-2.7h14.1v2.7h-5.8v24.4
				h-2.5v-24.4H570.1z"/>
			
				<linearGradient id="SVGID_00000137116718006028165160000010897997051452553125_" gradientUnits="userSpaceOnUse" x1="610.6604" y1="552.0436" x2="610.6604" y2="663.4334">
				<stop  offset="0.2499" style="stop-color:#3E3E3F"/>
				<stop  offset="1" style="stop-color:#77787B"/>
			</linearGradient>
			<path style="fill:url(#SVGID_00000137116718006028165160000010897997051452553125_);" d="M602.2,769.6h2.5v16.4
				c0,2,0,3.2,0.2,3.6c0.2,1.1,0.3,2,0.8,2.7c0.5,0.7,1.2,1.3,2.2,1.8c1,0.5,1.9,0.7,2.9,0.7c0.8,0,1.7-0.2,2.4-0.5
				c0.7-0.4,1.4-0.9,1.9-1.6c0.5-0.7,0.8-1.4,1.2-2.5c0.2-0.7,0.3-2.2,0.3-4.3v-16.4h2.5v16.4c0,2.3-0.2,4.3-0.7,5.9
				c-0.5,1.4-1.4,2.9-2.7,4c-1.4,1.1-2.9,1.6-4.9,1.6s-3.9-0.5-5.3-1.6c-1.4-1.1-2.4-2.3-2.9-4.1c-0.3-1.1-0.5-2.9-0.5-5.8
				L602.2,769.6L602.2,769.6z"/>
			
				<linearGradient id="SVGID_00000155851212425361011900000012326414458193855152_" gradientUnits="userSpaceOnUse" x1="650.34" y1="552.0436" x2="650.34" y2="663.4334">
				<stop  offset="0.2499" style="stop-color:#3E3E3F"/>
				<stop  offset="1" style="stop-color:#77787B"/>
			</linearGradient>
			<path style="fill:url(#SVGID_00000155851212425361011900000012326414458193855152_);" d="M639.7,796.7v-27.1h5.3
				c3.9,0,6.6,0.4,8.3,0.9c2.5,0.9,4.4,2.5,5.8,4.9c1.4,2.3,2,5,2,8.1c0,2.7-0.5,5-1.7,7.2c-1.2,2-2.5,3.6-4.2,4.5
				c-1.7,0.9-4.2,1.4-7.5,1.4h-8V796.7z M642,794h2.9c3.6,0,5.9-0.2,7.3-0.7c1.9-0.7,3.4-1.8,4.6-3.6c1-1.8,1.7-3.8,1.7-6.3
				c0-2.7-0.7-4.9-1.9-6.6s-2.9-3.1-4.9-3.8c-1.5-0.5-4.2-0.7-8-0.7h-1.9V794H642z"/>
			
				<linearGradient id="SVGID_00000050639605277756392830000004773624553066974112_" gradientUnits="userSpaceOnUse" x1="681.2867" y1="552.0436" x2="681.2867" y2="663.4334">
				<stop  offset="0.2499" style="stop-color:#3E3E3F"/>
				<stop  offset="1" style="stop-color:#77787B"/>
			</linearGradient>
			<path style="fill:url(#SVGID_00000050639605277756392830000004773624553066974112_);" d="M680,769.6h2.5v27.1H680V769.6z"/>
			
				<linearGradient id="SVGID_00000122712654641129400370000006352407647450230447_" gradientUnits="userSpaceOnUse" x1="714.8619" y1="552.0436" x2="714.8619" y2="663.4334">
				<stop  offset="0.2499" style="stop-color:#3E3E3F"/>
				<stop  offset="1" style="stop-color:#77787B"/>
			</linearGradient>
			<path style="fill:url(#SVGID_00000122712654641129400370000006352407647450230447_);" d="M714.8,768.8c3.9,0,7.1,1.4,9.7,4.1
				s3.9,6.1,3.9,10.1c0,4-1.4,7.4-3.9,10.1c-2.5,2.7-5.8,4.1-9.5,4.1s-7-1.4-9.7-4.1c-2.5-2.7-3.9-6.1-3.9-10.1c0-2.5,0.7-5,1.9-7.2
				c1.2-2.2,2.9-4,4.9-5.2C710.2,769.6,712.4,768.8,714.8,768.8z M714.9,771.5c-1.9,0-3.7,0.5-5.4,1.6c-1.7,1.1-3.1,2.5-3.9,4.1
				c-0.8,1.6-1.4,3.8-1.4,5.9c0,3.2,1,5.9,3.2,8.1c2,2.2,4.6,3.4,7.6,3.4c2,0,3.9-0.5,5.6-1.6c1.7-1.1,3.1-2.3,3.9-4.1
				c1-1.8,1.4-3.8,1.4-5.9s-0.5-4.1-1.4-5.8c-1-1.8-2.2-3.1-4.1-4.1C718.7,772.1,717,771.5,714.9,771.5z"/>
		</g>
		<g>
			
				<linearGradient id="SVGID_00000022555675218792940520000000367292813561576330_" gradientUnits="userSpaceOnUse" x1="504.3432" y1="552.0436" x2="504.3432" y2="663.4334">
				<stop  offset="0.2499" style="stop-color:#3E3E3F"/>
				<stop  offset="1" style="stop-color:#77787B"/>
			</linearGradient>
			<path style="fill:url(#SVGID_00000022555675218792940520000000367292813561576330_);" d="M536,608.9c4.1-3.2,7.5-5,10-3.6
				c2.4,2-1.2-5.6-8.3-8.3c-1-0.5-2.4-0.9-3.6-0.9c-6.3,0-17.1,12.4-20.5,16.5c-22,25.7-51.7,73.1-51.7,85c0,3.4,2.4,5,4.4,5
				c3.1,0,10.2-5,10.9-7.4c-3.7,2-6.4,2.5-9.2,2.5c0-7.2,33.4-51.2,56.1-76.6C530.4,614.3,533.3,611.2,536,608.9z"/>
			<g>
				
					<linearGradient id="SVGID_00000161610441385512288540000014198939731574415490_" gradientUnits="userSpaceOnUse" x1="726.8273" y1="552.0436" x2="726.8273" y2="663.4334">
					<stop  offset="0.2499" style="stop-color:#3E3E3F"/>
					<stop  offset="1" style="stop-color:#77787B"/>
				</linearGradient>
				<path style="fill:url(#SVGID_00000161610441385512288540000014198939731574415490_);" d="M887,634.1
					c-14.9,24.8-39.8,55.5-59.7,68.5c-0.5-2.3,4.1-15.3,9.7-24.8c6.1-10.1,9.5-14.2,11.9-14c1.5,0.2,2,0.9,2,0.4
					c-0.3-4.5-7.1-10.8-10.9-10.8c-0.5,0-1.4,0.2-2.2,0.9c-3.1,2.7-6.1,7.7-12,16.5c-14.6,17.8-27.8,29.1-32.6,31.8
					c1.4-9.5,15.1-32,21.4-39.7c2.2-2.7,4.2-4.1,5.6-4.1c1.4,0.2,1.9,0.9,1.7,0.4c-0.2-4.3-6.6-10.8-10.7-10.8
					c-0.5,0-1.4,0.2-2.2,1.1c-3.6,3.1-6.4,6.8-10.9,13.8c-1.7,0.5-3.4,0.9-5.4,1.1c-6.3,0.5-10-3.2-13.1-8.4c-0.2-0.4-2-1.8-3.6-1.6
					c-2,0.2-6.8,5.2-7.3,6.8c-0.7,1.8,0.8,6.8,1.7,8.3c-10.5,17.1-33.1,43.7-41.9,39.9c-8.8-4.1,24.2-60.4,52.7-60.4
					c1,0,2.4,0.4,3.9,0.5c0.7,0,1.2,0,0.3-0.5c-1.2-1.1-3.7-2.9-9.7-2.9c-19.8,0-46,17.3-55.6,38.1c-9.7,9.2-20.5,18.3-26.6,20.1
					c0.3-7.9,24.8-43.1,28.5-46.4c2-1.8-3.1-10.8-6.8-10.8c-5.3,0-33.1,22.6-50.7,41c-3.2,3.4-6.3,6.6-8,9.3
					c2.4-4.9,10.5-17.1,18-27.5c4.6-6.5,10.5-13.5,12.5-13.3c1.2,0.2,1.9,1.1,1.9,0.4c0-4.3-6.1-10.8-10-10.8c-0.5,0-1.4,0.2-2,0.9
					c-4.2,3.2-11.2,12.2-16.8,20.7c-1.2,1.8-2.4,3.6-3.7,5.6c-11,11-29,28.4-37.6,31.1c0-1.4,0.5-3.4,1.5-5.8
					c4.7-10.8,18.8-28.9,19.7-27.3c0.7-2-4.6-11.1-7.8-9.5c-3.9,2.3-14.1,12.8-17,15.5c-8.1,7.4-30.2,24.3-35.4,26.1
					c-0.5,0.2-0.8,0.2-1.2,0c-1.4-0.7,10.5-21.9,25.4-35.4c10.2-9.2,21.7-16.2,30.9-16.7c4.7-0.4,7.8,2.2,7.8,7.2
					c0,2.3-0.8,4.5-1.7,5.9c-0.2,0.2,0.2,0.4,0.5,0.2c1.7-2.2,3.1-5,3.1-7.9c0-7.9-8-10.6-13.9-10.6c-29,0-65.1,37.4-65.1,55.5
					c0,3.2,4.1,9.7,7,11.1c0.2,0.2,1,0.5,1.4,0.5c6.6,0,37.3-28,42.1-33.1c-2.9,4.1-7.1,11.9-9.3,18.5c-0.5,2.5-1.2,4.5-1.2,6.1
					c0,3.1,3.1,6.6,5.3,7.9c1.2,0.7,1.9,1.1,2.7,1.1c7.3,0,23.9-16.4,37.5-31.1c-2,3.6-4.1,7.2-5.6,10.4c-3.9,7.5-4.7,12-4.4,13.3
					c1.4,4.9,5.1,10.2,9.8,9c-2.4-1.1-1.2-5.6,3.1-11c1.7-2.3,3.6-4.9,5.6-7c11.7-13.3,34.9-33.6,47.8-39.7
					c-8.1,7.9-26.5,35.8-26.5,45.3c0,1.8,1.2,4.3,2.9,6.5c1.5,2.2,3.4,3.6,4.9,3.6c5.8,0,17.6-10.4,29.2-22.1
					c-0.8,3.1-1.4,6.3-1.4,9.5c0,6.3,4.7,12.6,12,13.1c16.6,1.1,49.3-23,53.6-45.3c0.8,0.4,2.4,0.7,4.7,0.7c2.4,0,5.4-0.2,8.6-1.3
					c-8,13.7-15.1,30.4-14.8,38.3c0.3,1.4,4.2,7.9,7.3,7.9c1.7,0,6.3-4.1,11.2-8.4c6.3-5.6,17.1-18.7,24.4-27.5
					c-4.2,9.2-8.5,21-7.6,27.5c0.2,1.4,4.1,7.9,8,7.9c6.3,0,51.7-46.5,63.6-78.9C888.2,632.8,888.1,632.8,887,634.1z"/>
				
					<linearGradient id="SVGID_00000172431189226031137790000008845660831822991527_" gradientUnits="userSpaceOnUse" x1="103.45" y1="552.0436" x2="103.45" y2="663.4334">
					<stop  offset="0.2499" style="stop-color:#3E3E3F"/>
					<stop  offset="1" style="stop-color:#77787B"/>
				</linearGradient>
				<path style="fill:url(#SVGID_00000172431189226031137790000008845660831822991527_);" d="M68.5,695
					c43.1-8.6,131.6-45.3,131.6-89.3c0-27.5-38-34.5-54.9-34.5c-81.6,0-138.4,49.8-138.4,72.4c0,12.4,8.6,15.8,19.8,15.8
					c2.5,0,2.5-0.2,2.5-0.2c-4.1-0.4-11.7-4.5-11.7-11.3c0-21.7,70.9-71.9,126.5-71.9c28,0,48.3,9,48.3,24.8
					c0,26.8-65.6,63.8-113.8,79.6c27-38.1,60.9-78.5,70.2-78.5c1.4,0,3.2,0.5,4.4,2.3c-0.8-6.8-7.3-12.8-12.9-12.8
					c-12,0-53.9,50.7-80.7,94.3c-6.6,1.4-12.2,2.2-17,2.2c-2.9,0-3.9-0.9-3.9-1.8c0-7.4,16.4-18.2,21.4-21.2
					c-0.2-0.2-0.3-0.2-0.5-0.2c-3.9,0-26.8,13.5-26.8,22.5c0,6.1,7.8,9.7,20.2,9.7c-10,17.6-16.8,33.4-17,42.2
					c0,6.3,2.7,10.4,7,10.4c0.7,0,1.7-0.2,2.5-0.5c-2.9-0.4-2.7-2.9-2.7-6.1C42.7,736.1,53.8,716.9,68.5,695z"/>
				
					<linearGradient id="SVGID_00000077319967209210217090000006873572144059978644_" gradientUnits="userSpaceOnUse" x1="991.325" y1="552.0436" x2="991.325" y2="663.4334">
					<stop  offset="0.2499" style="stop-color:#3E3E3F"/>
					<stop  offset="1" style="stop-color:#77787B"/>
				</linearGradient>
				<path style="fill:url(#SVGID_00000077319967209210217090000006873572144059978644_);" d="M1018.3,668
					c-9.5,9.9-32.6,33.1-42.2,35.8c1.9-6.8,23.6-44.9,30-44.2c1.2,0.2,2,1.1,2,0.4c0-4.1-6.4-10.8-10-10.8c-0.7,0-1.5,0.2-2.4,1.1
					c-10,8.4-32.9,44.9-32.9,54.6c0,3.1,3.9,7.2,6.4,8.1c0.8,0.2,1.4,0.2,1.9,0c9.7-0.9,34.8-28.2,48.5-43.8
					C1020.2,668.6,1019.5,667.1,1018.3,668z"/>
				
					<linearGradient id="SVGID_00000119835551807070741400000002703480560459930805_" gradientUnits="userSpaceOnUse" x1="1013.39" y1="552.0436" x2="1013.39" y2="663.4334">
					<stop  offset="0.2499" style="stop-color:#3E3E3F"/>
					<stop  offset="1" style="stop-color:#77787B"/>
				</linearGradient>
				<path style="fill:url(#SVGID_00000119835551807070741400000002703480560459930805_);" d="M1022,629c-2-2.5-5.4-5.8-9.2-5.6
					c-4.2,1.4-10.2,12.2-10,17.1c0,3.1,3.4,6.6,5.6,3.6c1.9-2.7,9.2-9.5,11.9-10.8c1.9-0.9,3.1-0.2,3.4-0.2
					C1024.4,633.2,1023.4,630.6,1022,629z"/>
				
					<linearGradient id="SVGID_00000041985040559387771800000017021307551107755179_" gradientUnits="userSpaceOnUse" x1="266.5928" y1="552.0436" x2="266.5928" y2="663.4334">
					<stop  offset="0.2499" style="stop-color:#3E3E3F"/>
					<stop  offset="1" style="stop-color:#77787B"/>
				</linearGradient>
				<path style="fill:url(#SVGID_00000041985040559387771800000017021307551107755179_);" d="M385.3,596.3c2.9,1.8-3.4-7.9-12.2-7.4
					c-1.4,0-3.4,1.4-5.8,3.4c-3.9,3.4-8.3,8.8-13.1,15.3c-8.3,11.3-18.3,25.9-28.1,42.1c-5.3,8.6-9.5,16.2-13.1,22.6
					c-10.9,11-29,28.4-37.6,31.3c0-4.7,5.8-16.5,13.7-27.7c5.3-7.4,9.7-13.3,12-16c2-2.3,4.1-3.8,5.3-3.8c1.4,0.2,1.9,1.1,1.9,0.4
					c0-4.3-6.1-10.8-9.8-10.8c-0.7,0-1.4,0.2-2.2,0.9c-9,7.4-20.7,21.9-28.8,30.4c-7.5,7.7-23.6,22.6-31.2,26.1
					c0-4.9,8-19.4,15.9-30.6c5.4-7.2,12-16,14.4-15.6c1.4,0.2,2,1.1,2,0.4c0-4.3-6.3-10.8-10-10.8c-0.5,0-1.4,0.2-2.2,1.1
					c-3.9,3.4-10.5,11.3-16.1,19.6c-2.4,3.6-4.7,7.4-7,11.1c-10.9,10.6-25.3,23.9-32.7,26.1c0-1.4,0.5-3.4,1.5-5.8
					c4.7-10.8,18.8-28.9,19.7-27.3c0.5-2-4.7-11.1-8-9.5c-3.9,2.3-14.1,12.8-17,15.5c-8.1,7.4-30.2,24.3-35.4,26.1
					c-0.5,0.2-0.8,0.2-1.2,0c-1.4-0.7,10.5-21.9,25.4-35.4c10.2-9.2,21.7-16.2,30.9-16.7c4.7-0.4,7.8,2.2,7.8,7.2
					c0,2.3-0.8,4.5-1.7,5.9c-0.2,0.2,0.2,0.4,0.5,0.2c1.7-2.2,3.1-5,3.1-7.9c0-7.9-8-10.6-13.9-10.6c-29,0-65.1,37.4-65.1,55.5
					c0,3.2,4.1,9.7,7,11.1c0.2,0.2,1,0.5,1.4,0.5c6.6,0,37.3-28,42.1-33.1c-3.1,4.1-7.3,11.9-9.2,18.5c-0.5,2.5-1.2,4.5-1.2,6.1
					c0,3.1,3.1,6.6,5.3,7.9c1.2,0.7,1.9,1.1,2.7,1.1c6.4,0,20.7-13.3,33.6-27c-3.6,7.2-6.1,13.7-6.1,17.6c0,4,4.9,8.4,7.5,8.4
					c0,0,0.8,0,1.2,0c9.3-2,30.5-26.1,46.5-43.3c-5.9,7.7-11.9,19.6-14.6,27c-0.7,2.5-1.7,5.6-1.7,7.2c0,3.1,3.1,7,5.6,8.3
					c0.8,0.7,1.7,1.1,2.5,1.1c7.5,0,25.6-18,39.5-33.4c-6.6,12.8-9.5,20.1-9.5,23.4c0,1.8,0.3,2.2,0.5,2.5c0.8,2.5,4.4,5.9,5.6,6.6
					c1.5,0.9,3.1,1.6,5.1,0.7c9.5-3.8,36.8-34.1,44.6-43.5c0.3-0.5-0.2-2-1.2-1.1c-9.3,9-35.4,36.3-42.2,35.4
					c3.7-10.6,15.6-31.8,29.3-53.9c8-12.2,14.4-22.1,21.2-31.3C369.5,609.4,379.7,593.6,385.3,596.3z"/>
				
					<linearGradient id="SVGID_00000068655067104109778330000007554894130257509035_" gradientUnits="userSpaceOnUse" x1="485.3305" y1="552.0436" x2="485.3305" y2="663.4334">
					<stop  offset="0.2499" style="stop-color:#3E3E3F"/>
					<stop  offset="1" style="stop-color:#77787B"/>
				</linearGradient>
				<path style="fill:url(#SVGID_00000068655067104109778330000007554894130257509035_);" d="M522.3,575.3
					c-43.2,0.2-91.2,24.1-91.2,49.2c0,8.1,6.1,15.1,13.1,15.1c-3.1-1.8-5.1-5.6-5.1-10.1c0-16.5,48.2-49.4,94.5-48.9
					c23.2,0.4,47.6,12.4,47.6,33.8c0,55.2-107,121.1-177.4,121.1c-6.3,0-17.1-1.1-17.1-8.3c0-17.4,33.2-42.1,58.8-54.6
					c0.7-0.5,1-0.7,1-0.9c-33.6,12.6-66.8,38.6-66.8,57.1c0,15.1,18.3,17.6,27.8,17.6c81.4,0,182.3-64.9,183.5-121.5
					C591.6,594,564.7,575.1,522.3,575.3z"/>
				
					<linearGradient id="SVGID_00000023969144461906042600000012144137618316226230_" gradientUnits="userSpaceOnUse" x1="925.8873" y1="552.0436" x2="925.8873" y2="663.4334">
					<stop  offset="0.2499" style="stop-color:#3E3E3F"/>
					<stop  offset="1" style="stop-color:#77787B"/>
				</linearGradient>
				<path style="fill:url(#SVGID_00000023969144461906042600000012144137618316226230_);" d="M995.1,723c-5.3,4.1-10.7,5.9-16.3,5.9
					c-20.7,0-41.5-25.7-48.3-44.2c17.5,1.8,49.7-19.8,49.7-32.2c0-3.6-4.2-10.6-7.6-10.6c-7.8,0-26.8,15.6-39.2,29.7
					c8.3-14.2,20.2-33.2,29.7-46c0,0,7.8-10.6,9.5-12.8c9.3-11.3,15.3-17.6,19.5-15.5c2.7,1.8-3.2-8.1-12.4-8.1
					c-1.2,0-3.2,0.9-5.9,3.1c-5.1,4.3-11.9,12.6-19.8,23.9c-10.2,14.2-21.4,31.3-32.2,50.7c-1.7,0.4-3.4,0.9-4.6,1.8
					c-8.1,2.9-18.3,7.4-29.5,14c-1.5-1.4-5.4-4.1-4.7-7c2-7.9,26.5-23.7,33.9-22.6c-0.3,3.4-10.9,15.1-11.4,15.1
					c-0.2,0,0.2,0.7,0.3,0.7c4.2,0,14.2-10.1,14.4-12.4c0.5-4.9-1.5-12.6-5.9-12.6c-13.9,0-36.6,12.4-39.2,25.2
					c-1.4,7.4,8,13.3,9.7,15.6c-5.4,2.3-28.7,16.4-29.2,23.5c0.7,3.6,2.5,6.6,5.9,6.6c10.2,0,31-9,33.2-19.8
					c0.3-3.6-3.6-8.4-5.6-10.1c7.1-4.7,16.8-8.8,25.4-12c-0.2,1.6,0.3,3.6,0.8,5.6c-1.5,3.4-3.4,6.6-4.7,10.1
					c-5.1,11-5.1,16.5-4.7,17.8c1.4,2.7,4.4,6.1,5.6,6.6c1.7,1.1,3.4,1.8,5.3,0.9c-7-0.9,1.7-13.7,5.4-21.2
					c10.7,19.6,32,40.3,52.4,40.3c7.5,0,14.9-2.9,21.5-9.5C996.8,722.7,995.6,722.5,995.1,723z M859.2,706.1
					c4.6-4.9,16.3-13.3,25.8-18.9C885,693.5,865.3,704.3,859.2,706.1z M928.8,679.5c0.5-0.8,2.1-2.3,4.2-4.4
					c5.9-5.8,16.7-15.8,25.4-21.6c3.7-2.6,6.7-4.3,8.2-4.2c-1.6,3.5-4.9,8.4-9,13.3c-4.5,5.7-10.6,12-17.6,16.1
					c-3.5,2.2-6.9,3.7-10.1,4.1C929.8,682.9,929.3,682.4,928.8,679.5z"/>
			</g>
		</g>
	</g>
</g>
</svg>
