<?xml version="1.0" encoding="utf-8"?>
<!-- Generator: Adobe Illustrator 26.3.1, SVG Export Plug-In . SVG Version: 6.00 Build 0)  -->
<svg version="1.1" xmlns="http://www.w3.org/2000/svg" xmlns:xlink="http://www.w3.org/1999/xlink" x="0px" y="0px"
	 viewBox="0 0 1029.8 249.4" style="enable-background:new 0 0 1029.8 249.4;" xml:space="preserve">
<style type="text/css">
	.st0{fill:none;stroke:#000000;stroke-width:0.25;stroke-miterlimit:10;}
	.st1{fill:url(#SVGID_1_);}
	.st2{fill:url(#SVGID_00000109729989288549865320000015173116538388958352_);}
	.st3{fill:url(#SVGID_00000105406297884383954030000016369744258320293554_);}
	.st4{fill:url(#SVGID_00000146471940777052660680000015819124013018287550_);}
	.st5{fill:url(#SVGID_00000172404011296570847790000001916047350871976845_);}
	.st6{fill:url(#SVGID_00000085229019092462472460000006237743401938752171_);}
	.st7{fill:url(#SVGID_00000088812648767069613920000008711035987845118385_);}
	.st8{fill:url(#SVGID_00000072983008965030547510000011699833200651798658_);}
	.st9{fill:url(#SVGID_00000128470723621965317890000013931090130856340886_);}
	.st10{fill:url(#SVGID_00000077320135495194838750000008349128013087678874_);}
	.st11{fill:url(#SVGID_00000039105269118845747410000000414008902328833685_);}
	.st12{fill:url(#SVGID_00000108273725534780351700000007999254527466652088_);}
	.st13{fill:url(#SVGID_00000163038085285812556850000009592853112759591812_);}
	.st14{fill:url(#SVGID_00000069391705419664119720000018081385620738679471_);}
	.st15{fill:url(#SVGID_00000032648472719189259880000004864649596794027446_);}
	.st16{fill:url(#SVGID_00000028320224191733729230000000267127228346308506_);}
	.st17{fill:url(#SVGID_00000073702545214536233750000001719843916111522435_);}
	.st18{fill:url(#SVGID_00000152223136142047823570000002982259854887996551_);}
	.st19{fill:url(#SVGID_00000044894064067778985300000003225869634852579239_);}
	.st20{fill:url(#SVGID_00000134230975460608497430000009697145764700459956_);}
</style>
<g id="Layer_2">
</g>
<g id="Layer_3">
</g>
<g id="Layer_1">
	<path class="st0" d="M78.6-171.8"/>
</g>
<g id="Layer_4">
	<g>
		<g>
			<linearGradient id="SVGID_1_" gradientUnits="userSpaceOnUse" x1="313.063" y1="-12.9535" x2="313.063" y2="98.4363">
				<stop  offset="0.2499" style="stop-color:#3E3E3F"/>
				<stop  offset="1" style="stop-color:#77787B"/>
			</linearGradient>
			<path class="st1" d="M302.4,231.7v-27.1h5.3c3.9,0,6.6,0.4,8.3,0.9c2.5,0.9,4.4,2.5,5.8,4.9c1.4,2.3,2,5,2,8.1
				c0,2.7-0.5,5-1.7,7.2c-1.2,2.2-2.5,3.6-4.2,4.5c-1.7,0.9-4.2,1.4-7.5,1.4h-8V231.7z M304.8,229h2.9c3.6,0,5.9-0.2,7.3-0.7
				c1.9-0.7,3.4-1.8,4.6-3.6c1-1.8,1.7-3.8,1.7-6.3c0-2.7-0.7-4.9-1.9-6.6c-1.2-1.8-2.9-3.1-4.9-3.8c-1.5-0.5-4.2-0.7-8-0.7h-1.9
				V229H304.8z"/>
			
				<linearGradient id="SVGID_00000111907668440495121300000008050142819852868507_" gradientUnits="userSpaceOnUse" x1="350.3687" y1="-12.9535" x2="350.3687" y2="98.4363">
				<stop  offset="0.2499" style="stop-color:#3E3E3F"/>
				<stop  offset="1" style="stop-color:#77787B"/>
			</linearGradient>
			<path style="fill:url(#SVGID_00000111907668440495121300000008050142819852868507_);" d="M343.1,204.6h14.6v2.7h-12v8.4h12v2.7
				h-12V229h12v2.7h-14.6V204.6z"/>
			
				<linearGradient id="SVGID_00000078012722489375727240000018214686777908771255_" gradientUnits="userSpaceOnUse" x1="381.1458" y1="-12.9535" x2="381.1458" y2="98.4363">
				<stop  offset="0.2499" style="stop-color:#3E3E3F"/>
				<stop  offset="1" style="stop-color:#77787B"/>
			</linearGradient>
			<path style="fill:url(#SVGID_00000078012722489375727240000018214686777908771255_);" d="M373.8,226.7l2.2-1.4
				c1.5,3.1,3.2,4.5,5.3,4.5c0.8,0,1.7-0.2,2.4-0.7c0.7-0.4,1.4-1.1,1.7-1.6c0.3-0.5,0.5-1.4,0.5-2.3c0-0.9-0.3-1.8-0.8-2.7
				c-0.8-1.3-2.2-2.7-4.4-4.3c-2.2-1.8-3.4-2.9-3.9-3.8c-0.8-1.3-1.4-2.7-1.4-4.1c0-1.3,0.3-2.3,0.8-3.2c0.5-0.9,1.4-1.8,2.2-2.3
				c1-0.5,2-0.9,3.2-0.9c1.2,0,2.4,0.4,3.4,0.9c1,0.7,2.2,1.8,3.4,3.4l-2,1.6c-1-1.4-1.9-2.2-2.5-2.7c-0.7-0.4-1.4-0.7-2.2-0.7
				c-1,0-1.9,0.4-2.5,1.1c-0.7,0.7-1,1.4-1,2.5c0,0.5,0.2,1.1,0.3,1.8c0.2,0.7,0.7,1.1,1.2,1.8c0.3,0.4,1.4,1.3,3.2,2.7
				c2.2,1.8,3.7,3.2,4.6,4.7c0.8,1.4,1.2,2.7,1.2,4.1c0,2-0.7,3.6-2,5.2c-1.4,1.4-3.1,2.2-5.1,2.2c-1.5,0-2.9-0.4-4.2-1.3
				C376,230.1,374.8,228.6,373.8,226.7z"/>
			
				<linearGradient id="SVGID_00000005953289972809706940000002914547191306850948_" gradientUnits="userSpaceOnUse" x1="409.2946" y1="-12.9535" x2="409.2946" y2="98.4363">
				<stop  offset="0.2499" style="stop-color:#3E3E3F"/>
				<stop  offset="1" style="stop-color:#77787B"/>
			</linearGradient>
			<path style="fill:url(#SVGID_00000005953289972809706940000002914547191306850948_);" d="M408,204.6h2.5v27.1H408V204.6z"/>
			
				<linearGradient id="SVGID_00000176040439345409795880000012821314500645406395_" gradientUnits="userSpaceOnUse" x1="442.8698" y1="-12.9535" x2="442.8698" y2="98.4363">
				<stop  offset="0.2499" style="stop-color:#3E3E3F"/>
				<stop  offset="1" style="stop-color:#77787B"/>
			</linearGradient>
			<path style="fill:url(#SVGID_00000176040439345409795880000012821314500645406395_);" d="M455.3,209.1l-2,2
				c-1.4-1.4-3.1-2.7-4.7-3.4c-1.7-0.7-3.4-1.1-4.9-1.1c-2,0-3.9,0.5-5.8,1.6c-1.9,1.1-3.2,2.5-4.2,4.3c-1,1.8-1.5,3.6-1.5,5.8
				c0,2,0.5,4,1.5,5.8c1,1.8,2.4,3.2,4.2,4.3c1.9,1.1,3.7,1.6,5.9,1.6c2.7,0,4.9-0.7,6.6-2.3c1.9-1.6,2.9-3.6,3.2-6.1h-8.1v-2.7h11
				c0,4.1-1.2,7.5-3.6,10.1c-2.4,2.5-5.4,3.8-9.3,3.8c-4.7,0-8.5-1.6-11.2-5c-2.2-2.7-3.2-5.8-3.2-9.2c0-2.5,0.7-5,1.9-7.2
				s2.9-4,5.1-5.2c2.2-1.3,4.6-1.8,7.1-1.8c2.2,0,4.2,0.4,6.1,1.3C451.8,206,453.6,207.3,455.3,209.1z"/>
			
				<linearGradient id="SVGID_00000152234175477510894140000009242086701765359762_" gradientUnits="userSpaceOnUse" x1="486.0256" y1="-12.9535" x2="486.0256" y2="98.4363">
				<stop  offset="0.2499" style="stop-color:#3E3E3F"/>
				<stop  offset="1" style="stop-color:#77787B"/>
			</linearGradient>
			<path style="fill:url(#SVGID_00000152234175477510894140000009242086701765359762_);" d="M476,231.7v-27.1h0.5l17,20.8v-20.8h2.5
				v27.1h-0.5l-17-20.5v20.5H476z"/>
			
				<linearGradient id="SVGID_00000083058387935911099520000000049928400507237768_" gradientUnits="userSpaceOnUse" x1="545.4603" y1="-12.9535" x2="545.4603" y2="98.4363">
				<stop  offset="0.2499" style="stop-color:#3E3E3F"/>
				<stop  offset="1" style="stop-color:#77787B"/>
			</linearGradient>
			<path style="fill:url(#SVGID_00000083058387935911099520000000049928400507237768_);" d="M538.1,226.7l2.2-1.4
				c1.5,3.1,3.2,4.5,5.3,4.5c0.8,0,1.7-0.2,2.4-0.7c0.7-0.4,1.4-1.1,1.7-1.6c0.3-0.7,0.5-1.4,0.5-2.3c0-0.9-0.3-1.8-0.8-2.7
				c-0.8-1.3-2.2-2.7-4.4-4.3c-2.2-1.8-3.4-2.9-3.9-3.8c-0.8-1.3-1.4-2.7-1.4-4.1c0-1.3,0.3-2.3,0.8-3.2c0.5-0.9,1.4-1.8,2.2-2.3
				c1-0.5,2-0.9,3.2-0.9s2.4,0.4,3.4,0.9c1,0.7,2.2,1.8,3.4,3.4l-2,1.6c-1-1.4-1.9-2.2-2.5-2.7c-0.7-0.4-1.4-0.7-2.2-0.7
				c-1,0-1.9,0.4-2.5,1.1c-0.7,0.7-1,1.4-1,2.5c0,0.5,0.2,1.1,0.3,1.8c0.2,0.7,0.7,1.1,1.2,1.8c0.3,0.4,1.4,1.3,3.2,2.7
				c2.2,1.8,3.7,3.2,4.6,4.7c0.8,1.4,1.2,2.7,1.2,4.1c0,2-0.7,3.6-2,5.2c-1.4,1.4-3.1,2.2-5.1,2.2c-1.5,0-2.9-0.4-4.2-1.3
				C540.3,230.1,539.1,228.6,538.1,226.7z"/>
			
				<linearGradient id="SVGID_00000051345056873005545760000010652126088694842544_" gradientUnits="userSpaceOnUse" x1="577.1701" y1="-12.9535" x2="577.1701" y2="98.4363">
				<stop  offset="0.2499" style="stop-color:#3E3E3F"/>
				<stop  offset="1" style="stop-color:#77787B"/>
			</linearGradient>
			<path style="fill:url(#SVGID_00000051345056873005545760000010652126088694842544_);" d="M570.1,207.3v-2.7h14.1v2.7h-5.8v24.4
				h-2.5v-24.4H570.1z"/>
			
				<linearGradient id="SVGID_00000042714633175320572310000011406046904116895393_" gradientUnits="userSpaceOnUse" x1="610.6604" y1="-12.9535" x2="610.6604" y2="98.4363">
				<stop  offset="0.2499" style="stop-color:#3E3E3F"/>
				<stop  offset="1" style="stop-color:#77787B"/>
			</linearGradient>
			<path style="fill:url(#SVGID_00000042714633175320572310000011406046904116895393_);" d="M602.2,204.6h2.5v16.4
				c0,2,0,3.2,0.2,3.6c0.2,1.1,0.3,2,0.8,2.7c0.5,0.7,1.2,1.3,2.2,1.8s1.9,0.7,2.9,0.7c0.8,0,1.7-0.2,2.4-0.5
				c0.7-0.4,1.4-0.9,1.9-1.6c0.5-0.7,0.8-1.4,1.2-2.5c0.2-0.7,0.3-2.2,0.3-4.3v-16.4h2.5v16.4c0,2.3-0.2,4.3-0.7,5.9
				c-0.5,1.4-1.4,2.9-2.7,4c-1.4,1.1-2.9,1.6-4.9,1.6s-3.9-0.5-5.3-1.6c-1.4-1.1-2.4-2.3-2.9-4.1c-0.3-1.1-0.5-2.9-0.5-5.8
				L602.2,204.6L602.2,204.6z"/>
			
				<linearGradient id="SVGID_00000121992194256221288440000017301900925155083395_" gradientUnits="userSpaceOnUse" x1="650.34" y1="-12.9535" x2="650.34" y2="98.4363">
				<stop  offset="0.2499" style="stop-color:#3E3E3F"/>
				<stop  offset="1" style="stop-color:#77787B"/>
			</linearGradient>
			<path style="fill:url(#SVGID_00000121992194256221288440000017301900925155083395_);" d="M639.7,231.7v-27.1h5.3
				c3.9,0,6.6,0.4,8.3,0.9c2.5,0.9,4.4,2.5,5.8,4.9c1.4,2.3,2,5,2,8.1c0,2.7-0.5,5-1.7,7.2c-1.2,2-2.5,3.6-4.2,4.5
				c-1.7,0.9-4.2,1.4-7.5,1.4h-8V231.7z M642,229h2.9c3.6,0,5.9-0.2,7.3-0.7c1.9-0.7,3.4-1.8,4.6-3.6c1-1.8,1.7-3.8,1.7-6.3
				c0-2.7-0.7-4.9-1.9-6.6c-1.2-1.8-2.9-3.1-4.9-3.8c-1.5-0.5-4.2-0.7-8-0.7h-1.9V229H642z"/>
			
				<linearGradient id="SVGID_00000144298354922338864700000018198425946229960331_" gradientUnits="userSpaceOnUse" x1="681.2867" y1="-12.9535" x2="681.2867" y2="98.4363">
				<stop  offset="0.2499" style="stop-color:#3E3E3F"/>
				<stop  offset="1" style="stop-color:#77787B"/>
			</linearGradient>
			<path style="fill:url(#SVGID_00000144298354922338864700000018198425946229960331_);" d="M680,204.6h2.5v27.1H680V204.6z"/>
			
				<linearGradient id="SVGID_00000161627764038667498670000013614768299550624420_" gradientUnits="userSpaceOnUse" x1="714.8619" y1="-12.9535" x2="714.8619" y2="98.4363">
				<stop  offset="0.2499" style="stop-color:#3E3E3F"/>
				<stop  offset="1" style="stop-color:#77787B"/>
			</linearGradient>
			<path style="fill:url(#SVGID_00000161627764038667498670000013614768299550624420_);" d="M714.8,203.8c3.9,0,7.1,1.4,9.7,4.1
				c2.5,2.7,3.9,6.1,3.9,10.1s-1.4,7.4-3.9,10.1s-5.8,4.1-9.5,4.1s-7-1.4-9.7-4.1c-2.5-2.7-3.9-6.1-3.9-10.1c0-2.5,0.7-5,1.9-7.2
				c1.2-2.2,2.9-4,4.9-5.2C710.2,204.6,712.4,203.8,714.8,203.8z M714.9,206.5c-1.9,0-3.7,0.5-5.4,1.6c-1.7,1.1-3.1,2.5-3.9,4.1
				s-1.4,3.8-1.4,5.9c0,3.2,1,5.9,3.2,8.1c2,2.2,4.6,3.4,7.6,3.4c2,0,3.9-0.5,5.6-1.6c1.7-1.1,3.1-2.3,3.9-4.1
				c1-1.8,1.4-3.8,1.4-5.9c0-2.2-0.5-4.1-1.4-5.8c-1-1.8-2.2-3.1-4.1-4.1C718.7,207.1,717,206.5,714.9,206.5z"/>
		</g>
		<g>
			
				<linearGradient id="SVGID_00000160165957878247061420000002383144208349103037_" gradientUnits="userSpaceOnUse" x1="504.3432" y1="-12.9535" x2="504.3432" y2="98.4363">
				<stop  offset="0.2499" style="stop-color:#3E3E3F"/>
				<stop  offset="1" style="stop-color:#77787B"/>
			</linearGradient>
			<path style="fill:url(#SVGID_00000160165957878247061420000002383144208349103037_);" d="M536,43.9c4.1-3.2,7.5-5,10-3.6
				c2.4,2-1.2-5.6-8.3-8.3c-1-0.5-2.4-0.9-3.6-0.9c-6.3,0-17.1,12.4-20.5,16.5c-22,25.7-51.7,73.1-51.7,85c0,3.4,2.4,5,4.4,5
				c3.1,0,10.2-5,10.9-7.4c-3.7,2-6.4,2.5-9.2,2.5c0-7.2,33.4-51.2,56.1-76.6C530.4,49.3,533.3,46.2,536,43.9z"/>
			<g>
				
					<linearGradient id="SVGID_00000174561935298204014600000009041079445547550636_" gradientUnits="userSpaceOnUse" x1="726.8273" y1="-12.9535" x2="726.8273" y2="98.4363">
					<stop  offset="0.2499" style="stop-color:#3E3E3F"/>
					<stop  offset="1" style="stop-color:#77787B"/>
				</linearGradient>
				<path style="fill:url(#SVGID_00000174561935298204014600000009041079445547550636_);" d="M887,69.1
					c-14.9,24.8-39.8,55.5-59.7,68.5c-0.5-2.3,4.1-15.3,9.7-24.8c6.1-10.1,9.5-14.2,11.9-14c1.5,0.2,2,0.9,2,0.4
					c-0.3-4.5-7.1-10.8-10.9-10.8c-0.5,0-1.4,0.2-2.2,0.9c-3.1,2.7-6.1,7.7-12,16.5c-14.6,17.8-27.8,29.1-32.6,31.8
					c1.4-9.5,15.1-32,21.4-39.7c2.2-2.7,4.2-4.1,5.6-4.1c1.4,0.2,1.9,0.9,1.7,0.4c-0.2-4.3-6.6-10.8-10.7-10.8
					c-0.5,0-1.4,0.2-2.2,1.1c-3.6,3.1-6.4,6.8-10.9,13.8c-1.7,0.5-3.4,0.9-5.4,1.1c-6.3,0.5-10-3.2-13.1-8.4c-0.2-0.4-2-1.8-3.6-1.6
					c-2,0.2-6.8,5.2-7.3,6.8c-0.7,1.8,0.8,6.8,1.7,8.3c-10.5,17.1-33.1,43.7-41.9,39.9c-8.8-4.1,24.2-60.4,52.7-60.4
					c1,0,2.4,0.4,3.9,0.5c0.7,0,1.2,0,0.3-0.5c-1.2-1.1-3.7-2.9-9.7-2.9c-19.8,0-46,17.3-55.6,38.1c-9.7,9.2-20.5,18.3-26.6,20.1
					c0.3-7.9,24.8-43.1,28.5-46.4c2-1.8-3.1-10.8-6.8-10.8c-5.3,0-33.1,22.6-50.7,41c-3.2,3.4-6.3,6.6-8,9.3
					c2.4-4.9,10.5-17.1,18-27.5c4.6-6.5,10.5-13.5,12.5-13.3c1.2,0.2,1.9,1.1,1.9,0.4c0-4.3-6.1-10.8-10-10.8c-0.5,0-1.4,0.2-2,0.9
					c-4.2,3.2-11.2,12.2-16.8,20.7c-1.2,1.8-2.4,3.6-3.7,5.6c-11,11-29,28.4-37.6,31.1c0-1.4,0.5-3.4,1.5-5.8
					c4.7-10.8,18.8-28.9,19.7-27.3c0.7-2-4.6-11.1-7.8-9.5c-3.9,2.3-14.1,12.8-17,15.5c-8.1,7.4-30.2,24.3-35.4,26.1
					c-0.5,0.2-0.8,0.2-1.2,0c-1.4-0.7,10.5-21.9,25.4-35.4c10.2-9.2,21.7-16.2,30.9-16.7c4.7-0.4,7.8,2.2,7.8,7.2
					c0,2.3-0.8,4.5-1.7,5.9c-0.2,0.2,0.2,0.4,0.5,0.2c1.7-2.2,3.1-5,3.1-7.9c0-7.9-8-10.6-13.9-10.6c-29,0-65.1,37.4-65.1,55.5
					c0,3.2,4.1,9.7,7,11.1c0.2,0.2,1,0.5,1.4,0.5c6.6,0,37.3-28,42.1-33.1c-2.9,4.1-7.1,11.9-9.3,18.5c-0.5,2.5-1.2,4.5-1.2,6.1
					c0,3.1,3.1,6.6,5.3,7.9c1.2,0.7,1.9,1.1,2.7,1.1c7.3,0,23.9-16.4,37.5-31.1c-2,3.6-4.1,7.2-5.6,10.4c-3.9,7.5-4.7,12-4.4,13.3
					c1.4,4.9,5.1,10.2,9.8,9c-2.4-1.1-1.2-5.6,3.1-11c1.7-2.3,3.6-4.9,5.6-7c11.7-13.3,34.9-33.6,47.8-39.7
					c-8.1,7.9-26.5,35.8-26.5,45.3c0,1.8,1.2,4.3,2.9,6.5c1.5,2.2,3.4,3.6,4.9,3.6c5.8,0,17.6-10.4,29.2-22.1
					c-0.8,3.1-1.4,6.3-1.4,9.5c0,6.3,4.7,12.6,12,13.1c16.6,1.1,49.3-23,53.6-45.3c0.8,0.4,2.4,0.7,4.7,0.7c2.4,0,5.4-0.2,8.6-1.3
					c-8,13.7-15.1,30.4-14.8,38.3c0.3,1.4,4.2,7.9,7.3,7.9c1.7,0,6.3-4.1,11.2-8.4c6.3-5.6,17.1-18.7,24.4-27.5
					c-4.2,9.2-8.5,21-7.6,27.5c0.2,1.4,4.1,7.9,8,7.9c6.3,0,51.7-46.5,63.6-78.9C888.2,67.8,888.1,67.8,887,69.1z"/>
				
					<linearGradient id="SVGID_00000080890835254067886540000013629679070436811942_" gradientUnits="userSpaceOnUse" x1="103.45" y1="-12.9535" x2="103.45" y2="98.4363">
					<stop  offset="0.2499" style="stop-color:#3E3E3F"/>
					<stop  offset="1" style="stop-color:#77787B"/>
				</linearGradient>
				<path style="fill:url(#SVGID_00000080890835254067886540000013629679070436811942_);" d="M68.5,130
					c43.1-8.6,131.6-45.3,131.6-89.3c0-27.5-38-34.5-54.9-34.5C63.6,6.2,6.8,55.9,6.8,78.6c0,12.4,8.6,15.8,19.8,15.8
					c2.5,0,2.5-0.2,2.5-0.2c-4.1-0.4-11.7-4.5-11.7-11.3C17.5,61.2,88.4,11,144,11c28,0,48.3,9,48.3,24.8
					c0,26.8-65.6,63.8-113.8,79.6c27-38.1,60.9-78.5,70.2-78.5c1.4,0,3.2,0.5,4.4,2.3c-0.8-6.8-7.3-12.8-12.9-12.8
					c-12,0-53.9,50.7-80.7,94.3c-6.6,1.4-12.2,2.2-17,2.2c-2.9,0-3.9-0.9-3.9-1.8c0-7.4,16.4-18.2,21.4-21.2
					c-0.2-0.2-0.3-0.2-0.5-0.2c-3.9,0-26.8,13.5-26.8,22.5c0,6.1,7.8,9.7,20.2,9.7c-10,17.6-16.8,33.4-17,42.2
					c0,6.3,2.7,10.4,7,10.4c0.7,0,1.7-0.2,2.5-0.5c-2.9-0.4-2.7-2.9-2.7-6.1C42.7,171.1,53.8,151.9,68.5,130z"/>
				
					<linearGradient id="SVGID_00000149370174201308135230000006292117351621576338_" gradientUnits="userSpaceOnUse" x1="991.325" y1="-12.9535" x2="991.325" y2="98.4363">
					<stop  offset="0.2499" style="stop-color:#3E3E3F"/>
					<stop  offset="1" style="stop-color:#77787B"/>
				</linearGradient>
				<path style="fill:url(#SVGID_00000149370174201308135230000006292117351621576338_);" d="M1018.3,103
					c-9.5,9.9-32.6,33.1-42.2,35.8c1.9-6.8,23.6-44.9,30-44.2c1.2,0.2,2,1.1,2,0.4c0-4.1-6.4-10.8-10-10.8c-0.7,0-1.5,0.2-2.4,1.1
					c-10,8.4-32.9,44.9-32.9,54.6c0,3.1,3.9,7.2,6.4,8.1c0.8,0.2,1.4,0.2,1.9,0c9.7-0.9,34.8-28.2,48.5-43.8
					C1020.2,103.6,1019.5,102.1,1018.3,103z"/>
				
					<linearGradient id="SVGID_00000064335007171812424320000002234743037648771996_" gradientUnits="userSpaceOnUse" x1="1013.39" y1="-12.9535" x2="1013.39" y2="98.4363">
					<stop  offset="0.2499" style="stop-color:#3E3E3F"/>
					<stop  offset="1" style="stop-color:#77787B"/>
				</linearGradient>
				<path style="fill:url(#SVGID_00000064335007171812424320000002234743037648771996_);" d="M1022,64c-2-2.5-5.4-5.8-9.2-5.6
					c-4.2,1.4-10.2,12.2-10,17.1c0,3.1,3.4,6.6,5.6,3.6c1.9-2.7,9.2-9.5,11.9-10.8c1.9-0.9,3.1-0.2,3.4-0.2
					C1024.4,68.2,1023.4,65.6,1022,64z"/>
				
					<linearGradient id="SVGID_00000019670893753818171490000007340081502557184426_" gradientUnits="userSpaceOnUse" x1="266.5928" y1="-12.9535" x2="266.5928" y2="98.4363">
					<stop  offset="0.2499" style="stop-color:#3E3E3F"/>
					<stop  offset="1" style="stop-color:#77787B"/>
				</linearGradient>
				<path style="fill:url(#SVGID_00000019670893753818171490000007340081502557184426_);" d="M385.3,31.3c2.9,1.8-3.4-7.9-12.2-7.4
					c-1.4,0-3.4,1.4-5.8,3.4c-3.9,3.4-8.3,8.8-13.1,15.3c-8.3,11.3-18.3,25.9-28.1,42.1c-5.3,8.6-9.5,16.2-13.1,22.6
					c-10.9,11-29,28.4-37.6,31.3c0-4.7,5.8-16.5,13.7-27.7c5.3-7.4,9.7-13.3,12-16c2-2.3,4.1-3.8,5.3-3.8c1.4,0.2,1.9,1.1,1.9,0.4
					c0-4.3-6.1-10.8-9.8-10.8c-0.7,0-1.4,0.2-2.2,0.9c-9,7.4-20.7,21.9-28.8,30.4c-7.5,7.7-23.6,22.6-31.2,26.1
					c0-4.9,8-19.4,15.9-30.6c5.4-7.2,12-16,14.4-15.6c1.4,0.2,2,1.1,2,0.4c0-4.3-6.3-10.8-10-10.8c-0.5,0-1.4,0.2-2.2,1.1
					c-3.9,3.4-10.5,11.3-16.1,19.6c-2.4,3.6-4.7,7.4-7,11.1c-10.9,10.6-25.3,23.9-32.7,26.1c0-1.4,0.5-3.4,1.5-5.8
					c4.7-10.8,18.8-28.9,19.7-27.3c0.5-2-4.7-11.1-8-9.5c-3.9,2.3-14.1,12.8-17,15.5c-8.1,7.4-30.2,24.3-35.4,26.1
					c-0.5,0.2-0.8,0.2-1.2,0c-1.4-0.7,10.5-21.9,25.4-35.4c10.2-9.2,21.7-16.2,30.9-16.7c4.7-0.4,7.8,2.2,7.8,7.2
					c0,2.3-0.8,4.5-1.7,5.9c-0.2,0.2,0.2,0.4,0.5,0.2c1.7-2.2,3.1-5,3.1-7.9c0-7.9-8-10.6-13.9-10.6c-29,0-65.1,37.4-65.1,55.5
					c0,3.2,4.1,9.7,7,11.1c0.2,0.2,1,0.5,1.4,0.5c6.6,0,37.3-28,42.1-33.1c-3.1,4.1-7.3,11.9-9.2,18.5c-0.5,2.5-1.2,4.5-1.2,6.1
					c0,3.1,3.1,6.6,5.3,7.9c1.2,0.7,1.9,1.1,2.7,1.1c6.4,0,20.7-13.3,33.6-27c-3.6,7.2-6.1,13.7-6.1,17.6c0,4,4.9,8.4,7.5,8.4
					c0,0,0.8,0,1.2,0c9.3-2,30.5-26.1,46.5-43.3c-5.9,7.7-11.9,19.6-14.6,27c-0.7,2.5-1.7,5.6-1.7,7.2c0,3.1,3.1,7,5.6,8.3
					c0.8,0.7,1.7,1.1,2.5,1.1c7.5,0,25.6-18,39.5-33.4c-6.6,12.8-9.5,20.1-9.5,23.4c0,1.8,0.3,2.2,0.5,2.5c0.8,2.5,4.4,5.9,5.6,6.6
					c1.5,0.9,3.1,1.6,5.1,0.7c9.5-3.8,36.8-34.1,44.6-43.5c0.3-0.5-0.2-2-1.2-1.1c-9.3,9-35.4,36.3-42.2,35.4
					c3.7-10.6,15.6-31.8,29.3-53.9c8-12.2,14.4-22.1,21.2-31.3C369.5,44.4,379.7,28.6,385.3,31.3z"/>
				
					<linearGradient id="SVGID_00000181772854734798930240000013858613629571334797_" gradientUnits="userSpaceOnUse" x1="485.3305" y1="-12.9535" x2="485.3305" y2="98.4363">
					<stop  offset="0.2499" style="stop-color:#3E3E3F"/>
					<stop  offset="1" style="stop-color:#77787B"/>
				</linearGradient>
				<path style="fill:url(#SVGID_00000181772854734798930240000013858613629571334797_);" d="M522.3,10.3
					c-43.2,0.2-91.2,24.1-91.2,49.2c0,8.1,6.1,15.1,13.1,15.1c-3.1-1.8-5.1-5.6-5.1-10.1c0-16.5,48.2-49.4,94.5-48.9
					c23.2,0.4,47.6,12.4,47.6,33.8c0,55.2-107,121.1-177.4,121.1c-6.3,0-17.1-1.1-17.1-8.3c0-17.4,33.2-42.1,58.8-54.6
					c0.7-0.5,1-0.7,1-0.9c-33.6,12.6-66.8,38.6-66.8,57.1c0,15.1,18.3,17.6,27.8,17.6c81.4,0,182.3-64.9,183.5-121.5
					C591.6,29,564.7,10.1,522.3,10.3z"/>
				
					<linearGradient id="SVGID_00000044156575096567342980000011980016007008159154_" gradientUnits="userSpaceOnUse" x1="925.8873" y1="-12.9535" x2="925.8873" y2="98.4363">
					<stop  offset="0.2499" style="stop-color:#3E3E3F"/>
					<stop  offset="1" style="stop-color:#77787B"/>
				</linearGradient>
				<path style="fill:url(#SVGID_00000044156575096567342980000011980016007008159154_);" d="M995.1,158c-5.3,4.1-10.7,5.9-16.3,5.9
					c-20.7,0-41.5-25.7-48.3-44.2c17.5,1.8,49.7-19.8,49.7-32.2c0-3.6-4.2-10.6-7.6-10.6c-7.8,0-26.8,15.6-39.2,29.7
					c8.3-14.2,20.2-33.2,29.7-46c0,0,7.8-10.6,9.5-12.8c9.3-11.3,15.3-17.6,19.5-15.5c2.7,1.8-3.2-8.1-12.4-8.1
					c-1.2,0-3.2,0.9-5.9,3.1c-5.1,4.3-11.9,12.6-19.8,23.9c-10.2,14.2-21.4,31.3-32.2,50.7c-1.7,0.4-3.4,0.9-4.6,1.8
					c-8.1,2.9-18.3,7.4-29.5,14c-1.5-1.4-5.4-4.1-4.7-7c2-7.9,26.5-23.7,33.9-22.6c-0.3,3.4-10.9,15.1-11.4,15.1
					c-0.2,0,0.2,0.7,0.3,0.7c4.2,0,14.2-10.1,14.4-12.4c0.5-4.9-1.5-12.6-5.9-12.6c-13.9,0-36.6,12.4-39.2,25.2
					c-1.4,7.4,8,13.3,9.7,15.6c-5.4,2.3-28.7,16.4-29.2,23.5c0.7,3.6,2.5,6.6,5.9,6.6c10.2,0,31-9,33.2-19.8
					c0.3-3.6-3.6-8.4-5.6-10.1c7.1-4.7,16.8-8.8,25.4-12c-0.2,1.6,0.3,3.6,0.8,5.6c-1.5,3.4-3.4,6.6-4.7,10.1
					c-5.1,11-5.1,16.5-4.7,17.8c1.4,2.7,4.4,6.1,5.6,6.6c1.7,1.1,3.4,1.8,5.3,0.9c-7-0.9,1.7-13.7,5.4-21.2
					c10.7,19.6,32,40.3,52.4,40.3c7.5,0,14.9-2.9,21.5-9.5C996.8,157.7,995.6,157.5,995.1,158z M859.2,141.1
					c4.6-4.9,16.3-13.3,25.8-18.9C885,128.5,865.3,139.3,859.2,141.1z M928.8,114.5c0.5-0.8,2.1-2.3,4.2-4.4
					c5.9-5.8,16.7-15.8,25.4-21.6c3.7-2.6,6.7-4.3,8.2-4.2c-1.6,3.5-4.9,8.4-9,13.3c-4.5,5.7-10.6,12-17.6,16.1
					c-3.5,2.2-6.9,3.7-10.1,4.1C929.8,117.9,929.3,117.4,928.8,114.5z"/>
			</g>
		</g>
	</g>
</g>
</svg>
