<?xml version="1.0" encoding="utf-8"?>
<!-- Generator: Adobe Illustrator 26.3.1, SVG Export Plug-In . SVG Version: 6.00 Build 0)  -->
<svg version="1.1" xmlns="http://www.w3.org/2000/svg" xmlns:xlink="http://www.w3.org/1999/xlink" x="0px" y="0px"
	 viewBox="0 0 1029.8 249.4" style="enable-background:new 0 0 1029.8 249.4;" xml:space="preserve">
<style type="text/css">
	.st0{opacity:0.26;}
	.st1{fill:#FFFFFF;}
	.st2{opacity:0.3;}
</style>
<g id="Layer_2">
</g>
<g id="Layer_1">
	<g id="Layer_2_00000174566036032421746690000004777612524337492665_">
	</g>
	<g id="Layer_2_00000098931145777608602380000016649387008636827275_">
	</g>
	<g id="Layer_3">
	</g>
	<g class="st0">
		<path class="st1" d="M446.7,239.8v-34.9h6.8c5,0,8.5,0.5,10.7,1.2c3.2,1.2,5.7,3.2,7.5,6.3c1.8,3,2.6,6.4,2.6,10.4
			c0,3.5-0.6,6.4-2.2,9.3c-1.5,2.8-3.2,4.6-5.4,5.8c-2.2,1.2-5.4,1.8-9.7,1.8h-10.3L446.7,239.8L446.7,239.8z M449.8,236.3h3.7
			c4.6,0,7.6-0.3,9.4-0.9c2.5-0.9,4.4-2.3,5.9-4.6c1.3-2.3,2.2-4.9,2.2-8.1c0-3.5-0.9-6.3-2.5-8.5c-1.5-2.3-3.7-4-6.3-4.9
			c-1.9-0.6-5.4-0.9-10.3-0.9h-2.5v28H449.8z"/>
		<path class="st1" d="M499.2,204.8H518v3.5h-15.5v10.8H518v3.5h-15.5v13.7H518v3.5h-18.8V204.8z"/>
		<path class="st1" d="M538.8,233.3l2.8-1.8c1.9,4,4.1,5.8,6.8,5.8c1,0,2.2-0.3,3.1-0.9c0.9-0.5,1.8-1.4,2.2-2.1
			c0.4-0.6,0.6-1.8,0.6-3c0-1.2-0.4-2.3-1-3.5c-1-1.7-2.8-3.5-5.7-5.5c-2.8-2.3-4.4-3.7-5-4.9c-1-1.7-1.8-3.5-1.8-5.3
			c0-1.7,0.4-3,1-4.1c0.6-1.2,1.8-2.3,2.8-3c1.3-0.6,2.6-1.2,4.1-1.2s3.1,0.5,4.4,1.2c1.3,0.9,2.8,2.3,4.4,4.4l-2.6,2.1
			c-1.3-1.8-2.5-2.8-3.2-3.5c-0.9-0.5-1.8-0.9-2.8-0.9c-1.3,0-2.5,0.5-3.2,1.4c-0.9,0.9-1.3,1.8-1.3,3.2c0,0.6,0.3,1.4,0.4,2.3
			c0.3,0.9,0.9,1.4,1.5,2.3c0.4,0.5,1.8,1.7,4.1,3.5c2.8,2.3,4.8,4.1,5.9,6.1c1,1.8,1.5,3.5,1.5,5.3c0,2.6-0.9,4.6-2.6,6.7
			c-1.8,1.8-4,2.8-6.6,2.8c-1.9,0-3.7-0.5-5.4-1.7C541.6,237.7,540,235.8,538.8,233.3z"/>
		<path class="st1" d="M582.9,204.8h3.2v34.9h-3.2V204.8z"/>
		<path class="st1" d="M643.9,210.6l-2.6,2.6c-1.8-1.8-4-3.5-6.1-4.4c-2.2-0.9-4.4-1.4-6.3-1.4c-2.6,0-5,0.6-7.5,2.1
			c-2.5,1.4-4.1,3.2-5.4,5.5c-1.3,2.3-1.9,4.6-1.9,7.5c0,2.6,0.6,5.2,1.9,7.5c1.3,2.3,3.1,4.1,5.4,5.5c2.5,1.4,4.8,2.1,7.6,2.1
			c3.5,0,6.3-0.9,8.5-3c2.5-2.1,3.7-4.6,4.1-7.9h-10.4v-3.5h14.2c0,5.3-1.5,9.7-4.6,13c-3.1,3.2-7,4.9-12,4.9
			c-6.1,0-11-2.1-14.4-6.4c-2.8-3.5-4.1-7.5-4.1-11.9c0-3.2,0.9-6.4,2.5-9.3c1.5-2.8,3.7-5.2,6.6-6.7c2.8-1.7,5.9-2.3,9.2-2.3
			c2.8,0,5.4,0.5,7.9,1.7C639.3,206.6,641.7,208.3,643.9,210.6z"/>
		<path class="st1" d="M670.6,239.8v-34.9h0.6l21.9,26.8v-26.8h3.2v34.9h-0.6l-21.9-26.4v26.4H670.6z"/>
		<path class="st1" d="M750.6,233.3l2.8-1.8c1.9,4,4.1,5.8,6.8,5.8c1,0,2.2-0.3,3.1-0.9c0.9-0.5,1.8-1.4,2.2-2.1
			c0.4-0.9,0.6-1.8,0.6-3c0-1.2-0.4-2.3-1-3.5c-1-1.7-2.8-3.5-5.7-5.5c-2.8-2.3-4.4-3.7-5-4.9c-1-1.7-1.8-3.5-1.8-5.3
			c0-1.7,0.4-3,1-4.1c0.6-1.2,1.8-2.3,2.8-3c1.3-0.6,2.6-1.2,4.1-1.2s3.1,0.5,4.4,1.2c1.3,0.9,2.8,2.3,4.4,4.4l-2.6,2.1
			c-1.3-1.8-2.5-2.8-3.2-3.5c-0.9-0.5-1.8-0.9-2.8-0.9c-1.3,0-2.5,0.5-3.2,1.4c-0.9,0.9-1.3,1.8-1.3,3.2c0,0.6,0.3,1.4,0.4,2.3
			c0.3,0.9,0.9,1.4,1.5,2.3c0.4,0.5,1.8,1.7,4.1,3.5c2.8,2.3,4.8,4.1,5.9,6.1c1,1.8,1.5,3.5,1.5,5.3c0,2.6-0.9,4.6-2.6,6.7
			c-1.8,1.8-4,2.8-6.6,2.8c-1.9,0-3.7-0.5-5.4-1.7C753.5,237.7,751.9,235.8,750.6,233.3z"/>
		<path class="st1" d="M791.9,208.3v-3.5h18.2v3.5h-7.5v31.5h-3.2v-31.5H791.9z"/>
		<path class="st1" d="M833.3,204.8h3.2V226c0,2.6,0,4.1,0.3,4.6c0.3,1.4,0.4,2.6,1,3.5c0.6,0.9,1.5,1.7,2.8,2.3s2.5,0.9,3.7,0.9
			c1,0,2.2-0.3,3.1-0.6c0.9-0.5,1.8-1.2,2.5-2.1c0.6-0.9,1-1.8,1.5-3.2c0.3-0.9,0.4-2.8,0.4-5.5v-21.1h3.2v21.1c0,3-0.3,5.5-0.9,7.6
			c-0.6,1.8-1.8,3.7-3.5,5.2c-1.8,1.4-3.7,2.1-6.3,2.1s-5-0.6-6.8-2.1c-1.8-1.4-3.1-3-3.7-5.3c-0.4-1.4-0.6-3.7-0.6-7.5L833.3,204.8
			L833.3,204.8z"/>
		<path class="st1" d="M881.7,239.8v-34.9h6.8c5,0,8.5,0.5,10.7,1.2c3.2,1.2,5.7,3.2,7.5,6.3c1.8,3,2.6,6.4,2.6,10.4
			c0,3.5-0.6,6.4-2.2,9.3c-1.5,2.6-3.2,4.6-5.4,5.8c-2.2,1.2-5.4,1.8-9.7,1.8h-10.3L881.7,239.8L881.7,239.8z M884.6,236.3h3.7
			c4.6,0,7.6-0.3,9.4-0.9c2.5-0.9,4.4-2.3,5.9-4.6c1.3-2.3,2.2-4.9,2.2-8.1c0-3.5-0.9-6.3-2.5-8.5c-1.5-2.3-3.7-4-6.3-4.9
			c-1.9-0.6-5.4-0.9-10.3-0.9h-2.5v28H884.6z"/>
		<path class="st1" d="M933.6,204.8h3.2v34.9h-3.2V204.8z"/>
		<path class="st1" d="M978.5,203.8c5,0,9.2,1.8,12.5,5.3c3.2,3.5,5,7.9,5,13s-1.8,9.5-5,13c-3.2,3.5-7.5,5.3-12.3,5.3
			s-9-1.8-12.5-5.3c-3.2-3.5-5-7.9-5-13c0-3.2,0.9-6.4,2.5-9.3c1.5-2.8,3.7-5.2,6.3-6.7C972.6,204.8,975.4,203.8,978.5,203.8z
			 M978.6,207.3c-2.5,0-4.8,0.6-7,2.1c-2.2,1.4-4,3.2-5,5.3c-1,2.1-1.8,4.9-1.8,7.6c0,4.1,1.3,7.6,4.1,10.4c2.6,2.8,5.9,4.4,9.8,4.4
			c2.6,0,5-0.6,7.2-2.1c2.2-1.4,4-3,5-5.3c1.3-2.3,1.8-4.9,1.8-7.6c0-2.8-0.6-5.3-1.8-7.5c-1.3-2.3-2.8-4-5.3-5.3
			C983.5,208.1,981.3,207.3,978.6,207.3z"/>
	</g>
	<g class="st2">
		<g>
			<path class="st1" d="M466.3,137.8c-2.3,0-4.6-1.8-4.6-5.2c0-12.3,30.1-59.9,51.8-85.2c4.1-5,14.4-16.6,20.7-16.6
				c1.1,0,2.6,0.4,3.7,0.9c5.8,2.2,9.4,7.7,9.2,8.8c0,0.2-0.2,0.3-0.4,0.3s-0.4-0.1-0.8-0.4c-0.5-0.3-1.1-0.4-1.7-0.4
				c-1.9,0-4.4,1.2-7.9,4c-2.7,2.3-5.6,5.4-11.9,12.2c-23.2,25.9-55.3,68.6-56,76.2c2.3,0,5-0.4,8.8-2.5l0.5-0.3l-0.2,0.6
				C476.7,132.9,469.4,137.8,466.3,137.8z"/>
			<path class="st1" d="M534.1,31.1c1.2,0,2.6,0.4,3.6,0.9c6.3,2.4,9.8,8.6,8.9,8.6c-0.1,0-0.3-0.1-0.6-0.3
				c-0.6-0.3-1.2-0.5-1.9-0.5c-2.2,0-5,1.6-8.1,4.1c-2.7,2.3-5.6,5.4-11.9,12.2c-22.7,25.4-56.1,69.4-56.1,76.6
				c2.8,0,5.5-0.5,9.2-2.5c-0.7,2.4-7.8,7.4-10.9,7.4c-2,0-4.4-1.6-4.4-5c0-11.9,29.7-59.3,51.7-85C517,43.5,527.8,31.1,534.1,31.1
				 M534.1,30.6c-6.4,0-16.7,11.7-20.9,16.7c-21.7,25.3-51.8,73-51.8,85.3c0,3.6,2.5,5.5,4.9,5.5c3.2,0,10.6-5,11.4-7.8l0.3-1.1
				l-1.1,0.6c-3.7,2-6.2,2.4-8.4,2.4c1.4-8.2,33-50.2,55.9-75.8c6.3-6.8,9.2-9.9,11.9-12.2c3.5-2.7,5.9-4,7.8-4
				c0.6,0,1.1,0.1,1.6,0.4c0.4,0.3,0.6,0.4,0.9,0.4c0.3,0,0.6-0.2,0.6-0.5c0.2-1.2-3.4-6.8-9.3-9C537,31.1,535.5,30.6,534.1,30.6
				L534.1,30.6z"/>
		</g>
		<g>
			<g>
				<path class="st1" d="M649.6,150.8c-4.2,0-7.4-4.7-8.7-9.4c-0.3-1.2,0.3-5.6,4.4-13.5c1.2-2.5,2.7-5.3,4.3-8.1
					c0.1-0.1,0.2-0.3,0.2-0.4c-18.6,19.9-30.5,29.7-36.3,29.7c-0.9,0-1.7-0.5-2.8-1.1c-2.3-1.3-5.4-4.9-5.4-8.1
					c0-1.1,0.3-2.3,0.6-3.7c0.2-0.8,0.4-1.6,0.6-2.4c1.9-5.6,5.2-12.2,8-16.5c-7.9,7.7-34.3,31.4-40.5,31.4c-0.5,0-1.3-0.3-1.6-0.6
					c-2.9-1.4-7.1-8-7.1-11.3c0-8.8,8.7-22.8,21.8-34.7c14.6-13.4,30.4-21,43.6-21c5.3,0,14.1,2.3,14.1,10.8c0,3.3-1.7,6.2-3.2,8.1
					c-0.2,0.1-0.3,0.2-0.5,0.2s-0.4-0.1-0.5-0.3c-0.1-0.1,0-0.3,0.1-0.4c0.8-1.2,1.6-3.4,1.6-5.7c0-4.4-2.5-7-6.6-7
					c-0.3,0-0.6,0-0.9,0c-8.3,0.5-19.5,6.5-30.8,16.6c-14.7,13.3-26.1,33.6-25.4,35c0.1,0.1,0.3,0.1,0.4,0.1c0.1,0,0.3,0,0.5-0.1
					c5-1.7,27.1-18.5,35.3-26.1c0.7-0.6,1.8-1.7,3.1-3c4.3-4.3,10.9-10.7,13.9-12.5c0.3-0.2,0.6-0.2,0.9-0.2c1.9,0,3.8,2.3,4.7,3.6
					c1.6,2.2,2.9,5.2,2.5,6.4l-0.2,0.5l-0.3-0.5c-1.7,0-14.7,16.9-19.3,27.3c-0.9,2.1-1.4,4-1.5,5.4c9.6-3.3,30.3-24.1,37.2-30.9
					c1.2-1.9,2.4-3.6,3.5-5.4l0.1-0.2c5.2-7.9,12.4-17.4,16.9-20.8c0.6-0.7,1.5-1,2.2-1c4.1,0,10.2,6.6,10.2,11
					c0,0.5-0.3,0.5-0.4,0.5c-0.2,0-0.3-0.1-0.6-0.2c-0.3-0.2-0.7-0.4-1.2-0.4l0,0c-1.9,0-7.6,6.6-12.3,13.2
					c-5.8,8.1-12.7,18.2-16.3,24.3c1.4-1.7,3.2-3.6,5-5.6l0.8-0.9c18-18.8,45.6-41.1,50.9-41.1c2.7,0,5.8,4.2,6.9,7.3
					c0.7,1.9,0.7,3.3,0,4c-3.3,3-27.4,37.2-28.4,45.9c6.5-2.1,17.8-12,26.2-19.9c9.3-20.3,35.4-38.2,55.8-38.2c6.6,0,9.1,2.2,9.9,3
					c0.3,0.2,0.6,0.4,0.6,0.6c-0.1,0.3-0.4,0.3-1,0.3c-0.8-0.1-1.5-0.2-2.1-0.3c-0.7-0.1-1.3-0.2-1.8-0.2c-23.6,0-50.1,38.4-53.5,54
					c-0.5,2.3-0.7,5.1,0.9,5.9c0.5,0.2,1.1,0.3,1.8,0.3c9.4,0,29.4-23.3,39.7-40c-0.9-1.6-2.4-6.5-1.6-8.4c0.5-1.7,5.4-6.7,7.5-7
					c0.1,0,0.2,0,0.3,0c1.6,0,3.3,1.3,3.5,1.8c2.4,4.1,5.8,8.3,11.8,8.3c0.4,0,0.7,0,1.1,0c1.7-0.2,3.3-0.5,5.3-1.1
					c4.7-7.4,7.5-10.8,10.9-13.8c1-1.1,2-1.2,2.4-1.2c4.2,0,10.7,6.6,11,11c0,0,0.1,0.2,0,0.3l-0.1,0.1h-0.2c-0.1,0-0.2,0-0.3-0.1
					c-0.3-0.1-0.7-0.4-1.4-0.5c-1.3,0-3.3,1.5-5.4,4c-6.2,7.6-19.5,29.4-21.3,39.1c5.3-3.2,18.4-14.8,32.1-31.5
					c1.1-1.7,2.1-3.2,3.1-4.6c4-6,6.4-9.7,9-11.9c0.8-0.7,1.8-1,2.4-1c3.9,0,10.8,6.3,11.1,11c0,0.4-0.3,0.4-0.4,0.4
					c-0.1,0-0.3-0.1-0.5-0.1c-0.3-0.1-0.8-0.3-1.5-0.4h-0.1c-2.2,0-5.6,4-11.5,13.9c-5.3,9-9.7,21.2-9.7,24.2
					c15.2-10.1,40.3-36.6,59.3-68.2c0.8-0.9,0.9-1.1,1.1-1.1h0.1l0.1,0.1c0.1,0.2,0.1,0.4-0.4,1.6c-11.7,31.8-56.9,79.1-63.8,79.1
					c-4.2,0-8.1-6.8-8.2-8.1c-1-6.9,4-19.4,6.9-26c-7.4,8.9-17.3,20.8-23.3,26.1l-0.6,0.5c-4.9,4.3-9.1,8-10.8,8
					c-3.3,0-7.3-6.8-7.5-8.1c-0.3-8.3,7.2-25.3,14.5-37.9c-3.2,1-6.1,1.1-8.1,1.1c-1.9,0-3.5-0.2-4.5-0.6
					c-4.4,21.5-35,45.2-52.7,45.2c-0.4,0-0.8,0-1.1,0c-7.7-0.5-12.2-7.2-12.2-13.3c0-2.6,0.4-5.4,1.2-8.7
					c-14.4,14.5-23.8,21.5-28.7,21.5c-1.6,0-3.5-1.4-5.1-3.7c-1.8-2.4-2.9-4.9-2.9-6.6c0-9.2,17-35.3,25.5-44.4
					c-12.8,6.6-34.7,25.7-46.4,39c-1.9,2-3.7,4.5-5.4,6.7l-0.2,0.3c-3.1,3.8-4.7,7.4-4.2,9.4c0.1,0.6,0.5,1,1,1.3l0.6,0.3l-0.7,0.2
					C650.5,150.8,650,150.8,649.6,150.8z"/>
				<path class="st1" d="M887.9,68.2c0.1,0,0,0.4-0.4,1.3c-11.9,32.4-57.3,78.9-63.6,78.9c-3.9,0-7.8-6.5-8-7.9
					c-0.9-6.5,3.4-18.3,7.6-27.5c-7.3,8.8-18.1,21.9-24.4,27.5c-4.9,4.3-9.5,8.4-11.2,8.4c-3.1,0-7-6.5-7.3-7.9
					c-0.3-7.9,6.8-24.6,14.8-38.3c-3.2,1.1-6.2,1.3-8.6,1.3c-2.3,0-3.9-0.3-4.7-0.7c-4.2,21.8-35.6,45.3-52.5,45.3
					c-0.4,0-0.8,0-1.1,0c-7.3-0.5-12-6.8-12-13.1c0-3.2,0.6-6.4,1.4-9.5c-11.6,11.7-23.4,22.1-29.2,22.1c-1.5,0-3.4-1.4-4.9-3.6
					c-1.7-2.2-2.9-4.7-2.9-6.5c0-9.5,18.4-37.4,26.5-45.3c-12.9,6.1-36.1,26.4-47.8,39.7c-2,2.1-3.9,4.7-5.6,7
					c-4.3,5.4-5.5,9.9-3.1,11c-0.5,0.1-0.9,0.2-1.3,0.2c-4.1,0-7.2-4.7-8.5-9.2c-0.3-1.3,0.5-5.8,4.4-13.3c1.5-3.2,3.6-6.8,5.6-10.4
					c-13.6,14.7-30.2,31.1-37.5,31.1c-0.8,0-1.5-0.4-2.7-1.1c-2.2-1.3-5.3-4.8-5.3-7.9c0-1.6,0.7-3.6,1.2-6.1
					c2.2-6.6,6.4-14.4,9.3-18.5c-4.8,5.1-35.5,33.1-42.1,33.1c-0.4,0-1.2-0.3-1.4-0.5c-2.9-1.4-7-7.9-7-11.1
					c0-18.1,36.1-55.5,65.1-55.5c5.9,0,13.9,2.7,13.9,10.6c0,2.9-1.4,5.7-3.1,7.9c-0.1,0.1-0.2,0.1-0.3,0.1c-0.2,0-0.4-0.1-0.2-0.3
					c0.9-1.4,1.7-3.6,1.7-5.9c0-4.7-2.7-7.2-6.9-7.2c-0.3,0-0.6,0-0.9,0c-9.2,0.5-20.7,7.5-30.9,16.7
					c-14.9,13.5-26.8,34.7-25.4,35.4c0.2,0.1,0.4,0.1,0.6,0.1s0.4,0,0.6-0.1c5.2-1.8,27.3-18.7,35.4-26.1c2.9-2.7,13.1-13.2,17-15.5
					c0.3-0.1,0.5-0.2,0.8-0.2c3.2,0,7.6,7.8,7,9.7c0-0.1-0.1-0.1-0.2-0.1c-1.9,0-15,17.1-19.5,27.4c-1,2.4-1.5,4.4-1.5,5.8
					c8.6-2.7,26.6-20.1,37.6-31.1c1.3-2,2.5-3.8,3.7-5.6c5.6-8.5,12.6-17.5,16.8-20.7c0.6-0.7,1.5-0.9,2-0.9c3.9,0,10,6.5,10,10.8
					c0,0.2-0.1,0.3-0.2,0.3c-0.3,0-0.9-0.5-1.7-0.7h-0.1c-2.1,0-7.9,6.9-12.4,13.3c-7.5,10.4-15.6,22.6-18,27.5
					c1.7-2.7,4.8-5.9,8-9.3c17.6-18.4,45.4-41,50.7-41c3.7,0,8.8,9,6.8,10.8c-3.7,3.3-28.2,38.5-28.5,46.4
					c6.1-1.8,16.9-10.9,26.6-20.1c9.6-20.8,35.8-38.1,55.6-38.1c6,0,8.5,1.8,9.7,2.9c0.9,0.5,0.4,0.5-0.3,0.5
					c-1.5-0.1-2.9-0.5-3.9-0.5c-28.5,0-61.5,56.3-52.7,60.4c0.6,0.2,1.2,0.4,1.9,0.4c9.8,0,30.2-24.3,40-40.3
					c-0.9-1.5-2.4-6.5-1.7-8.3c0.5-1.6,5.3-6.6,7.3-6.8c0.1,0,0.2,0,0.3,0c1.5,0,3.1,1.2,3.3,1.6c2.9,4.9,6.4,8.4,12,8.4
					c0.4,0,0.7,0,1.1,0c2-0.2,3.7-0.6,5.4-1.1c4.5-7,7.3-10.7,10.9-13.8c0.8-0.9,1.7-1.1,2.2-1.1c4.1,0,10.5,6.5,10.7,10.8
					c0.1,0.1,0.1,0.2,0,0.2s-0.7-0.4-1.7-0.6c-1.4,0-3.4,1.4-5.6,4.1c-6.3,7.7-20,30.2-21.4,39.7c4.8-2.7,18-14,32.6-31.8
					c5.9-8.8,8.9-13.8,12-16.5c0.8-0.7,1.7-0.9,2.2-0.9c3.8,0,10.6,6.3,10.9,10.8c0,0.1,0,0.2-0.1,0.2c-0.2,0-0.8-0.4-1.9-0.6
					c-0.1,0-0.1,0-0.2,0c-2.4,0-5.8,4.1-11.7,14c-5.6,9.5-10.2,22.5-9.7,24.8c19.9-13,44.8-43.7,59.7-68.5
					C887.5,68.5,887.8,68.2,887.9,68.2 M887.9,67.7c-0.3,0-0.5,0.2-1.3,1.1l0,0l0,0c-18.8,31.3-43.6,57.6-58.8,67.8
					c0.4-3.5,4.3-14.6,9.6-23.6c5.8-9.6,9.2-13.8,11.3-13.8h0.1c0.6,0.1,1.1,0.3,1.4,0.4c0.2,0.1,0.4,0.2,0.6,0.2
					c0.3,0,0.6-0.2,0.6-0.7c-0.3-4.2-6.8-11.3-11.4-11.3c-0.7,0-1.7,0.3-2.5,1c-2.6,2.2-5,5.9-9,12c-0.9,1.4-2,3-3.1,4.6
					c-13.3,16.2-25.9,27.5-31.5,31.1c2.2-9.9,15-31,21.1-38.4c2-2.4,3.9-3.9,5.2-3.9c0.6,0.1,1.1,0.3,1.3,0.4s0.3,0.1,0.4,0.1h0.3
					l0.2-0.2c0.1-0.2,0.1-0.4,0-0.6c-0.3-4.6-6.8-11.2-11.2-11.2c-0.4,0-1.5,0.1-2.6,1.2c-3.4,2.9-6.2,6.4-10.9,13.7
					c-1.9,0.6-3.5,0.9-5.1,1c-0.4,0-0.7,0-1.1,0c-4.7,0-8.1-2.5-11.6-8.2c-0.3-0.5-2-1.9-3.7-1.9c-0.1,0-0.3,0-0.4,0
					c-2.3,0.2-7.2,5.5-7.7,7.1c-0.7,1.9,0.7,6.6,1.6,8.4c-10.3,16.7-30.2,39.8-39.4,39.8c-0.6,0-1.2-0.1-1.7-0.3
					c-1.2-0.5-1.5-2.5-0.8-5.6c2.1-9.3,11.2-23.5,19.2-32.7c6.8-7.9,20.3-21.1,34.1-21.1c0.5,0,1.1,0.1,1.7,0.2
					c0.6,0.1,1.4,0.2,2.1,0.3h0.1c0.6,0,1.1,0,1.2-0.5c0.1-0.5-0.3-0.7-0.7-0.9c-0.9-0.8-3.4-3-10-3c-20.4,0-46.5,17.9-56,38.3
					c-8.2,7.8-19.1,17.3-25.6,19.7c0.7-3.7,5.3-12.3,12.8-23.9c6.7-10.3,13.7-19.8,15.4-21.4c0.8-0.7,0.8-2.2,0-4.3
					c-1.2-3.1-4.3-7.4-7.2-7.4c-5.8,0-34.6,23.9-51.1,41.2l-0.8,0.9c-1.1,1.2-2.2,2.3-3.2,3.4c3.8-6.1,9.7-14.8,14.8-21.9
					c5.3-7.5,10.4-13.1,12-13.1c0.4,0.1,0.8,0.3,1.1,0.4s0.5,0.2,0.7,0.2c0.3,0,0.7-0.2,0.7-0.8c0-4.5-6.3-11.3-10.5-11.3
					c-0.7,0-1.7,0.3-2.3,1c-4.4,3.4-11.7,12.9-16.9,20.8c-1.2,1.8-2.4,3.6-3.7,5.6c-6.8,6.8-27,27-36.7,30.7c0.1-1.3,0.6-3,1.4-4.9
					c4.5-10.3,16.8-25.9,18.9-27l0.4,0.8l0.4-1c0.5-1.3-1-4.4-2.5-6.6c-1-1.4-3-3.7-4.9-3.7c-0.4,0-0.7,0.1-1,0.2
					c-3.1,1.8-9.6,8.3-14,12.6c-1.3,1.3-2.4,2.4-3.1,3c-8.2,7.5-30.2,24.3-35.2,26c-0.2,0.1-0.4,0.1-0.5,0.1s-0.1,0-0.2,0
					c0.1-2.5,11.4-22,25.4-34.6c11.2-10.1,22.3-16.1,30.6-16.6c0.3,0,0.6,0,0.9,0c4.1,0,6.4,2.5,6.4,6.7c0,2.3-0.8,4.4-1.6,5.6
					c-0.2,0.2-0.2,0.4-0.1,0.6c0.1,0.3,0.4,0.4,0.7,0.4c0.2,0,0.4-0.1,0.5-0.2h0.1l0.1-0.1c1.5-1.9,3.2-4.9,3.2-8.2
					c0-3.7-1.7-6.7-5-8.7c-2.5-1.5-6-2.4-9.4-2.4c-13.2,0-29.2,7.7-43.8,21.1c-13.1,12-21.8,26-21.8,34.9c0,3.4,4.2,10,7.2,11.5
					c0.4,0.3,1.2,0.6,1.7,0.6c6,0,30.1-21.4,39.3-30.1c-2.5,4.3-5.3,9.9-7,14.9l0,0l0,0c-0.2,0.9-0.4,1.7-0.6,2.4
					c-0.4,1.4-0.7,2.7-0.7,3.8c0,3.3,3.2,7,5.5,8.3c1.2,0.7,2,1.2,3,1.2c5.7,0,17.2-9.2,35-28.2c-1.3,2.4-2.6,4.7-3.6,6.8
					c-3.6,6.9-4.8,11.9-4.4,13.6c1.4,4.8,4.7,9.6,8.9,9.6c0.5,0,1-0.1,1.5-0.2l1.4-0.3l-1.3-0.6c-0.5-0.2-0.7-0.6-0.9-1.1
					c-0.4-1.9,1.1-5.4,4.1-9.1l0.2-0.3c1.6-2.2,3.4-4.7,5.3-6.6c11.3-12.9,32.1-31.1,45.1-38.3c-4.1,4.6-9.6,12.3-14.3,20
					c-3.1,5-10.3,17.4-10.3,23.5c0,1.8,1.1,4.4,3,6.8c1.6,2.3,3.6,3.8,5.3,3.8c4.9,0,14.2-6.9,28.3-21c-0.7,3-1,5.5-1,7.9
					c0,6.3,4.7,13.1,12.5,13.6c0.4,0,0.8,0,1.2,0c8.4,0,20.4-5.6,31.3-14.6c11.6-9.5,19.4-20.6,21.5-30.5c1,0.3,2.5,0.5,4.3,0.5
					c1.9,0,4.5-0.1,7.5-0.9c-7.2,12.5-14.5,29.2-14.2,37.5l0,0l0,0c0.3,1.4,4.3,8.3,7.8,8.3c1.7,0,5.3-3,11-8l0.6-0.5
					c5.7-5.1,14.9-16.1,22.2-24.8c-3.2,7.4-7.1,18.1-6.2,24.5c0.2,1.7,4.4,8.3,8.5,8.3c7,0,52.4-47.4,64.1-79.2
					c0.5-1.2,0.6-1.5,0.4-1.8l-0.1-0.2L887.9,67.7L887.9,67.7z"/>
			</g>
			<g>
				<path class="st1" d="M42.9,184.8c-4.4,0-7.2-4.2-7.2-10.7c0.2-8.2,6.2-23.1,16.8-42c-12.5-0.1-20-3.8-20-9.9
					c0-9.2,23-22.8,27-22.8c0.3,0,0.4,0,0.7,0.3l0.2,0.2l-0.3,0.2c-7.9,4.7-21.3,14.5-21.3,21c0,0.7,1,1.5,3.6,1.5
					c4.5,0,9.8-0.7,16.8-2.2c26.1-42.5,68.5-94.3,80.9-94.3c6,0,12.4,6.3,13.1,13l0.1,1l-0.6-0.9c-1.3-1.9-3.2-2.2-4.2-2.2
					c-9,0-42.3,39.4-69.6,77.8c46.7-15.2,113.1-52,113.1-79c0-14.9-18.9-24.5-48-24.5c-24.8,0-55.4,10.1-84,27.8
					C34.7,54.7,17.7,72.3,17.6,82.9c0,6.6,7.4,10.6,11.5,11.1h0.2v0.2c0,0.2,0,0.4-2.8,0.4c-13.7,0-20.1-5.1-20.1-16
					c0-12.2,15.9-30.7,38.7-44.9C61.8,23.3,96.8,6,145.2,6c15.3,0,55.1,6.2,55.1,34.8c0,24.5-27.1,45.1-49.8,58.1
					c-29.7,17-62.7,27.5-81.9,31.4C52.1,154.9,43,171.9,43,177.9v0.6c0,2.9,0,4.9,2.5,5.3l1,0.1l-0.9,0.3
					C44.7,184.5,43.6,184.8,42.9,184.8z"/>
				<path class="st1" d="M145.2,6.2c16.9,0,54.9,7,54.9,34.5c0,44-88.5,80.7-131.6,89.3c-14.7,21.9-25.8,41.1-25.8,47.9
					c0,3.2-0.2,5.7,2.7,6.1c-0.8,0.3-1.8,0.5-2.5,0.5c-4.3,0-7-4.1-7-10.4c0.2-8.8,7-24.6,17-42.2c-12.4,0-20.2-3.6-20.2-9.7
					c0-9,22.9-22.5,26.8-22.5c0.2,0,0.3,0,0.5,0.2c-5,3-21.4,13.8-21.4,21.2c0,0.9,1,1.8,3.9,1.8c4.8,0,10.4-0.8,17-2.2
					c26.8-43.6,68.7-94.3,80.7-94.3c5.6,0,12.1,6,12.9,12.8c-1.2-1.8-3-2.3-4.4-2.3c-9.3,0-43.2,40.4-70.2,78.5
					c48.2-15.8,113.8-52.8,113.8-79.6C192.3,20,172,11,144,11C88.4,11,17.5,61.2,17.4,82.9c0,6.8,7.6,10.9,11.7,11.3
					c0,0,0,0.2-2.5,0.2C15.4,94.4,6.8,91,6.8,78.6C6.8,55.9,63.6,6.2,145.2,6.2 M145.2,5.7c-48.4,0-83.5,17.4-100.1,27.8
					C33.5,40.8,23.6,49,16.6,57.4C9.9,65.3,6.3,72.8,6.3,78.6c0,11,6.6,16.3,20.3,16.3c2.6,0,3-0.2,3-0.7v-0.5h-0.5
					c-4-0.4-11.2-4.3-11.2-10.8c0-10.4,17.4-28.3,42.3-43.7c28.5-17.6,59.1-27.7,83.8-27.7c29,0,47.8,9.5,47.8,24.3
					c0,26.7-65.7,63.2-112,78.6c27.1-38.1,60-77,68.9-77c1,0,2.8,0.3,4,2.1l1.2,1.7l-0.2-2.1c-0.8-6.8-7.3-13.2-13.4-13.2
					c-12.4,0-54.8,51.8-81,94.4c-6.9,1.5-12.2,2.1-16.7,2.1c-2.5,0-3.4-0.7-3.4-1.3c0-3,3-7.1,8.6-11.9c5.4-4.6,11.4-8.2,12.5-8.9
					l0.5-0.3l-0.5-0.5c-0.3-0.3-0.6-0.3-0.9-0.3c-4,0-27.3,13.7-27.3,23c0,6.2,7.4,10,19.8,10.2c-10.6,18.7-16.5,33.5-16.6,41.7
					c0,6.6,2.9,10.9,7.5,10.9c0.8,0,1.8-0.2,2.7-0.5l1.8-0.7l-2-0.3c-2.2-0.3-2.3-1.8-2.3-5v-0.6c0-6,9.1-22.8,25.6-47.5
					c19.3-3.9,52.2-14.4,81.9-31.4c22.8-13,49.9-33.7,49.9-58.4c0-12.1-7.4-21.8-21.4-28C167.7,7.5,154.1,5.7,145.2,5.7L145.2,5.7z"
					/>
			</g>
			<g>
				<path class="st1" d="M970.3,148.4c-0.3,0-0.7-0.1-1.1-0.2c-2.6-0.9-6.6-5.1-6.6-8.3c0-4.5,4.8-14.9,12.7-27.9
					c7.6-12.3,15.5-22.9,20.3-26.9c0.8-0.8,1.6-1.2,2.6-1.2c3.8,0,10.2,6.9,10.2,11c0,0.5-0.3,0.5-0.4,0.5c-0.2,0-0.4-0.1-0.7-0.2
					c-0.3-0.2-0.7-0.4-1.2-0.4h-0.1c-6.2,0-26.8,35.7-29.4,43.6c10.2-3.4,34.4-28,41.6-35.6c0.3-0.2,0.6-0.4,0.9-0.4
					c0.4,0,0.8,0.3,1,0.7c0.2,0.4,0.1,0.9-0.2,1.2c-17.2,19.5-39.5,43-48.7,43.9C970.9,148.3,970.6,148.4,970.3,148.4z"/>
				<path class="st1" d="M998.1,84.2c3.6,0,10,6.7,10,10.8c0,0.2-0.1,0.3-0.2,0.3c-0.3,0-1-0.5-1.8-0.7c-0.1,0-0.1,0-0.2,0
					c-6.6,0-27.9,37.5-29.8,44.2c9.6-2.7,32.7-25.9,42.2-35.8c0.3-0.2,0.5-0.3,0.7-0.3c0.7,0,1.1,1,0.6,1.5
					c-13.7,15.6-38.8,42.9-48.5,43.8c-0.2,0.1-0.5,0.1-0.8,0.1s-0.7,0-1.1-0.1c-2.5-0.9-6.4-5-6.4-8.1c0-9.7,22.9-46.2,32.9-54.6
					C996.6,84.4,997.4,84.2,998.1,84.2 M998.1,83.7c-1,0-1.9,0.4-2.8,1.2c-10.2,8.6-33,45.1-33,55c0,3.4,4.1,7.6,6.7,8.6l0,0l0,0
					c0.4,0.1,0.8,0.2,1.2,0.2c0.3,0,0.7-0.1,1-0.2c9.2-1,31.6-24.4,48.8-44c0.3-0.3,0.4-0.9,0.2-1.5c-0.2-0.5-0.7-0.8-1.2-0.8
					c-0.3,0-0.7,0.1-1,0.4l0,0l0,0c-7.1,7.4-30.7,31.4-41,35.4c1.5-4,6.7-13.9,12.8-23.6c7.6-12.1,13.7-19.3,16.3-19.3h0.1
					c0.4,0.1,0.8,0.3,1.1,0.4s0.5,0.3,0.8,0.3s0.7-0.2,0.7-0.8C1008.6,90.8,1002,83.7,998.1,83.7L998.1,83.7z"/>
			</g>
			<g>
				<path class="st1" d="M1006.5,80.5c-1.9,0-3.9-2.5-3.9-5c-0.2-4.9,5.7-15.9,10.2-17.3c0.2,0,0.3,0,0.4,0c3.7,0,7,3.1,9.1,5.7
					c1.1,1.3,2.2,3.6,1.9,4.3c-0.1,0.2-0.2,0.3-0.4,0.3l0,0c-0.1,0-0.2,0-0.4-0.1c-0.3-0.1-0.6-0.2-1.2-0.2c-0.6,0-1.2,0.1-1.8,0.4
					c-2.7,1.3-9.9,8-11.8,10.7C1008,80.1,1007.3,80.5,1006.5,80.5z"/>
				<path class="st1" d="M1013.1,58.4c3.7,0,6.9,3.2,8.9,5.6c1.4,1.6,2.4,4.1,1.7,4.1l0,0c-0.2,0-0.7-0.3-1.5-0.3
					c-0.5,0-1.2,0.1-1.9,0.5c-2.7,1.3-10,8.1-11.9,10.8c-0.6,0.8-1.3,1.1-1.9,1.1c-1.8,0-3.7-2.5-3.7-4.7c-0.2-4.9,5.8-15.7,10-17.1
					C1012.9,58.4,1013,58.4,1013.1,58.4 M1013.1,57.9L1013.1,57.9L1013.1,57.9c-0.1,0-0.2,0-0.4,0h-0.1h-0.1
					c-4.5,1.5-10.5,12.7-10.3,17.6c0,2.6,2.1,5.2,4.2,5.2c0.6,0,1.5-0.2,2.4-1.3c1.9-2.7,9.1-9.4,11.7-10.6c0.6-0.3,1.1-0.4,1.7-0.4
					c0.5,0,0.8,0.1,1.1,0.2c0.1,0,0.3,0.1,0.4,0.1l0,0h0.1c0.3,0,0.5-0.1,0.6-0.4c0.4-0.9-0.9-3.3-2-4.5
					C1020.3,61,1017,57.9,1013.1,57.9L1013.1,57.9L1013.1,57.9z"/>
			</g>
			<g>
				<path class="st1" d="M195.3,149c-0.9,0-1.7-0.5-2.8-1.1c-2.3-1.3-5.4-4.9-5.4-8.1c0-1.1,0.3-2.3,0.6-3.7
					c0.2-0.8,0.4-1.6,0.6-2.4c1.6-5.6,4.8-12,7.6-16.3c-8.1,7.9-34.1,31.2-40.3,31.2c-0.5,0-1.3-0.3-1.6-0.6
					c-2.9-1.4-7.1-8-7.1-11.3c0-8.8,8.7-22.8,21.8-34.7c14.6-13.4,30.4-21,43.6-21c5.3,0,14.2,2.3,14.2,10.9c0,3.3-1.7,6.2-3.2,8.1
					c-0.2,0.1-0.3,0.2-0.5,0.2s-0.4-0.1-0.5-0.3c-0.1-0.1,0-0.3,0.1-0.4c0.8-1.2,1.6-3.4,1.6-5.7c0-4.4-2.5-7-6.6-7
					c-0.3,0-0.6,0-0.9,0c-8.3,0.5-19.5,6.5-30.8,16.6c-14.7,13.3-26.1,33.6-25.4,35c0.1,0.1,0.3,0.1,0.4,0.1c0.1,0,0.3,0,0.5-0.1
					c5.1-1.8,27.1-18.5,35.3-26.1c0.7-0.6,1.8-1.7,3.1-3c4.3-4.3,10.9-10.7,13.9-12.5c0.3-0.2,0.6-0.2,1-0.2c1.6,0,3.2,1.6,4.3,3
					c2,2.5,3.4,5.8,3.1,7l-0.2,0.6l-0.3-0.5c-1.7,0-14.7,16.9-19.3,27.3c-0.9,2.1-1.4,4-1.5,5.4c7.6-2.5,22-16,32.3-25.9l1.5-2.4
					c1.8-2.9,3.6-5.9,5.5-8.7c5.4-8,12-16.1,16.1-19.6c1-1.1,2.1-1.2,2.4-1.2c4,0,10.2,6.7,10.2,11c0,0.5-0.3,0.5-0.4,0.5
					c-0.2,0-0.3-0.1-0.5-0.2c-0.3-0.2-0.8-0.4-1.4-0.5h-0.1c-2.4,0-9.1,9-14,15.5c-7.4,10.5-15.4,24.8-15.8,30
					c8-3.9,24.1-19,30.8-25.9c2.6-2.7,5.6-6.1,8.8-9.7c6.5-7.4,13.9-15.7,20-20.7c0.8-0.7,1.5-1,2.4-1c3.9,0,10,6.7,10,11
					c0,0.4-0.2,0.5-0.4,0.5c-0.1,0-0.3-0.1-0.5-0.2c-0.3-0.2-0.7-0.4-1.3-0.5c-1.1,0-3.1,1.5-5.1,3.7c-2.2,2.6-6.4,8.2-12,16
					c-7.6,10.8-13.4,22.3-13.6,27.2c8.2-3.1,24.7-18.6,37.2-31.1l1.3-2.3c3.3-5.9,7.1-12.7,11.8-20.2c10.9-18,21.3-32.8,28.1-42.1
					c5.5-7.4,9.7-12.3,13.1-15.3c2.2-1.8,4.4-3.5,6-3.5c0.2,0,0.4,0,0.7,0c7.2,0,12.5,6.5,12.5,7.7c0,0.1,0,0.2-0.1,0.3
					c-0.1,0.1-0.2,0.1-0.3,0.1c-0.2,0-0.4-0.1-0.7-0.3c-0.4-0.2-0.8-0.3-1.2-0.3c-4.7,0-12,9.9-17.8,17.9c-1.1,1.6-2.2,3.1-3.2,4.4
					c-6.1,8.3-12,17.3-18.9,27.8l-2.3,3.5c-15.1,24.3-25.7,43.8-29.2,53.5c6.1,0,25.1-18.9,36.4-30.2c2-2,3.8-3.8,5.2-5.2
					c0.3-0.2,0.5-0.4,0.8-0.4s0.6,0.2,0.7,0.5c0.2,0.4,0.3,1,0.1,1.3c-7.1,8.5-35,39.7-44.7,43.6c-0.6,0.3-1.3,0.4-1.9,0.4
					c-1.3,0-2.4-0.6-3.4-1.2c-1.3-0.8-4.9-4.2-5.7-6.7c-0.2-0.3-0.5-0.7-0.5-2.6c0-3.3,2.8-10.2,8.7-21.8
					c-11.5,12.6-30.5,32.1-38.4,32.1c-0.9,0-1.8-0.4-2.7-1.2c-2.6-1.3-5.7-5.4-5.7-8.5c0-1.3,0.7-3.6,1.3-5.8c0.1-0.5,0.3-1,0.4-1.4
					c2.3-6.4,7.2-16.3,12.3-23.8c-1.1,1.2-2.2,2.3-3.3,3.5c-15.2,16.5-32.4,35.1-40.6,36.9h-1.3c-2.7,0-7.8-4.4-7.8-8.7
					c0-3.3,1.9-8.9,5.4-16.2C216.5,135.2,201.9,149,195.3,149z"/>
				<path class="st1" d="M373.8,23.9c7.7,0,13.3,7.6,12.1,7.6c-0.1,0-0.3-0.1-0.5-0.2c-0.4-0.2-0.9-0.3-1.4-0.3
					c-5.8,0-15,14.1-21.2,22.4c-6.8,9.2-13.2,19.1-21.2,31.3c-13.7,22.1-25.6,43.3-29.3,53.9c0.1,0,0.2,0,0.3,0
					c7.3,0,32.7-26.6,41.9-35.4c0.2-0.2,0.4-0.3,0.6-0.3c0.6,0,0.8,1,0.6,1.4c-7.8,9.4-35.1,39.7-44.6,43.5
					c-0.7,0.3-1.3,0.4-1.9,0.4c-1.2,0-2.2-0.5-3.2-1.1c-1.2-0.7-4.8-4.1-5.6-6.6c-0.2-0.3-0.5-0.7-0.5-2.5c0-3.3,2.9-10.6,9.5-23.4
					c-13.9,15.4-32,33.4-39.5,33.4c-0.8,0-1.7-0.4-2.5-1.1c-2.5-1.3-5.6-5.2-5.6-8.3c0-1.6,1-4.7,1.7-7.2c2.7-7.4,8.7-19.3,14.6-27
					c-16,17.2-37.2,41.3-46.5,43.3c-0.4,0-1.2,0-1.2,0c-2.6,0-7.5-4.4-7.5-8.4c0-3.9,2.5-10.4,6.1-17.6c-12.9,13.7-27.2,27-33.6,27
					c-0.8,0-1.5-0.4-2.7-1.1c-2.2-1.3-5.3-4.8-5.3-7.9c0-1.6,0.7-3.6,1.2-6.1c1.9-6.6,6.1-14.4,9.2-18.5
					c-4.8,5.1-35.5,33.1-42.1,33.1c-0.4,0-1.2-0.3-1.4-0.5c-2.9-1.4-7-7.9-7-11.1c0-18.1,36.1-55.5,65.1-55.5
					c5.9,0,13.9,2.7,13.9,10.6c0,2.9-1.4,5.7-3.1,7.9c-0.1,0.1-0.2,0.1-0.3,0.1c-0.2,0-0.4-0.1-0.2-0.3c0.9-1.4,1.7-3.6,1.7-5.9
					c0-4.7-2.7-7.2-6.9-7.2c-0.3,0-0.6,0-0.9,0c-9.2,0.5-20.7,7.5-30.9,16.7c-14.9,13.5-26.8,34.7-25.4,35.4
					c0.2,0.1,0.4,0.1,0.6,0.1s0.4-0.1,0.6-0.1c5.2-1.8,27.3-18.7,35.4-26.1c2.9-2.7,13.1-13.2,17-15.5c0.3-0.1,0.5-0.2,0.8-0.2
					c3.3,0,7.6,7.8,7.2,9.7c0-0.1-0.1-0.1-0.2-0.1c-1.9,0-15,17.1-19.5,27.4c-1,2.4-1.5,4.4-1.5,5.8c7.4-2.2,21.8-15.5,32.7-26.1
					c2.3-3.7,4.6-7.5,7-11.1c5.6-8.3,12.2-16.2,16.1-19.6c0.8-0.9,1.7-1.1,2.2-1.1c3.7,0,10,6.5,10,10.8c0,0.2,0,0.3-0.1,0.3
					c-0.2,0-0.8-0.5-1.9-0.7c-0.1,0-0.1,0-0.2,0c-2.5,0-9,8.6-14.2,15.6c-7.9,11.2-15.9,25.7-15.9,30.6c7.6-3.5,23.7-18.4,31.2-26.1
					c8.1-8.5,19.8-23,28.8-30.4c0.8-0.7,1.5-0.9,2.2-0.9c3.7,0,9.8,6.5,9.8,10.8c0,0.2,0,0.3-0.1,0.3c-0.2,0-0.8-0.5-1.8-0.7
					c-1.2,0-3.3,1.5-5.3,3.8c-2.3,2.7-6.7,8.6-12,16c-7.9,11.2-13.7,23-13.7,27.7c8.6-2.9,26.7-20.3,37.6-31.3
					c3.6-6.4,7.8-14,13.1-22.6c9.8-16.2,19.8-30.8,28.1-42.1c4.8-6.5,9.2-11.9,13.1-15.3c2.4-2,4.4-3.4,5.8-3.4
					C373.3,23.9,373.5,23.9,373.8,23.9 M373.8,23.4L373.8,23.4c-0.2,0-0.5,0-0.7,0l0,0c-1.3,0-3.1,1-6.1,3.5
					c-3.5,3.1-7.6,7.8-13.2,15.4c-6.8,9.3-17.2,24.1-28.1,42.1c-4.7,7.6-8.5,14.3-11.8,20.3l-1.3,2.3
					c-12.2,12.4-28.4,27.5-36.7,30.9c0.5-5.1,6.2-16.2,13.6-26.7c5.5-7.7,9.8-13.4,12-16c2.1-2.5,4-3.6,4.9-3.6
					c0.6,0.1,0.9,0.3,1.2,0.4c0.2,0.1,0.4,0.2,0.6,0.2c0.1,0,0.6,0,0.6-0.8c0-4.4-6.3-11.3-10.3-11.3c-0.9,0-1.7,0.3-2.5,1
					c-6.1,5-13.5,13.4-20.1,20.7c-3.2,3.6-6.2,6.9-8.8,9.7c-6.5,6.7-22.2,21.4-30.3,25.6c0.8-5.6,8.5-19.3,15.7-29.5
					c4.6-6.1,11.6-15.4,13.8-15.4h0.1c0.6,0.1,1,0.3,1.3,0.4s0.4,0.2,0.6,0.2c0.1,0,0.6,0,0.6-0.8c0-4.4-6.4-11.3-10.5-11.3
					c-0.4,0-1.5,0.1-2.6,1.2c-4.1,3.6-10.8,11.7-16.2,19.7c-1.9,2.8-3.7,5.8-5.5,8.7c-0.5,0.8-1,1.6-1.5,2.4
					c-10.1,9.8-24.1,22.9-31.8,25.7c0.1-1.3,0.6-3,1.4-4.9c4.5-10.3,16.8-25.9,18.9-27l0.5,0.9l0.3-1.2c0.4-1.4-1.4-4.9-3.2-7.2
					c-1.1-1.4-2.8-3.1-4.5-3.1c-0.4,0-0.7,0.1-1,0.2c-3.1,1.8-9.6,8.3-14,12.6c-1.3,1.3-2.4,2.4-3.1,3c-8.2,7.5-30.2,24.3-35.2,26
					c-0.2,0.1-0.4,0.1-0.5,0.1s-0.1,0-0.2,0c0.1-2.5,11.4-22,25.4-34.6c11.2-10.1,22.3-16.1,30.6-16.6c0.3,0,0.6,0,0.9,0
					c4.1,0,6.4,2.5,6.4,6.7c0,2.3-0.8,4.4-1.6,5.6c-0.2,0.2-0.2,0.4-0.1,0.6c0.1,0.3,0.4,0.4,0.7,0.4c0.2,0,0.4-0.1,0.5-0.2h0.1
					l0.1-0.1c1.5-1.9,3.2-4.9,3.2-8.2c0-8.8-9.1-11.1-14.4-11.1c-13.2,0-29.2,7.7-43.8,21.1c-13.1,12-21.8,26-21.8,34.9
					c0,3.4,4.2,10,7.2,11.5c0.4,0.3,1.2,0.6,1.7,0.6c5.9,0,29.6-21,39-29.9c-2.5,4.2-5.2,9.8-6.6,14.7c-0.2,0.9-0.4,1.7-0.6,2.5
					c-0.4,1.4-0.7,2.7-0.7,3.8c0,3.3,3.2,7,5.5,8.3c1.2,0.7,2,1.2,3,1.2c6.5,0,20.4-13,31.7-24.8c-3.1,6.7-4.7,11.7-4.7,14.9
					c0,4.3,5.2,8.9,8,8.9h1.2h0.1h0.1c8.3-1.8,25.6-20.5,40.8-37c0.4-0.5,0.8-0.9,1.2-1.3c-4.5,7.1-8.6,15.6-10.7,21.4
					c-0.1,0.5-0.3,1-0.4,1.4c-0.6,2.2-1.3,4.5-1.3,5.9c0,3.2,3.1,7.3,5.8,8.7c0.9,0.8,1.9,1.2,2.8,1.2c7.7,0,25.8-18.2,37.4-30.8
					c-5.4,10.7-7.9,17.2-7.9,20.3c0,1.7,0.3,2.3,0.5,2.7c0.9,2.6,4.5,6,5.8,6.8c1,0.6,2.2,1.2,3.5,1.2c0.7,0,1.4-0.2,2.1-0.5
					c9.8-3.9,37.7-35.1,44.8-43.6l0,0l0,0c0.3-0.4,0.2-1.1-0.1-1.5c-0.2-0.4-0.6-0.6-1-0.6c-0.3,0-0.6,0.1-0.9,0.4
					c-1.4,1.4-3.2,3.1-5.3,5.2c-10.4,10.3-29.5,29.3-35.9,30.1c3.6-9.8,14.1-29.1,29-53.1l2.3-3.5C351.1,71,357,62,363.1,53.7
					c1-1.3,2.1-2.8,3.2-4.4c5.8-7.9,13-17.8,17.6-17.8c0.4,0,0.8,0.1,1.1,0.2c0.3,0.2,0.6,0.3,0.8,0.3c0.4,0,0.7-0.3,0.7-0.7
					C386.5,29.7,380.9,23.4,373.8,23.4L373.8,23.4z"/>
			</g>
			<g>
				<path class="st1" d="M407.5,181.7c-6.6,0-28-1.3-28-17.9c0-8.8,7.4-19.8,20.9-31c12.7-10.5,29.5-20.2,46.1-26.4l0.3-0.1v0.4
					c0,0.3-0.3,0.5-1,1l-0.1,0.1c-13.7,6.7-28.2,16.2-39,25.4c-9,7.8-19.7,19.1-19.7,28.9c0,7,10.6,8,16.8,8
					c33.6,0,77.6-15.3,115-39.8c38.9-25.6,62.2-55.9,62.2-81c0-21.3-24.4-33.2-47.4-33.5c-0.3,0-0.7,0-1,0
					c-20.5,0-43.7,6.7-63.8,18.3c-17.6,10.1-29.4,22.4-29.4,30.4c0,4.3,1.9,8.1,5,9.9l0.8,0.5h-0.9c-7.1,0-13.4-7.2-13.4-15.4
					c0-24.3,46.2-49.2,91.4-49.5h0.7c24.5,0,44.5,6.6,56.3,18.6c8.2,8.4,12.3,18.9,12,31.3C590.1,115.7,490.5,181.7,407.5,181.7z"/>
				<path class="st1" d="M523,10.3c42,0,68.6,18.9,68,49.6c-1.2,56.6-102.1,121.5-183.5,121.5c-9.5,0-27.8-2.5-27.8-17.6
					c0-18.5,33.2-44.5,66.8-57.1c0,0.2-0.3,0.4-1,0.9c-25.6,12.5-58.8,37.2-58.8,54.6c0,7.2,10.8,8.3,17.1,8.3
					c70.4,0,177.4-65.9,177.4-121.1c0-21.4-24.4-33.4-47.6-33.8c-0.4,0-0.7,0-1,0c-46,0-93.5,32.5-93.5,48.9c0,4.5,2,8.3,5.1,10.1
					c-7,0-13.1-7-13.1-15.1c0-25.1,48-49,91.2-49.2C522.5,10.3,522.7,10.3,523,10.3 M523,9.8h-0.7c-20.8,0.1-43.9,5.8-62,15.3
					c-18.9,9.9-29.7,22.4-29.7,34.4c0,8.3,6.4,15.6,13.6,15.6h1.9l-1.6-0.9c-3-1.7-4.9-5.4-4.9-9.7c0-7.9,11.7-20.1,29.2-30.2
					c20.1-11.6,43.3-18.2,63.7-18.2c0.3,0,0.7,0,1,0c22.8,0.4,47.1,12.2,47.1,33.3c0,13.1-6,27.2-17.7,41.9
					c-10.7,13.4-26.1,26.9-44.4,38.9c-37.3,24.5-81.3,39.8-114.8,39.8c-15,0-16.6-5.5-16.6-7.8c0-9.8,10.7-21,19.6-28.8
					c10.7-9.2,25.3-18.7,38.9-25.4l0,0l0,0l0.1-0.1c0.7-0.5,1.1-0.8,1.1-1.2V106l-0.7,0.3c-32.4,12.2-67.1,38.2-67.1,57.6
					c0,6.8,3.6,11.8,10.6,14.9c6.3,2.8,13.8,3.2,17.7,3.2c38.6,0,84.3-14.8,122.1-39.6c18.1-11.9,33.4-25.5,44.1-39.2
					C585,88.3,591,73.8,591.3,60c0.2-12.3-3.9-23.2-12.1-31.5C567.6,16.4,547.6,9.8,523,9.8L523,9.8z"/>
			</g>
			<g>
				<path class="st1" d="M974.6,168.2c-19.9,0-41.4-20.1-52.4-40c-0.7,1.3-1.4,2.7-2.2,4.2c-3,5.4-6.7,12.2-5.3,14.9
					c0.4,0.7,1.1,1.1,2.1,1.3l0.8,0.1l-0.8,0.4c-0.6,0.3-1.2,0.4-1.9,0.4c-1.4,0-2.7-0.7-3.7-1.4c-1.3-0.5-4.3-4.1-5.7-6.7
					c-0.5-1.7-0.2-7.5,4.7-18c0.8-2.1,1.8-4.1,2.8-6.1c0.6-1.3,1.3-2.6,1.9-3.9c-0.5-1.8-0.9-3.7-0.8-5.2
					c-10.8,4-18.9,7.9-24.7,11.7c2,1.8,5.7,6.4,5.4,10.1c-1.4,6.7-9.2,11.7-13.7,14.2c-6.7,3.6-14.4,5.9-19.7,5.9
					c-3.1,0-5.3-2.4-6.1-6.8c0.5-7.4,23.7-21.2,29-23.6c-0.4-0.5-1.1-1.1-1.9-1.8c-3.3-2.9-8.7-7.9-7.6-13.7
					c2.6-12.6,25.1-25.4,39.4-25.4c1.2,0,2.3,0.5,3.2,1.6c2.4,2.6,3.3,7.8,2.9,11.3c-0.2,2.3-10.2,12.6-14.6,12.6
					c-0.3,0-0.6-0.7-0.6-0.9V103l0.3-0.1c0.6-0.3,10.4-11,11.1-14.6c-0.2,0-0.3,0-0.5,0c-3.8,0-11.2,3.3-18.8,8.4
					c-7.8,5.3-13.2,10.6-14.1,14c-0.6,2.3,2.1,4.5,3.8,6c0.3,0.2,0.5,0.4,0.7,0.6c12.2-7.2,22.7-11.5,29.4-13.9
					c1.2-0.9,2.9-1.4,4.5-1.8c9.6-17.3,20.5-34.3,32.2-50.6c8.2-11.7,14.8-19.7,19.8-23.9c2.5-2,4.7-3.2,6.1-3.2
					c7.8,0,13.3,7,13.3,8.4c0,0.1,0,0.2-0.1,0.3s-0.2,0.1-0.3,0.1c-0.2,0-0.4-0.1-0.6-0.3c-0.5-0.2-1-0.4-1.6-0.4
					c-3.9,0-9.2,5.6-17.6,15.8c-1.7,2.2-9.4,12.7-9.5,12.8c-9.2,12.5-20.5,30.4-28.4,43.8c12.6-13.8,30.2-27.9,37.7-27.9
					c3.6,0,7.9,7.2,7.9,10.9c0,12.2-29.9,32.6-47.8,32.6c-0.6,0-1.2,0-1.8-0.1c3.6,9.7,10.6,20.4,18.7,28.6
					c6.8,6.9,17.4,15.1,29.2,15.1c5.8,0,11.1-1.9,16.1-5.8c0.2-0.2,0.5-0.3,0.9-0.3c0.3,0,0.6,0.1,0.7,0.4c0.1,0.2,0.1,0.4-0.2,0.8
					C989.9,165,982.6,168.2,974.6,168.2z M884.7,122.7c-9.5,5.6-19.9,13.2-24.6,17.9C867,138.1,883.8,128.5,884.7,122.7z
					 M929.1,114.6c0.4,2.2,0.8,2.8,0.9,3c3-0.4,6.2-1.7,9.9-4.1c7.5-4.4,13.7-11.1,17.5-16c3.9-4.6,7.1-9.4,8.8-12.9
					c-1.4,0.2-4,1.6-7.7,4.1c-9.9,6.6-21.9,18.2-25.4,21.6l-1.3,1.3C930.5,112.9,929.5,113.9,929.1,114.6z"/>
				<path class="st1" d="M979.7,24.2c8.4,0,14.1,8.3,12.9,8.3c-0.1,0-0.3-0.1-0.5-0.2c-0.5-0.3-1.1-0.4-1.7-0.4
					c-4.1,0-9.7,6.1-17.8,15.9c-1.7,2.2-9.5,12.8-9.5,12.8c-9.5,12.8-21.4,31.8-29.7,46c12.4-14.1,31.4-29.7,39.2-29.7
					c3.4,0,7.6,7,7.6,10.6c0,11.9-29.7,32.3-47.6,32.3c-0.7,0-1.5,0-2.1-0.1c6.8,18.5,27.6,44.2,48.3,44.2c5.6,0,11-1.8,16.3-5.9
					c0.2-0.2,0.5-0.3,0.7-0.3c0.4,0,0.7,0.3,0.3,0.8c-6.6,6.6-14,9.5-21.5,9.5c-20.4,0-41.7-20.7-52.4-40.3
					c-3.7,7.5-12.4,20.3-5.4,21.2c-0.6,0.3-1.2,0.4-1.8,0.4c-1.2,0-2.4-0.6-3.5-1.3c-1.2-0.5-4.2-3.9-5.6-6.6
					c-0.4-1.3-0.4-6.8,4.7-17.8c1.3-3.5,3.2-6.7,4.7-10.1c-0.5-2-1-4-0.8-5.6c-8.6,3.2-18.3,7.3-25.4,12c2,1.7,5.9,6.5,5.6,10.1
					c-2.2,10.8-23,19.8-33.2,19.8c-3.4,0-5.2-3-5.9-6.6c0.5-7.1,23.8-21.2,29.2-23.5c-1.7-2.3-11.1-8.2-9.7-15.6
					c2.6-12.8,25.3-25.2,39.2-25.2c4.4,0,6.4,7.7,5.9,12.6c-0.2,2.3-10.2,12.4-14.4,12.4c-0.1,0-0.5-0.7-0.3-0.7
					c0.5,0,11.1-11.7,11.4-15.1c-0.2,0-0.5-0.1-0.8-0.1c-8.2,0-31.2,15-33.1,22.7c-0.7,2.9,3.2,5.6,4.7,7
					c11.2-6.6,21.4-11.1,29.5-14c1.2-0.9,2.9-1.4,4.6-1.8c10.8-19.4,22-36.5,32.2-50.7c7.9-11.3,14.7-19.6,19.8-23.9
					C976.5,25.1,978.5,24.2,979.7,24.2 M929.9,117.8L929.9,117.8c3.2-0.4,6.6-1.9,10.1-4.1c7-4.1,13.1-10.4,17.6-16.1
					c4.1-4.9,7.4-9.8,9-13.3h-0.1c-1.5,0-4.5,1.7-8.1,4.2c-8.7,5.8-19.5,15.8-25.4,21.6c-2.1,2.1-3.7,3.6-4.2,4.4
					C929.3,117.2,929.7,117.8,929.9,117.8 M859.2,141.1c6.1-1.8,25.8-12.6,25.8-18.9C875.5,127.8,863.8,136.2,859.2,141.1
					 M979.7,23.7c-1.5,0-3.7,1.1-6.2,3.2c-5,4.2-11.7,12.3-19.9,24c-11.7,16.3-22.5,33.3-32.1,50.6c-1.6,0.4-3.3,0.9-4.5,1.8
					c-6.6,2.4-17.1,6.7-29.2,13.8c-0.2-0.2-0.4-0.3-0.6-0.5c-1.7-1.4-4.2-3.6-3.7-5.8c0.8-3.3,6.2-8.7,14-13.9
					c7.5-5,14.9-8.4,18.6-8.4c0.1,0,0.1,0,0.2,0c-0.5,1.5-2.3,4.2-5.2,7.8c-2.7,3.3-5.3,6-5.8,6.4c-0.1,0-0.2,0.1-0.3,0.2
					s-0.1,0.2-0.1,0.3c0,0.3,0.3,1.1,0.9,1.1c2.8,0,7.3-3.8,9-5.5c2.7-2.5,5.7-5.9,5.9-7.4c0.4-3.6-0.6-8.8-3-11.5
					c-1-1.1-2.2-1.7-3.4-1.7c-6.9,0-16.1,3-24.1,7.9c-8.7,5.3-14.4,11.7-15.6,17.7c-1.1,6,4.4,11,7.7,13.9c0.7,0.6,1.3,1.1,1.7,1.6
					c-5.9,2.8-28.4,16.3-28.9,23.6v0.1v0.1c0.9,4.5,3.1,7,6.4,7c9.9,0,31.4-8.7,33.7-20.2l0,0l0,0c0.3-3.6-3.2-8.1-5.3-10.1
					c5.7-3.7,13.6-7.4,24-11.3c0,1.5,0.4,3.2,0.8,4.8c-0.6,1.3-1.2,2.6-1.8,3.8c-1,2-2,4-2.8,6.1c-6.1,13.2-4.8,17.9-4.7,18.1l0,0
					l0,0c1.4,2.6,4.4,6.2,5.8,6.8c1,0.6,2.3,1.4,3.8,1.4c0.7,0,1.3-0.2,2-0.5l1.5-0.7l-1.7-0.2c-1-0.1-1.6-0.5-1.9-1.1
					c-1.3-2.6,2.3-9.3,5.2-14.7c0.7-1.3,1.4-2.6,2-3.8c5.6,10,13.7,19.7,22.2,26.8c10.2,8.4,20.6,12.9,30.2,12.9
					c8.1,0,15.5-3.2,21.9-9.6c0.5-0.5,0.4-0.9,0.3-1.1c-0.1-0.3-0.5-0.5-0.9-0.5s-0.8,0.1-1,0.4c-5,3.9-10.3,5.8-16,5.8
					c-6.5,0-16.7-2.6-29-15c-8-8.1-14.9-18.5-18.5-28.1c0.5,0,0.9,0,1.4,0c18,0,48.1-20.5,48.1-32.8c0-3.8-4.4-11.1-8.1-11.1
					c-7.3,0-23.8,13-36.3,26.3c7.8-13.2,18.4-29.9,27.2-41.8c0.1-0.1,7.8-10.6,9.5-12.8c8.4-10.2,13.6-15.7,17.4-15.7
					c0.5,0,1,0.1,1.5,0.3c0.3,0.2,0.5,0.3,0.7,0.3s0.4-0.1,0.5-0.2c0.1-0.1,0.2-0.2,0.2-0.5C993.3,30.9,987.6,23.7,979.7,23.7
					L979.7,23.7z M929.3,114.6c0.4-0.6,1.5-1.6,2.8-2.9c0.4-0.4,0.8-0.8,1.3-1.3c3.4-3.4,15.5-15,25.3-21.5c3.3-2.3,5.6-3.6,7.1-4
					c-1.7,3.4-4.8,8-8.5,12.4c-3.9,4.9-10,11.6-17.5,16c-3.7,2.3-6.8,3.6-9.7,4C929.9,117,929.6,116.3,929.3,114.6L929.3,114.6z
					 M861.2,139.9c4.9-4.6,14.4-11.4,23.2-16.7C882.7,128.6,868.2,137,861.2,139.9L861.2,139.9z"/>
			</g>
		</g>
	</g>
	<g>
		<g>
			<path class="st1" d="M466.7,138.2c-2.5,0-5.1-2-5.1-5.7c0-12.4,30.2-60.2,51.9-85.5c4.1-5,14.5-16.8,21.1-16.8
				c1.3,0,2.9,0.5,3.9,0.9c5.8,2.2,9.8,7.8,9.5,9.3c0,0.4-0.4,0.7-0.9,0.7c-0.4,0-0.7-0.2-1.1-0.5c-0.3-0.2-0.8-0.3-1.4-0.3
				c-1.8,0-4.3,1.3-7.6,3.9c-2.7,2.3-5.6,5.4-11.8,12.1c-22.3,24.9-53.7,66.5-55.8,75.4c2-0.1,4.4-0.5,8-2.4l1.6-1l-0.6,1.9
				C477.5,133.1,470.1,138.2,466.7,138.2z M534.6,31.2c-6.4,0-17.2,12.6-20.3,16.4c-21.6,25.2-51.7,72.7-51.7,84.9
				c0,3.1,2.1,4.7,4.1,4.7c2.6,0,8.8-4,10.4-6.6c-3.7,1.9-6.4,2.2-8.3,2.2h-0.5l0.1-0.5c0.7-7.8,32.7-50.4,56.1-76.5
				c6.3-6.8,9.2-9.9,11.9-12.2c3.5-2.8,6.1-4.1,8.2-4.1c0.8,0,1.4,0.2,2,0.5c0.2,0.1,0.3,0.2,0.4,0.3c-0.4-1.4-3.6-6.1-8.8-8.1
				C537,31.5,535.6,31.2,534.6,31.2z M547,40.4C547,40.4,547,40.4,547,40.4C547,40.4,547,40.4,547,40.4z"/>
			<path class="st1" d="M466.7,138.5c-2.6,0-5.4-2.1-5.4-6c0-12.4,30.2-60.3,51.9-85.6c6.5-7.7,15.4-16.9,21.3-16.9
				c1.7,0,3.5,0.7,4,0.9c5.8,2.2,9.9,8,9.6,9.5c0,0.5-0.5,0.9-1.1,0.9c-0.5,0-0.8-0.2-1.2-0.5c-0.3-0.2-0.7-0.3-1.3-0.3
				c-1.7,0-4,1.2-7.5,3.9c-2.7,2.3-5.6,5.4-11.8,12.1c-26.1,29.2-53.2,66.6-55.6,74.9c1.8-0.1,4.1-0.5,7.5-2.3l2.1-1.2l-0.6,2.2
				C477.7,133.3,470.2,138.5,466.7,138.5z M534.5,31.5c-6.1,0-16.9,12.5-20.1,16.3c-21.3,24.9-51.6,72.9-51.6,84.7
				c0,3.3,2.3,4.5,3.9,4.5c2.4,0,7.4-3.3,9.5-5.6c-2.7,1.2-5,1.7-7.8,1.7h-0.5v-0.5c0-7.6,34.5-52.7,56.2-76.9
				c6.3-6.8,9.2-9.9,11.9-12.2c3.5-2.8,6.3-4.2,8.4-4.2c0.6,0,1.2,0.1,1.9,0.4c-0.8-1.6-3.8-5.5-8.5-7.3
				C536.8,31.8,535.5,31.5,534.5,31.5z"/>
		</g>
		<g>
			<g>
				<path class="st1" d="M650,151.2c-4.5,0-7.8-4.9-9.2-9.8c-0.3-1.3,0.2-5.8,4.4-13.9c0.7-1.5,1.6-3.2,2.6-5
					c-17.4,18.4-28.3,27-34,27c-0.9,0-1.7-0.4-2.7-1l-0.3-0.2c-2.4-1.3-5.7-5.1-5.7-8.5c0-1,0.2-2,0.5-3.2l0.1-0.6l0.6-2.4
					c1.4-4.2,3.7-9.2,6.1-13.5c-8.8,8.3-32,29-38.1,29c-0.6,0-1.5-0.3-1.9-0.7c-3.1-1.6-7.3-8.3-7.3-11.7c0-9,8.8-23.1,22-35.1
					c14.6-13.4,30.6-21.1,43.9-21.1c5.4,0,14.6,2.4,14.6,11.3c0,3.5-1.8,6.5-3.3,8.4l-0.2,0.1l-0.1,0.1c-0.1,0.1-0.3,0.2-0.6,0.2
					c-0.4,0-0.7-0.2-0.9-0.5c-0.2-0.3-0.1-0.8,0.2-1c0.7-1.1,1.5-3.2,1.5-5.3c0-4.1-2.3-6.5-6.1-6.5h-0.9
					c-8.2,0.5-19.3,6.5-30.5,16.5c-14.3,12.9-24.7,31.4-25.2,34.2c0.1,0,0.1,0,0.2,0c5.1-1.7,27.3-18.7,35.2-26
					c0.7-0.6,1.8-1.7,3.1-3c4.8-4.8,11.1-10.8,14-12.6c0.4-0.3,0.8-0.3,1.2-0.3c2.1,0,4.1,2.4,5.1,3.8c1.4,1.9,3.1,5.3,2.6,6.8
					l-0.6,1.5l-0.6-1c-2.3,1.5-14.1,16.6-18.6,26.9c-0.7,1.6-1.2,3.2-1.4,4.4c9.2-3.8,27.2-21.6,35.1-29.3l1.2-1.1
					c0.5-0.8,1-1.6,1.6-2.4c0.7-1,1.3-2,1.9-2.9l0.1-0.2c4.9-7.4,12.2-17.3,17-20.9c0.7-0.8,1.8-1.1,2.5-1.1
					c4.4,0,10.7,6.8,10.7,11.5c0,0.6-0.3,1-0.9,1c-0.2,0-0.4-0.1-0.5-0.1c-0.1,0-0.1-0.1-0.2-0.1l-0.1-0.1c-0.3-0.2-0.6-0.3-0.9-0.3
					c-1.3,0-6.1,4.9-11.9,13c-4,5.5-9.3,13.2-13.2,19.3c0.4-0.4,0.8-0.8,1.1-1.3l0.8-0.9c18.5-19.3,45.8-41.3,51.3-41.3
					c3,0,6.2,4.4,7.4,7.6c1,2.7,0.5,3.9-0.1,4.5c-3.1,2.9-25.9,35-28.1,44.8c5.1-2,13.6-8.6,25.1-19.4c9.4-20.5,35.7-38.4,56.2-38.4
					c4.6,0,8.2,1.1,10.3,3.1c0.3,0.2,0.7,0.5,0.7,1l0,0.2c-0.2,0.6-0.8,0.6-1.5,0.6c-0.9-0.1-1.6-0.2-2.2-0.3l-0.3,0
					c-0.6-0.1-1-0.2-1.4-0.2c-23.4,0-49.6,38.1-53,53.6c-0.6,2.9-0.4,4.8,0.6,5.3c0.4,0.2,0.9,0.2,1.6,0.2
					c9.1,0,28.8-22.9,39.1-39.5c-0.9-1.9-2.3-6.6-1.5-8.6c0.5-1.8,5.6-7,7.9-7.3l0.4,0c1.8,0,3.7,1.4,4,2.1c2.2,3.7,5.4,8,11.3,8
					h1.1c1.7-0.2,3.3-0.5,5-1c4.4-7,7.3-10.6,10.9-13.7c1-1.1,2.2-1.3,2.7-1.3c4.4,0,11.1,6.7,11.5,11.4c0.1,0.2,0.1,0.5-0.1,0.8
					l-0.2,0.2h-0.4c-0.1,0-0.3,0-0.6-0.2c-0.1,0-0.2-0.1-0.3-0.1c-0.3-0.1-0.5-0.3-0.9-0.3c-0.8,0-2.6,1-4.9,3.8
					c-6,7.3-18.4,27.6-20.9,37.7c5.4-3.7,17.6-14.4,31-30.7c1.2-1.9,2.2-3.3,3.1-4.6l0.6-0.9c3.7-5.6,5.9-8.9,8.5-11.1
					c0.9-0.8,2-1.1,2.7-1.1c4.1,0,11.3,6.4,11.6,11.5c0,0.6-0.4,0.9-0.9,0.9c-0.1,0-0.2,0-0.3-0.1c-0.1,0-0.1,0-0.2,0l-0.2,0
					l-0.2-0.1c-0.3-0.1-0.7-0.2-1.3-0.3c-2.7,0-7.6,7.8-11.1,13.7c-4.7,8.1-8.8,18.8-9.5,22.9c15.2-10.5,39.7-36.6,58.3-67.4
					c0.3-0.3,0.4-0.5,0.5-0.6c0.4-0.5,0.6-0.7,1-0.7h0.2l0.4,0.4c0.2,0.4,0.1,0.8-0.4,2c-11.7,31.9-57.3,79.4-64.3,79.4
					c-4.6,0-8.6-7.2-8.7-8.6c-0.8-5.7,2.3-15.2,5.6-23.1c-7,8.4-15.7,18.7-21.2,23.5l-0.7,0.6c-5.7,5-9.2,8-11,8
					c-3.7,0-7.8-7.2-8-8.5c-0.3-8.2,6.9-24.8,14-37.2c-2.7,0.7-5.2,0.8-7.1,0.8c-1.2,0-2.9-0.1-4.1-0.4c-4.8,21.4-35.5,45-53.1,45
					h-1.1c-8-0.5-12.7-7.4-12.7-13.8c0-2.2,0.3-4.4,0.8-7.1c-13.8,13.7-22.9,20.4-27.8,20.4c-1.8,0-3.8-1.4-5.5-3.9
					c-1.9-2.5-3-5.1-3-6.9c0-5.7,6-16.5,9.6-22.5c4.5-7.4,9.9-15.1,14.1-20.1c-13.1,7.7-33,25.3-43.7,37.5c-1.5,1.6-2.9,3.4-4.3,5.2
					c-0.4,0.5-0.7,1-1.1,1.4l-0.2,0.3c-3,3.7-4.6,7.2-4.1,9c0.1,0.4,0.3,0.7,0.8,1l1.7,0.9l-1.9,0.5
					C651,151.2,650.6,151.2,650,151.2z M650.4,120c-1.7,3-3.1,5.7-4.3,8c-4.2,8.2-4.6,12.3-4.4,13.2c1.2,4.5,4.3,9,8.2,9
					c0.1,0,0.2,0,0.4,0c-0.4-0.4-0.7-0.8-0.8-1.3c-0.5-2.2,1.1-5.8,4.3-9.8l0.2-0.3c0.4-0.5,0.7-1,1.1-1.5c1.4-1.8,2.8-3.7,4.3-5.3
					C671,119,693,99.7,706.1,93l2.6-1.3l-2,2.1c-8.4,8.9-25.4,35-25.4,44.1c0,1.6,1.1,4,2.8,6.3c1.5,2.2,3.3,3.5,4.7,3.5
					c4.7,0,14.3-7.2,28.3-21.4l1.3-1.3l-0.4,1.7c-0.8,3.3-1.2,6.1-1.2,8.6c0,5.9,4.4,12.3,11.7,12.8l1.1,0
					c17.4,0,47.9-23.6,52.2-44.8l0.1-0.6l0.6,0.2c0.9,0.4,2.4,0.6,4.3,0.6c2.1,0,4.9-0.1,8-1.1l1.2-0.4l-0.6,1.1
					c-7.2,12.4-14.7,29.4-14.4,37.6c0.2,1,4,7.6,7,7.6c1.5,0,6-3.9,10.3-7.8l0.8-0.6c6-5.3,16-17.3,23.2-26l2.3-2.7l-1.4,3.3
					c-3.6,8.3-7.8,19.4-6.9,25.7c0.1,1.2,3.8,7.7,7.7,7.7c6.8,0,51.7-47.1,63.3-78.8c0-0.1,0.1-0.2,0.1-0.3
					c-0.1,0.1-0.1,0.1-0.2,0.2c-18.9,31.5-44.2,58.2-59.4,68.3l-0.8,0.5v-0.9c0-3.1,4.4-15.3,9.8-24.5c6-10,9.4-14.1,11.9-14.1
					l0.2,0c0.6,0.1,1.1,0.3,1.4,0.4l0.1,0c0.1,0,0.2,0,0.3,0.1c-0.4-4.4-7-10.4-10.6-10.4c-0.5,0-1.4,0.3-2.1,0.9
					c-2.4,2-4.6,5.4-8.3,10.8l-0.6,1c-0.9,1.3-1.9,2.7-3.1,4.6c-14.4,17.6-27.4,28.7-32.3,31.7l-1,0.6l0.2-1.1
					c1.8-9.8,15.2-31.7,21.4-39.3c1.3-1.6,3.8-4.2,5.8-4.2c0.6,0.1,1,0.3,1.3,0.4c0.1,0,0.1,0.1,0.2,0.1
					c-0.5-4.2-6.6-10.3-10.5-10.3c-0.4,0-1.2,0.1-2,1c-3.6,3.2-6.4,6.8-10.8,13.7l-0.1,0.2l-0.2,0.1c-1.9,0.6-3.5,0.9-5.4,1.1
					l-1.2,0c-6.4,0-9.9-4.6-12.2-8.5c-0.2-0.4-1.6-1.6-3.1-1.6h-0.3c-1.8,0.3-6.6,5.1-7,6.6c-0.7,1.7,0.6,6.3,1.6,8l0.1,0.3
					l-0.2,0.3c-10.1,16.4-30.3,40.2-40.1,40.2c-0.8,0-1.4-0.1-2-0.3c-1.6-0.8-2-3-1.2-6.5c3.4-15.8,30.1-54.4,54-54.4
					c0.5,0,1,0.1,1.6,0.2l0.3,0c0.6,0.1,1.3,0.2,2.1,0.3c0,0,0,0,0,0c-1.9-1.9-5.2-2.9-9.6-2.9c-20.2,0-46.1,17.7-55.3,37.9
					l-0.1,0.2c-12.3,11.6-21.2,18.3-26.4,20l-0.7,0.2l0.1-0.8c1-8.8,24.8-42.8,28.6-46.2c0.5-0.5,0.5-1.8-0.1-3.5c-1-2.9-4-7-6.4-7
					c-5.1,0-33,22.6-50.5,40.9l-0.8,0.9c-0.5,0.6-1.1,1.2-1.6,1.8c-1.2,1.4-2.4,2.6-3.4,3.8l-0.8-0.6c3.8-6.5,10.9-16.8,16.3-24.3
					c3.5-5,10.2-13.4,12.7-13.4c0.5,0,1,0.1,1.4,0.4c0.1,0,0.2,0.1,0.3,0.1c0,0,0,0,0,0c-0.1-4.2-5.9-10.5-9.7-10.5
					c-0.5,0-1.3,0.2-1.8,0.8l-0.1,0.1c-4.7,3.5-12,13.3-16.8,20.7l-0.1,0.1c-0.6,1-1.3,2-1.9,3c-0.5,0.8-1.1,1.6-1.6,2.4l-0.1,0.1
					l-1.2,1.2c-8.1,8-27,26.7-36.2,29.8l-0.7,0.2l0.1-0.8c0.1-1.5,0.7-3.5,1.5-5.6c4.3-9.8,17.5-27.6,19.8-27.6h0.1
					c0-1.1-1.1-3.6-2.5-5.6c-0.6-0.8-2.5-3.4-4.3-3.4c-0.3,0-0.5,0-0.6,0.1c-2.9,1.7-9.1,7.7-13.8,12.4c-1.3,1.3-2.4,2.4-3.1,3
					c-8,7.4-30.3,24.5-35.5,26.2c-0.2,0.1-0.5,0.1-0.7,0.1c-0.2,0-0.5,0-0.8-0.2l-0.1-0.1c-0.9-1.8,10.9-22.3,25.5-35.6
					c11.3-10.1,22.7-16.2,31.1-16.7l0.9,0c4.4,0,7.1,2.9,7.1,7.5c0,2.5-0.8,4.7-1.6,5.9c0,0,0,0,0,0c0,0,0,0,0.1,0
					c1.4-1.8,3-4.6,3-7.7c0-8.1-8.5-10.3-13.6-10.3c-13,0-28.8,7.6-43.3,20.9c-12.9,11.8-21.6,25.6-21.6,34.3c0,3,4.1,9.5,6.8,10.8
					l0.1,0.1c0.2,0.2,0.9,0.5,1.2,0.5c5.7,0,31-22.4,40.2-31.3l3.2-3.1l-2.5,3.8c-3,4.6-6.2,11.2-7.9,16.4l-0.7,2.9
					c-0.3,1.1-0.5,2.1-0.5,3c0,3.1,3,6.5,5.1,7.7l0.3,0.2c0.9,0.5,1.5,0.8,2.2,0.8c5.6,0,17.4-9.7,35.9-29.5l0.9-0.9v1.3
					C650.7,119.5,650.6,119.8,650.4,120z"/>
				<path class="st1" d="M649.6,151.1c-4.5,0-7.9-5-9.4-10c-0.4-1.9,0.8-6.9,4.4-14c0.5-1.1,1.1-2.2,1.8-3.4
					c-10.3,10.8-18.4,18.2-24.4,22.1c-0.7,0.5-1.4,0.9-2.1,1.3c-2.5,1.4-4.6,2.1-6.2,2.1c-1.1,0-1.9-0.5-3.1-1.2l-0.2-0.1
					c-2.3-1.3-5.7-5.2-5.7-8.7c0-1.3,0.4-2.7,0.7-3.9c0.2-0.7,0.4-1.5,0.6-2.4c1.2-3.7,3.2-8,5.5-12.2c-10.2,9.5-31.5,28-37.3,28
					c-0.6,0-1.5-0.4-2-0.7c-3.1-1.6-7.4-8.4-7.4-11.9c0-9.1,8.8-23.2,22-35.3c14.7-13.5,30.8-21.2,44.1-21.2c3.5,0,7.1,0.9,9.7,2.5
					c3.4,2.1,5.2,5.2,5.2,9.1c0,3.8-2.1,6.9-3.3,8.5l-0.3,0.3h-0.1c-0.2,0.1-0.4,0.2-0.7,0.2c-0.6,0-1-0.3-1.2-0.7
					c-0.2-0.3-0.1-0.8,0.2-1.1c0.6-1,1.5-3,1.5-5.2c0-4-2.1-6.2-5.9-6.2h-0.9c-8.2,0.5-19.2,6.5-30.3,16.5
					c-13.5,12.2-23.7,29.7-25.1,33.6c5.3-2,26.7-18.4,34.9-25.9c0.7-0.6,1.8-1.7,3.1-3l1.3-1.3c4.4-4.3,9.9-9.8,12.8-11.4l0.1,0
					c0.3-0.1,0.7-0.2,1.2-0.2c2.3,0,4.5,2.7,5.3,3.9c1.3,1.8,3.2,5.4,2.6,7.1l-0.2,0.4l-0.9,2.8v-1.7l-0.3-0.7
					c-3.1,2.7-14.2,17-18.4,26.7c-0.3,0.7-0.5,1.4-0.8,2c-0.2,0.6-0.3,1.1-0.4,1.6c9.9-4.4,29.2-23.7,35.7-30.2
					c1.3-2,2.5-3.7,3.6-5.5c5-7.6,12.5-17.4,17-20.9c0.7-0.8,1.9-1.1,2.6-1.1c4.4,0,11,7.1,11,11.8c0,0.3-0.1,0.6-0.3,0.8
					c-0.1,0.4-0.5,0.5-0.8,0.5c-0.3,0-0.6,0-0.8-0.1l-0.2-0.1c-0.1,0-0.3-0.1-0.4-0.2c-0.2-0.1-0.4-0.2-0.6-0.2c0,0,0,0,0,0
					c-0.8,0.3-2.1,1.4-3.7,3.1c-2.1,2.2-4.8,5.6-7.8,9.8c-4,5.6-8.4,12-11.8,17.3l0.3-0.3c16.5-17.3,45.5-41.4,51.5-41.4
					c3.2,0,6.4,4.5,7.7,7.7c1.1,2.9,0.5,4.3-0.1,4.9c-1.5,1.4-8.3,10.5-15.3,21.3c-6.8,10.6-11.3,18.7-12.5,22.8
					c7-3.1,18.2-13.2,24.5-19.2c9.6-20.5,35.9-38.5,56.4-38.5c6.7,0,9.4,2.3,10.3,3.1c0.4,0.2,1.1,0.6,0.9,1.4
					c-0.2,0.9-1.1,0.9-1.7,0.9l-0.2,0l-0.7-0.1c-0.5-0.1-1-0.1-1.4-0.2c-0.6-0.1-1.2-0.2-1.6-0.2c-13.7,0-27,13.1-33.7,20.9
					c-7.9,9.1-17,23.1-19.1,32.5c-0.6,2.8-0.4,4.6,0.5,5c0.4,0.2,1,0.3,1.5,0.3c4,0,10.7-4.8,18.9-13.5c7-7.4,14.6-17.3,19.9-25.9
					c-0.9-2-2.2-6.6-1.5-8.5c0.6-1.8,5.6-7.2,8.1-7.4l0.4,0c1.9,0,3.7,1.5,4.1,2.1c3.5,5.7,6.7,8,11.2,8h1.1
					c1.5-0.1,3.1-0.4,4.8-0.9c4.6-7.2,7.5-10.7,10.9-13.7c1.2-1.2,2.4-1.3,2.9-1.3c4.6,0,11.3,6.7,11.7,11.6c0.1,0.3,0.1,0.6,0,0.9
					l-0.1,0.1l-0.3,0.3h-0.5c-0.2,0-0.3,0-0.6-0.2c-0.2-0.1-0.6-0.3-1.2-0.4c-1,0-2.8,1.4-4.7,3.7c-5.6,6.8-17.7,26.5-20.7,36.9
					c5.6-4,17.4-14.5,30.3-30.3c1-1.4,2.2-3.1,3.1-4.6l0.3-0.4c3.9-5.9,6.2-9.5,8.8-11.7c0.9-0.8,2.1-1.1,2.8-1.1
					c4.9,0,11.6,7.3,11.9,11.8c0,0.9-0.6,1.2-1.1,1.2c-0.3,0-0.6-0.1-0.8-0.3l-0.1,0c-0.3-0.1-0.7-0.2-1.1-0.3l0,0
					c-2.4,0-7.4,7.7-10.9,13.6c-4.7,7.9-8.4,17.9-9.3,22.3c19.6-13.6,43.8-43.8,57.7-67c0.7-0.7,1-1.1,1.3-1.3l0.4-1.2l0.6,1.3
					c0.3,0.5,0.1,1-0.4,2.2c-7.2,19.6-26.1,42.7-33.9,51.7C840.9,137,827.8,149,824,149c-4.5,0-8.8-7-9-8.7c-0.8-5.6,2-14.4,5-21.7
					c-6.9,8.2-14.9,17.7-20.1,22.3l-0.6,0.5c-6.5,5.7-9.5,8.1-11.3,8.1c-3.8,0-8-7.2-8.3-8.7c-0.3-8.3,6.6-24.3,13.7-36.8
					c-2.6,0.6-4.8,0.6-6.5,0.6c-1.5,0-2.9-0.1-3.9-0.4c-2,8.6-8.2,18.1-17.4,26.6c-3.7,3.5-7.8,6.7-11.9,9.4c-8.7,5.7-17.3,9-23.9,9
					h-1.2c-8.1-0.5-13-7.6-13-14.1c0-2,0.2-4.1,0.7-6.4c-0.7,0.7-1.5,1.5-2.2,2.2c-12.3,12-20.6,17.8-25.3,17.8c-1.8,0-4-1.5-5.7-4
					c-1.9-2.4-3.1-5.1-3.1-7.1c0-6.5,7.9-19.8,10.4-23.8c4-6.6,8.6-13.2,12.4-17.8c-1.9,1.2-3.9,2.5-6,4
					c-12.3,8.7-27.3,22.4-36.3,32.6c-1.9,2-3.7,4.5-5.4,6.7l-0.2,0.3c-0.9,1.1-1.7,2.3-2.3,3.3c-1.4,2.4-1.9,4.3-1.7,5.4
					c0.2,0.4,0.3,0.6,0.6,0.7l2.7,1.2l-2.9,0.6C650.7,151,650.1,151.1,649.6,151.1z M654,114.2l-2,3.6c-0.4,0.8-0.8,1.5-1.3,2.3
					c-1.6,2.9-3.1,5.6-4.3,8.1c-4.2,8-4.6,12.1-4.4,13c1.3,4.4,4.2,8.8,8,8.8c0,0,0.1,0,0.1,0c-0.2-0.3-0.4-0.6-0.5-1
					c-0.4-1.5,0.3-3.7,1.7-6.2c0.7-1.2,1.5-2.5,2.6-3.8l0.3-0.5c1.6-2.1,3.3-4.6,5.2-6.4c9-10.3,24.7-24.6,37.4-33.5
					c3.6-2.5,7-4.6,9.8-6.1l0.5-0.3l0,0.1c0.1,0,0.2-0.1,0.3-0.1l2.7-1.3l-2.1,2.1c-8.1,7.9-26.3,35.6-26.3,44.9
					c0,1.6,1.1,4,2.8,6.2c1.4,2.1,3.2,3.4,4.5,3.4c4.2,0,12.5-6,24.6-17.8c1-0.9,1.9-1.9,2.9-2.9l1.2-1.2c0,0,0,0,0.1-0.1l1.3-1.3
					l-0.5,1.8c-0.9,3.7-1.4,6.6-1.4,9.4c0,5.8,4.3,12.1,11.5,12.6l1.1,0c17.1,0,48-24.1,52-44.9l0.1-0.6l0.6,0.3
					c0.8,0.4,2.5,0.6,4.5,0.6c2,0,5.1-0.1,8.4-1.3l1.3-0.4l-0.7,1.2c-7.3,12.5-15,29.8-14.7,38c0.3,1.3,4.1,7.4,6.8,7.4
					c1.4,0,6.1-4.1,10.3-7.8l0.6-0.5c6-5.4,16.1-17.5,23.5-26.4l3.2-3.9l-1.6,3.4c-2.6,5.7-8.6,19.8-7.6,27.2
					c0.2,1.2,3.9,7.5,7.5,7.5c5.7,0,49.3-43.7,62.4-76.7c-19,31.1-43.8,57.1-58.8,66.9l-0.6,0.4l-0.2-0.7c-0.6-2.6,4.4-16,9.8-25.2
					c6.1-10.3,9.5-14.2,12.1-14.2h0.2c0.6,0.1,1.1,0.3,1.4,0.4c-0.8-4.2-7-9.8-10.3-9.8c-0.5,0-1.2,0.2-1.9,0.8
					c-2.5,2.1-4.9,5.8-8.8,11.8c-0.9,1.4-2,3-3.1,4.6c-15,18.3-28.1,29.3-32.8,32l-0.9,0.5l0.1-1c1.4-9.6,15-32,21.5-39.9
					c2.2-2.8,4.4-4.3,6-4.3c0.5,0.1,0.8,0.2,1.1,0.3c-0.7-4-6.5-9.7-10.1-9.7c-0.2,0-1.1,0.1-1.8,0.9c-3.4,2.9-6.1,6.4-10.9,13.7
					l-0.1,0.2l-0.2,0.1c-1.4,0.4-3.2,0.9-5.5,1.1l-1.1,0c-6.5,0-10-4.6-12.4-8.6c-0.2-0.3-1.6-1.4-2.9-1.4h-0.3
					c-1.7,0.2-6.4,5-6.8,6.4c-0.6,1.6,0.8,6.4,1.7,7.9l0.2,0.3l-0.2,0.3c-10.1,16.6-30.4,40.5-40.4,40.5c-0.8,0-1.4-0.2-2.1-0.4
					c-1.2-0.6-2.4-2.2-1.4-6.7c3.5-15.8,30.3-54.6,54.3-54.6c0.6,0,1.2,0.1,1.9,0.2c0.5,0.1,1,0.2,1.5,0.2c-1.1-0.9-3.5-2.4-8.9-2.4
					c-20.1,0-45.8,17.7-55.1,37.8l-0.1,0.2c-8.6,8.2-20.2,18.3-26.8,20.2l-0.7,0.2l0-0.7c0.3-8.2,25.2-43.7,28.7-46.8
					c0.5-0.4,0.4-1.6-0.2-3.2c-1.2-3.2-4.2-6.8-6.2-6.8c-5.1,0-32.8,22.5-50.3,40.8l-0.9,0.9c-2.9,3-5.6,5.9-7.1,8.3l-0.9-0.5
					c2.6-5.2,11-17.8,18-27.6c0.7-1,5.6-7.9,9.4-11.4c0.9-0.9,1.8-1.5,2.4-1.8c0.4-0.2,0.7-0.3,1-0.3l0.2,0c0.5,0.1,0.9,0.3,1.2,0.5
					c0,0,0,0,0,0c-0.3-4-6-9.9-9.5-9.9c-0.4,0-1.1,0.2-1.6,0.7l-0.1,0.1c-4.3,3.3-11.5,12.7-16.7,20.6c-1.2,1.8-2.4,3.6-3.7,5.6
					l-0.1,0.1c-19,19-31.3,29.2-37.8,31.2l-0.6,0.2v-0.7c0-1.1,0.3-2.4,0.8-4c0.2-0.7,0.5-1.5,0.9-2.3c4.6-10.5,16.8-26.1,19.1-27.2
					l0.5-0.2l0,0.1c-0.1-1.1-1.1-3.4-2.6-5.5c-1.4-1.9-2.9-3.1-3.9-3.1c-0.1,0-0.2,0-0.5,0.1l-0.1,0c-2.9,1.8-9.4,8.1-13.7,12.4
					c-1.3,1.3-2.4,2.4-3.1,3.1c-7.7,7-30,24.3-35.6,26.2c-0.2,0.1-0.5,0.1-0.8,0.1s-0.5,0-0.8-0.2c-0.1-0.1-0.3-0.2-0.4-0.6
					c-0.3-2.5,11.3-22.7,25.7-35.6c11.3-10.2,22.7-16.4,31.2-16.8l0.9,0c4.6,0,7.4,2.9,7.4,7.7c0,1.1-0.2,2.3-0.5,3.4
					c0.8-1.5,1.4-3.3,1.4-5.2c0-8-8.4-10.1-13.4-10.1c-13,0-28.7,7.6-43.1,20.8c-12.9,11.8-21.5,25.5-21.5,34.2c0,3,4,9.3,6.7,10.7
					l0.1,0.1c0.1,0.1,0.8,0.4,1,0.4c6.3,0,36.6-27.5,41.7-32.9l0.8,0.6c-2.9,4-7.1,11.8-9.2,18.4c-0.2,0.8-0.4,1.6-0.5,2.4
					c-0.3,1.4-0.6,2.6-0.6,3.5c0,2.9,3,6.2,5.1,7.5c1.2,0.7,1.8,1,2.4,1c1.1,0,2.4-0.4,4-1.2c1.8-0.9,3.8-2.2,6.2-3.9
					c5.9-4.4,13.6-11.7,23.1-21.8c0.3-0.3,0.7-0.7,1-1l1.7-1.8c0.4-0.4,0.7-0.8,1.1-1.2L654,114.2z M730.8,144.2
					c1.1,0,2.2-0.3,3.5-0.8C733,143.9,731.8,144.2,730.8,144.2z M619.8,138.6C619.7,138.6,619.7,138.7,619.8,138.6
					c9.6-3.6,29.9-23.8,36.7-30.6c1.3-2,2.5-3.8,3.7-5.6c5.2-7.9,12.4-17.4,16.9-20.8c0.6-0.7,1.5-1,2.2-1c-0.1,0-0.1,0-0.2,0
					c-0.6,0-1.4,0.3-1.9,0.8l-0.1,0.1c-4.4,3.4-11.8,13.1-16.8,20.7c-1.2,1.8-2.4,3.6-3.7,5.6l-0.1,0.1
					C649.8,114.5,629.6,134.7,619.8,138.6z M691.1,114.4c-1.8,2.9-6.6,10.9-8.9,17.4C684,126.9,687.3,120.6,691.1,114.4z
					 M660.5,126.9C660.5,126.9,660.5,126.9,660.5,126.9C660.5,127,660.5,126.9,660.5,126.9L660.5,126.9z M705.4,94.4L705.4,94.4
					c-4.1,4.6-9.5,12.2-14.2,19.9C695.9,106.5,701.4,98.9,705.4,94.4C705.4,94.4,705.4,94.4,705.4,94.4z M794.1,104.5
					c-1.6,2.9-3.3,6-4.8,9.2C790.9,110.5,792.5,107.4,794.1,104.5z M640.7,98.9l0.3,0.2c0,0,0,0,0,0c0,0,0,0,0-0.1L640.7,98.9z
					 M713.6,82c-3.4,1.3-9.9,5.9-17.4,11.9C703.6,88,710.1,83.5,713.6,82z"/>
			</g>
			<g>
				<path class="st1" d="M43.3,185.2c-4.7,0-7.7-4.4-7.7-11.2c0.2-8.1,6-22.8,16.5-41.5c-12.3-0.3-19.7-4.1-19.7-10.4
					c0-9.8,23.4-23.3,27.5-23.3c0.4,0,0.6,0,1.1,0.4l0.6,0.6l-0.8,0.5c-7.3,4.3-21.1,14.2-21.1,20.6c0,0.3,0.8,1,3.1,1
					c4.4,0,9.6-0.7,16.5-2.1c26.1-42.5,68.7-94.4,81.2-94.4c6.3,0,12.9,6.5,13.6,13.4l0.3,3l-1.7-2.6c-1.2-1.7-2.9-2-3.8-2
					c-6.8,0-34.2,28.5-68.3,76.3c24.1-8,51.8-21.2,72.5-34.5c25-16.1,38.8-31.6,38.8-43.5c0-14.6-18.6-24-47.5-24
					c-24.7,0-55.3,10.1-83.7,27.7C35.5,54.9,18.6,72.3,18.5,82.8c0,6.5,7.3,10.1,11.1,10.6l0.6,0v0.7c0,0.8-0.7,0.9-3.3,0.9
					C12.8,95,6.3,89.8,6.3,78.5c0-12.4,16-31,38.9-45.3C61.9,22.8,97.1,5.4,145.6,5.4c15.5,0,55.6,6.3,55.6,35.3
					c0,24.7-27.2,45.5-50.1,58.5c-29.5,16.9-62.4,27.4-81.8,31.4c-16.1,24.1-25.4,41.3-25.4,47.2v0.6c0,3.1,0.1,4.5,2.1,4.8l3.3,0.3
					l-3.1,1C45.3,184.9,44.1,185.2,43.3,185.2z M59.9,99.8c-4,0.1-26.5,13.6-26.5,22.3c0,5.8,7.3,9.3,19.5,9.4l0.8,0l-0.4,0.7
					C42.7,151.1,36.8,166,36.6,174c0,6.2,2.6,10.2,6.7,10.2c0.4,0,0.9-0.1,1.6-0.3c-2-0.8-2-3-2-5.5v-0.6c0-6.2,9.1-23.2,25.7-47.9
					l0.1-0.2l0.2,0c19.3-3.9,52.3-14.5,81.8-31.3c22.6-12.9,49.5-33.5,49.5-57.7c0-28.1-39.4-34.3-54.6-34.3
					C97.3,6.4,62.3,23.7,45.8,34C23.1,48.1,7.3,66.4,7.3,78.5C7.3,89.1,13.5,94,26.9,94c0.3,0,0.5,0,0.7,0
					c-4.2-1.3-10.1-5.1-10.1-11.2C17.6,72,34.7,54.2,60.1,38.6c28.6-17.7,59.3-27.9,84.3-27.9c29.5,0,48.5,9.8,48.5,25
					c0,27.4-67.1,64.4-113.4,79.5l-1.4,0.5l0.9-1.2c26.9-37.8,60.6-78,70-78c0.8,0,2.6,0.2,4.1,1.7c-1.1-6.1-6.9-11.6-12.5-11.6
					c-5.6,0-18.3,11.3-34.9,31c-15.7,18.6-32.7,42.2-45.5,63l-0.1,0.2l-0.2,0c-7,1.5-12.4,2.2-16.9,2.2c-3,0-4.1-1-4.1-2
					C38.7,114.3,51.8,104.6,59.9,99.8z"/>
				<path class="st1" d="M43.2,185.4c-4.9,0-8-4.5-8-11.4c0.1-8.2,5.9-22.8,16.3-41.2c-12.2-0.4-19.5-4.3-19.5-10.7
					c0-9.8,23.6-23.5,27.8-23.5c0.3,0,0.8,0,1.3,0.4l1,1l-1.5,0.9c-1.8,1.1-7.1,4.4-12,8.6c-5.5,4.7-8.4,8.7-8.4,11.5
					c0,0.2,0.5,0.8,2.9,0.8c4.7,0,10-0.7,16.4-2C72.2,98.9,89.3,75.3,105,56.7c9.9-11.7,27.7-31.4,35.7-31.4
					c6.3,0,13.1,6.6,13.9,13.6l0.4,4l-2.3-3.2c-1.1-1.6-2.7-1.9-3.6-1.9c-6.8,0-33.8,28.2-67.6,75.5
					c45.6-15.5,110.2-51.5,110.2-77.6c0-14.5-18.6-23.8-47.3-23.8c-24.7,0-55.1,10.1-83.5,27.6C36.1,54.8,18.8,72.6,18.8,82.8
					c0,6.1,6.9,9.9,10.8,10.3l1,0v1c0,1.1-1.3,1.2-3.5,1.2c-14,0-20.8-5.5-20.8-16.8c0-6,3.7-13.6,10.4-21.5
					c6.9-8.2,16.8-16.5,28.6-24C61.9,22.6,97,5.1,145.6,5.1c9,0,22.7,1.8,34,6.9c14.2,6.3,21.7,16.1,21.7,28.5
					c0,25-27.3,45.8-50.2,58.8c-29.5,16.9-62.5,27.5-81.8,31.4c-16.4,24.5-25.4,41.2-25.4,47.1v0.6c0,3.4,0.2,4.3,1.9,4.5l3.9,0.6
					l-3.6,1.4C45.1,185.2,44,185.4,43.2,185.4z M58.5,100.4c-6.2,2-24.9,13.9-24.9,21.7c0,5.7,7.5,9.2,19.7,9.2h0.9l-0.4,0.7
					C43,150.9,37,165.8,36.8,174c0,6,2.6,9.9,6.5,9.9c0.2,0,0.5,0,0.8-0.1c-1.5-1-1.5-3.2-1.5-5.4l0-0.6c0-8.4,16.2-33.8,25.9-48.2
					l0.1-0.2l0.2,0c20.7-4.1,54-15.4,81.8-31.3C173.1,85.2,200,64.8,200,40.6c0-11.8-7-20.9-20.8-27.1c-11.4-5.1-24.8-6.9-33.6-6.9
					c-48.2,0-83,17.3-99.5,27.6C23.5,48.3,7.7,66.6,7.7,78.5c0,10.2,5.9,15.1,18.6,15.3c-4.2-1.6-9-5.5-9-11
					C17.4,71.9,34.5,54.1,60,38.3c28.7-17.7,59.4-27.9,84.4-27.9c29.6,0,48.8,9.9,48.8,25.3c0,27.5-67.5,64.8-114.1,80.1l-1.4,0.5
					l0.9-1.2c27-38.2,61-78.7,70.6-78.7c0.9,0,2.3,0.2,3.6,1.2c-1.5-5.6-7-10.7-12.1-10.7c-11.1,0-51.6,47.5-80.3,94.1l-0.1,0.2
					l-0.2,0c-7.1,1.5-12.5,2.2-17.1,2.2c-4,0-4.4-1.6-4.4-2.3C38.5,113.7,53.2,103.8,58.5,100.4z"/>
			</g>
			<g>
				<path class="st1" d="M970.7,148.8c-0.4,0-0.8-0.1-1.2-0.2c-2.8-1-7-5.3-7-8.8c0-4.5,4.7-14.8,12.8-28.2
					c7.9-12.7,15.7-23.1,20.4-27c0.9-0.9,1.8-1.3,2.9-1.3c4.1,0,10.7,7.1,10.7,11.5c0,0.6-0.3,1-0.9,1c-0.2,0-0.4-0.1-0.7-0.2
					l-0.3-0.1c-0.3-0.2-0.6-0.3-0.9-0.3c-5.7,0-24.9,32.7-28.7,42.2c9.5-4.1,29.6-23.7,40.4-35.1l0.1-0.1c0.3-0.2,0.7-0.5,1.2-0.5
					c0.6,0,1.2,0.4,1.4,1c0.3,0.6,0.2,1.3-0.3,1.8c-25.1,28.4-41.5,43.2-48.9,44C971.4,148.7,971.1,148.8,970.7,148.8z M998.6,84.3
					c-0.8,0-1.5,0.3-2.2,1.1c-4.7,3.9-12.4,14.2-20.2,26.8c-7.9,13-12.6,23.3-12.6,27.6c0,3,3.9,7,6.3,7.8c0.3,0.1,0.7,0.2,0.9,0.2
					c0.2,0,0.5-0.1,0.7-0.2l0.1,0c7.1-0.7,23.4-15.4,48.4-43.7c0.2-0.2,0.2-0.4,0.1-0.6c-0.1-0.2-0.4-0.4-0.6-0.4
					c-0.1,0-0.4,0.1-0.6,0.3c-3.3,3.5-30.5,31.9-41.8,35.7l-0.9,0.3l0.3-0.9c2.5-7.6,23.1-43.9,29.9-43.9c0.6,0,1.1,0.1,1.5,0.4
					l0.2,0.1c0.1,0,0.1,0.1,0.2,0.1C1008.2,90.8,1002.1,84.3,998.6,84.3z"/>
				<path class="st1" d="M970.6,149.1c-0.5,0-0.9-0.1-1.3-0.2c-2.8-1.1-7.1-5.5-7.1-9.1c0-9.9,22.9-46.7,33.2-55.4
					c1-0.9,2-1.3,3.1-1.3c4.1,0,11,7.3,11.2,11.8c0,0.9-0.6,1.3-1.2,1.3c-0.3,0-0.5-0.1-0.7-0.2c-0.1,0-0.1-0.1-0.2-0.1
					c-0.1,0-0.3-0.1-0.4-0.2c-0.2-0.1-0.4-0.2-0.6-0.2c-1.9,0.1-7.2,5.1-15.9,19.1c-5.6,8.9-10.4,17.9-12.3,22.4
					c11.1-5.3,34.9-29.8,39.7-34.8c0.5-0.5,1.1-0.6,1.4-0.6c0.7,0,1.4,0.4,1.7,1.1c0.3,0.8,0.1,1.6-0.3,2
					c-17.1,19.5-39.5,43-49,44.1C971.4,149,971,149.1,970.6,149.1z M998.5,84.6c-0.5,0-1.2,0.1-2,1c-9.8,8.2-32.8,44.8-32.8,54.2
					c0,2.9,3.8,6.8,6.1,7.6c0.3,0.1,0.6,0.1,0.9,0.1c0.2,0,0.5,0,0.6,0l0.2-0.1c6.9-0.6,24-16.1,48.2-43.6c0.1-0.1,0.1-0.3,0.1-0.4
					c0-0.1-0.1-0.2-0.3-0.2c-0.1,0-0.3,0.1-0.4,0.2c-9.5,9.9-32.6,33.1-42.4,35.9l-0.9,0.2l0.2-0.9c1.9-6.6,23.2-44.6,30.3-44.6
					l0.3,0c0.5,0.1,0.9,0.3,1.2,0.5c0,0,0.1,0,0.1,0.1C1007.6,90.8,1001.9,84.6,998.5,84.6z"/>
			</g>
			<g>
				<path class="st1" d="M1006.9,80.9c-2.2,0-4.4-2.7-4.4-5.5c-0.2-5.2,5.9-16.3,10.6-17.8l0.1,0h0.4c3.9,0,7.3,3.2,9.5,5.9
					c0.9,1.1,2.4,3.7,2,4.8c-0.1,0.2-0.3,0.6-0.9,0.6c-0.2,0-0.3,0-0.6-0.2c-0.2-0.1-0.5-0.1-1-0.1c-0.6,0-1.1,0.1-1.6,0.3
					c-2.6,1.3-9.8,7.9-11.6,10.5C1008.7,80.4,1007.9,80.9,1006.9,80.9z M1013.3,58.6c-4.2,1.4-10,12.1-9.8,16.8
					c0,2.2,1.7,4.5,3.4,4.5c0.6,0,1.2-0.3,1.7-1c2-2.8,9.2-9.5,12-10.9c0.6-0.3,1.3-0.4,2-0.4c0.7,0,1,0.1,1.4,0.2
					c0.1,0,0.1,0.1,0.2,0.1c0.1-0.5-0.7-2.5-1.8-3.8c-2-2.5-5.2-5.5-8.7-5.5H1013.3z"/>
				<path class="st1" d="M1006.8,81.1c-2.4,0-4.7-2.8-4.7-5.7c-0.2-5.2,5.9-16.5,10.6-18.1l0.2,0h0.6c4.5,0,8,3.8,9.7,6.1
					c1,1.1,2.6,3.8,2.1,5c-0.1,0.3-0.4,0.7-1.1,0.7h-0.1c-0.1,0-0.3,0-0.4-0.1h-0.1l-0.1-0.1c-0.3-0.1-0.5-0.2-0.9-0.2
					c-0.6,0-1,0.1-1.5,0.3c-2.5,1.1-9.7,7.8-11.5,10.4C1008.8,80.6,1007.8,81.1,1006.8,81.1z M1013.3,58.8
					c-3.8,1.4-9.8,11.7-9.6,16.6c0,2,1.7,4.2,3.2,4.2c0.5,0,1.1-0.3,1.5-0.9c2-2.8,9.3-9.6,12.1-11c0.8-0.5,1.6-0.5,2.1-0.5
					c0.5,0,0.9,0.1,1.2,0.2c-0.2-0.7-0.8-2.1-1.8-3.2c-3-3.7-5.8-5.4-8.5-5.4H1013.3z"/>
			</g>
			<g>
				<path class="st1" d="M195.7,149.4c-0.9,0-1.7-0.4-2.7-1l-0.3-0.2c-2.4-1.3-5.7-5.1-5.7-8.5c0-1,0.2-2,0.5-3.2l0.1-0.6l0.6-2.4
					c1.3-4.6,3.6-9.5,5.7-13.2c-10.2,9.6-32.1,28.8-37.9,28.8c-0.6,0-1.5-0.3-1.9-0.7c-3.1-1.6-7.3-8.3-7.3-11.7
					c0-9,8.8-23.1,22-35.1c14.6-13.4,30.6-21.1,43.9-21.1c5.5,0,14.7,2.4,14.7,11.4c0,3.5-1.8,6.5-3.3,8.4l-0.2,0.1l-0.1,0.1
					c-0.1,0.1-0.3,0.2-0.6,0.2c-0.4,0-0.7-0.2-0.9-0.5c-0.2-0.3-0.1-0.8,0.2-1c0.7-1.1,1.5-3.2,1.5-5.3c0-4.1-2.3-6.5-6.1-6.5h-0.9
					c-8.2,0.5-19.3,6.5-30.5,16.5c-14.3,12.9-24.7,31.4-25.2,34.2c0.1,0,0.1,0,0.2,0c4.9-1.7,26.6-18.1,35.2-26
					c0.7-0.6,1.8-1.7,3.1-3c4.8-4.8,11.1-10.8,14-12.6c0.4-0.3,0.8-0.3,1.3-0.3c1.5,0,3,1.1,4.7,3.2c2.1,2.6,3.5,6,3.2,7.4l-0.6,1.7
					l-0.7-1.1c-2.3,1.5-14.1,16.6-18.6,26.9c-0.7,1.6-1.2,3.2-1.4,4.5c7.2-2.9,19.8-14.4,31.3-25.5l2.6-4.3c1.4-2.3,2.8-4.6,4.3-6.8
					c5.5-8.2,12.2-16.3,16.2-19.7c1.1-1.3,2.5-1.3,2.7-1.3c4.3,0,10.7,6.9,10.7,11.5c0,0.6-0.3,1-0.9,1c-0.3,0-0.5-0.1-0.6-0.2
					l-0.1-0.1c-0.3-0.2-0.7-0.4-1.3-0.5l0,0c-2.1,0-9,9.2-13.1,14.7l-0.5,0.6c-6.8,9.7-14.4,23-15.6,28.8
					c8.3-4.5,23.5-18.9,29.8-25.4c2.4-2.4,5-5.5,7.9-8.7l0.9-1c6.8-7.8,14-15.8,20.1-20.8c0.9-0.8,1.7-1.1,2.7-1.1
					c4.2,0,10.5,6.9,10.5,11.5c0,0.7-0.5,1-0.9,1c-0.2,0-0.4-0.1-0.7-0.3c-0.3-0.2-0.6-0.4-1.2-0.5c-0.7,0-2.4,1.1-4.6,3.5
					c-2.2,2.6-6.3,8.1-12,16c-7.2,10.3-12.7,21-13.4,26.1c6.6-2.9,19.1-13.5,36.2-30.6l1.3-2.4c3.3-5.9,7.1-12.6,11.7-20.1
					c8.6-14.2,18-28.4,28.1-42.1c5.5-7.4,9.7-12.3,13.2-15.4c2.3-1.9,4.6-3.6,6.3-3.6h0.7c7.3,0,13,6.5,13,8.2c0,0.1,0,0.4-0.2,0.7
					c-0.2,0.2-0.5,0.2-0.7,0.2c-0.3,0-0.6-0.1-1-0.4c-0.3-0.1-0.6-0.2-0.9-0.2c-4.6,0-12.3,10.6-17.4,17.7c-1,1.5-2.1,3-3.2,4.4
					c-6,8.1-11.7,16.9-18.5,27.1l-2.7,4.1c-14.6,23.5-25.1,42.6-28.9,52.6c6.8-1.5,25.9-20.6,35.3-30l5.4-5.4
					c0.2-0.2,0.5-0.4,0.9-0.4c0.5,0,1,0.3,1.2,0.8c0.2,0.5,0.4,1.2,0,1.7c-8.3,10-35.4,40-44.9,43.8c-0.7,0.4-1.5,0.4-2.1,0.4
					c-1.4,0-2.6-0.6-3.7-1.3c-1.3-0.8-5-4.2-5.9-6.9c-0.3-0.5-0.5-1-0.5-2.8c0-3,2.2-8.9,7.1-18.8c-13.1,14.1-29.1,29.6-36.3,29.6
					c-1,0-2-0.4-3-1.3c-2.7-1.4-5.9-5.6-5.9-8.9c0-1.2,0.5-3,1.1-5l0.3-1c0.1-0.3,0.2-0.6,0.2-0.9c0.1-0.2,0.1-0.3,0.1-0.5
					c1.7-4.8,5.3-12.4,9.5-19.4c-15.1,16.4-32.1,34.8-40.5,36.6l-0.1,0h-1.3c-3,0-8.3-4.6-8.3-9.2c0-2.9,1.4-7.5,4.1-13.6
					C217.1,135.4,202.7,149.4,195.7,149.4z M199.2,113.8l-2.5,3.8c-2.4,3.7-5.8,10.1-7.5,16.2l-0.7,2.9c-0.3,1.1-0.5,2.1-0.5,3
					c0,3.1,3,6.5,5.1,7.7l0.3,0.2c0.9,0.5,1.5,0.9,2.2,0.9c5.2,0,16.9-9.4,32.1-25.8l2.2-2.4l-1.4,3c-3.5,7.3-5.4,12.8-5.4,16
					c0,4.1,5,8.2,7.3,8.2h1.2c8.2-1.9,26-21.2,40.3-36.7c0.5-0.6,1.1-1.2,1.6-1.7c0.5-0.6,1.1-1.2,1.7-1.8l0.8,0.6
					c-5.4,8-10.2,17.9-12.2,23.7c0,0.1-0.1,0.3-0.2,0.5c-0.1,0.3-0.2,0.5-0.2,0.8l-0.3,1c-0.5,1.8-1,3.7-1,4.7c0,2.9,3,6.8,5.4,8.1
					l0.1,0.1c0.8,0.7,1.6,1.1,2.4,1.1c5.7,0,19.2-11.3,38-31.9l2.5-2.7l-1.7,3.3c-6,11.8-8.6,18.4-8.6,21.6c0,1.7,0.2,2.1,0.4,2.3
					l0.1,0.1c0.7,2.3,4.2,5.6,5.5,6.4c0.9,0.6,2,1.1,3.1,1.1c0.4,0,1.1-0.1,1.7-0.3c9.3-3.8,36.3-33.6,44.5-43.5c0,0,0-0.4-0.2-0.8
					c-0.1-0.3-0.2-0.3-0.6,0l-0.2,0.1l-5.1,5.1c-14.7,14.7-30.8,30.3-36.8,30.3h-0.7l0.2-0.7c3.6-9.9,14.2-29.4,29.2-53.6l2.7-4.2
					c6.7-10.2,12.5-19,18.5-27.2c1.1-1.4,2.2-2.9,3.2-4.4c6.9-9.6,13.5-18.1,18.2-18.1c0.5,0,1,0.1,1.4,0.4c0.1,0.1,0.2,0.1,0.3,0.2
					c-0.5-1.4-5.3-7-11.9-7h-0.7c-1.4,0-3.6,1.7-5.7,3.4c-3.4,3-7.5,7.8-13,15.2c-10.1,13.7-19.5,27.9-28.1,42.1
					c-4.7,7.4-8.4,14.1-11.7,20.1l-1.5,2.5c-18.2,18.2-30.8,28.7-37.4,31.2l-0.7,0.3l0-0.8c0.2-4.9,6-16.5,13.7-27.5
					c5.6-7.9,9.8-13.4,12-16c0.8-0.9,3.7-3.9,5.5-3.9c0.7,0.1,1.1,0.3,1.6,0.6c0,0,0.1,0,0.1,0.1c-0.1-4.1-5.9-10.4-9.5-10.4
					c-0.8,0-1.4,0.2-2.1,0.9c-6,4.9-13.1,12.9-20,20.7l-0.9,1c-2.9,3.2-5.6,6.3-7.9,8.7c-6.6,6.8-22.8,22-30.9,26l-0.8,0.4l0.1-0.9
					c0.4-5.3,8.6-19.9,15.9-30.2l0.5-0.7c6.4-8.5,11.5-15.1,13.9-15.1h0.1c0.7,0.1,1.3,0.3,1.7,0.6c0,0,0.1,0,0.1,0.1
					c-0.1-4.1-6-10.4-9.7-10.4c-0.2,0-1.1,0-2,1c-4,3.4-10.6,11.4-16.1,19.5c-1.5,2.2-2.9,4.5-4.3,6.8l-2.8,4.4
					c-12,11.5-25.2,23.6-32.5,26l-0.7,0.2l0.1-0.7c0.1-1.5,0.7-3.5,1.5-5.6c4.3-9.8,17.5-27.6,19.8-27.6h0.1c0-1.2-1.2-4-3-6.3
					c-1.4-1.8-2.8-2.8-3.9-2.8c-0.4,0-0.6,0-0.7,0.1c-2.9,1.7-9.1,7.7-13.8,12.4c-1.3,1.3-2.4,2.4-3.1,3
					c-8.1,7.5-30.1,24.3-35.5,26.2c-0.2,0.1-0.5,0.1-0.7,0.1c-0.2,0-0.5,0-0.8-0.2l-0.1-0.1c-0.9-1.8,10.9-22.3,25.5-35.6
					c11.3-10.1,22.7-16.2,31.1-16.7l0.9,0c4.4,0,7.1,2.9,7.1,7.5c0,2.5-0.8,4.7-1.6,5.9c0,0,0,0,0,0c0,0,0,0,0.1,0
					c1.4-1.8,3-4.6,3-7.7c0-8.2-8.6-10.4-13.7-10.4c-13,0-28.8,7.6-43.3,20.9c-12.9,11.8-21.6,25.6-21.6,34.3c0,3,4.1,9.5,6.8,10.9
					l0.1,0.1c0.2,0.2,0.9,0.5,1.2,0.5c5.8,0,30.6-21.9,40-31.1L199.2,113.8z"/>
				<path class="st1" d="M195.3,149.4c-1.1,0-1.9-0.5-3.1-1.2l-0.2-0.1c-2.3-1.3-5.7-5.2-5.7-8.7c0-1.2,0.4-2.7,0.7-3.9
					c0.2-0.8,0.4-1.6,0.6-2.5c1-3.6,2.8-7.9,5-12c-4.3,4-10.2,9.2-16,14.1c-8.7,7.2-17.5,13.7-20.9,13.7c-0.6,0-1.5-0.4-2-0.7
					c-3.1-1.6-7.4-8.4-7.4-11.9c0-9.1,8.8-23.2,22-35.3c14.7-13.5,30.8-21.2,44.1-21.2c5.5,0,14.9,2.4,14.9,11.6
					c0,3.8-2.1,6.9-3.3,8.5l-0.3,0.3h-0.1c-0.2,0.1-0.4,0.2-0.7,0.2c-0.6,0-1-0.3-1.2-0.7c-0.2-0.4-0.1-0.8,0.2-1.1
					c0.6-1,1.5-3,1.5-5.2c0-4-2.1-6.2-5.9-6.2h-0.9c-8.2,0.5-19.2,6.5-30.3,16.5c-4,3.6-7.9,7.8-11.2,12
					c-7.4,9.2-12.7,18.4-13.8,21.6c5.4-2.1,26.7-18.4,34.9-25.8c0.7-0.6,1.8-1.7,3-2.9l1.3-1.3c4.4-4.3,10-9.8,12.8-11.4l0.1,0
					c0.3-0.1,0.7-0.2,1.2-0.2c1.9,0,3.7,1.8,4.9,3.3c1.6,2.1,3.6,5.7,3.3,7.5c0,0.1,0,0.2,0,0.2l-1,4.7v-3l-0.5-0.8
					c-3.3,2.9-14.1,17-18.3,26.6c-0.6,1.4-1,2.7-1.2,3.8c7.6-3.2,20.4-15.1,30.8-25.2l2.6-4.2c1.4-2.3,2.9-4.6,4.4-6.8
					c5.4-7.9,12.1-16.1,16.3-19.8c1.2-1.2,2.4-1.3,2.9-1.3c4.3,0,11,7.2,11,11.8c0,1-0.6,1.3-1.1,1.3c-0.2,0-0.4-0.1-0.5-0.1
					c-0.1,0-0.1-0.1-0.2-0.1c-0.1,0-0.2-0.1-0.3-0.1c-0.3-0.1-0.6-0.2-0.9-0.3c-2,0-9.4,9.8-13.3,15.1l-0.1,0.1
					c-6.6,9.4-13.9,22.1-15.4,28.2c8.4-4.8,23.4-19,29.2-25c2.7-2.9,5.7-6.3,8.8-9.7l2-2.2c6.2-6.9,12.7-14,18.2-18.6
					c0.9-0.8,1.8-1.1,2.8-1.1c4.2,0,10.8,7.2,10.8,11.8c0,1-0.6,1.3-1.1,1.3c-0.3,0-0.6-0.1-0.8-0.3c0,0-0.1-0.1-0.3-0.1
					c-0.2-0.1-0.4-0.2-0.8-0.3c-0.6,0-2.3,0.9-4.4,3.4c-2.3,2.7-6.8,8.7-12,16c-7.1,10-12.4,20.3-13.4,25.6
					c9.7-4.5,28-22.6,35.7-30.4l1.3-2.2c2.8-5.1,6.7-12.1,11.8-20.3c8.6-14.2,18-28.4,28.1-42.1c5.4-7.3,9.6-12.2,13.3-15.5
					c3.1-2.5,5-3.6,6.4-3.6h0.7c7.3,0,13.2,6.3,13.2,8.4c0,1-1.1,1.6-2.2,0.9c-0.3-0.1-0.6-0.2-0.9-0.2c-4.3,0-11.3,9.6-16.9,17.3
					l-0.2,0.3c-1,1.5-2.1,3-3.2,4.4c-3.7,5-7.3,10.4-11.2,16c-2.6,3.7-5.2,7.6-8.1,11.7l-2.3,3.5c-9.5,15.3-17.2,28.7-22.5,39
					c-2.7,5.3-4.8,9.7-6.1,13.1c6.9-2.2,24.6-19.7,34.3-29.3l0.5-0.4c1.2-1.2,2.2-2.2,3.2-3.1c0.8-0.8,1.5-1.4,2.1-2.1
					c0.8-0.8,2.2-0.6,2.7,0.3c0.4,0.5,0.5,1.4,0.1,2c-8.3,9.9-35.5,40-45,43.8c-0.8,0.4-1.6,0.5-2.3,0.5c-1.5,0-2.8-0.7-3.8-1.3
					c-1.3-0.8-5.1-4.3-6-7.1c-0.2-0.4-0.5-1-0.5-2.9c0-2.9,2-8.5,6.4-17.4c-12.6,13.5-28.2,28.4-35.4,28.4c-1,0-2.1-0.5-3.1-1.3
					c-2.9-1.5-6-5.7-6-9.1c0-1.3,0.5-3.1,1.1-5.1l0.3-0.9c0-0.2,0.1-0.4,0.2-0.6c0.1-0.3,0.2-0.5,0.2-0.8c1.9-5.2,4.9-11.6,8.2-17.4
					c-14.7,16-30.8,33.1-38.9,34.8l-0.3,0h-1.2c-3,0-8.5-4.7-8.5-9.4c0-2.8,1.2-6.9,3.6-12.5c-2.5,2.6-5.2,5.2-7.8,7.7
					C207,144.3,199.5,149.4,195.3,149.4z M197.8,114.7l0.8,0.6c-3,4-7.2,11.8-9.1,18.3c-0.2,0.8-0.4,1.7-0.6,2.4
					c-0.3,1.4-0.6,2.6-0.6,3.5c0,2.9,3,6.2,5.1,7.5c1.2,0.7,1.8,1,2.4,1c3.6,0,10.5-4.7,19.9-13.5c3.3-3.1,7-6.7,10.9-10.8l2.1-2.2
					l0,0c0.1-0.1,0.2-0.2,0.3-0.4l2.3-2.5l-1.5,3c-4,7.9-6,13.9-6,17.4c0,3.6,4.6,7.9,7,7.9h1.1c8-1.8,25.9-21.1,40.2-36.7
					c2-2.2,4.1-4.4,6-6.5l0.8,0.6c-5.9,7.6-11.9,19.5-14.5,26.9c-0.1,0.4-0.3,0.9-0.4,1.4c-0.6,2.1-1.3,4.4-1.3,5.6
					c0,2.8,2.9,6.6,5.3,7.9l0.1,0.1c0.7,0.6,1.5,1,2.2,1c5.8,0,20.1-12.1,39.1-33.2l2.6-2.9l-1.8,3.4c-6.4,12.3-9.4,19.9-9.4,23.2
					c0,1.6,0.2,2,0.4,2.2l0.1,0.2c0.8,2.4,4.3,5.7,5.4,6.3c1.1,0.6,1.9,1,2.9,1c0.6,0,1.1-0.1,1.7-0.4c9.6-3.8,37.3-34.8,44.4-43.3
					c0-0.1,0-0.3,0-0.5c0-0.1-0.1-0.2-0.1-0.2c-0.1,0-0.2,0.1-0.2,0.2c-1.6,1.5-3.6,3.5-5.9,5.8c-12,11.8-30.1,29.8-36.3,29.8h-1
					l0.2-0.5l0,0l0.3-0.8c1.4-3.9,3.9-9.1,7.2-15.5c5.3-10.1,12.8-23.1,21.9-37.8l2.3-3.5c6.8-10.5,12.8-19.5,18.9-27.8
					c0.9-1.2,1.9-2.6,3-4.1c6-8.3,13.4-18.5,18.6-18.5c0.4,0,0.9,0.1,1.3,0.2c-1.2-1.8-5.6-6.3-11.5-6.3h-0.6
					c-1.4,0-3.6,1.8-5.5,3.3c-3.4,3-7.6,7.8-13,15.2c-6.8,9.3-17.2,24.1-28.1,42.1c-4.7,7.6-8.4,14.3-11.8,20.2l-1.4,2.5
					c-12.7,12.8-29.5,28.6-37.8,31.4l-0.7,0.2v-0.7c0-4.9,5.8-16.7,13.8-28c5.6-7.8,9.8-13.5,12-16c1.7-1.9,4-4,5.7-4
					c0.6,0.1,1.1,0.3,1.4,0.5c-0.4-4-5.8-9.9-9.3-9.9c-0.7,0-1.2,0.2-1.9,0.8c-6.1,5-13.5,13.3-20,20.7c-3.2,3.6-6.2,7-8.8,9.7
					c-6.8,7-23.4,22.5-31.4,26.2l-0.7,0.3V138c0-5.1,8.1-19.7,16-30.9c7.4-10,12.2-15.8,14.6-15.8h0.2c0.7,0.1,1.1,0.3,1.5,0.5
					c-0.4-4.1-6.3-9.9-9.5-9.9c-0.2,0-1.1,0.1-1.8,0.9c-4.1,3.6-10.7,11.6-16.1,19.5c-1.9,2.8-3.7,5.8-5.5,8.7l-1.6,2.5
					c-10.5,10.2-25.2,23.9-32.9,26.2l-0.6,0.2v-0.7c0-0.5,0.1-1.1,0.2-1.8c0.2-1.2,0.7-2.7,1.3-4.3c2.6-6,7.8-13.7,12.1-19.3
					c3.3-4.4,6.2-7.7,7.6-8.2c-0.2-1.2-1.3-3.9-3.2-6.2c-1.3-1.6-2.6-2.5-3.5-2.5c-0.1,0-0.2,0-0.5,0.1l-0.1,0
					c-2.9,1.8-9.4,8.1-13.7,12.4c-1.3,1.3-2.4,2.4-3.1,3c-7.7,7-30.1,24.3-35.6,26.2l-0.2,0c0,0-0.1,0-0.2,0
					c-0.3,0.1-0.7,0.2-1.2-0.1c-0.1-0.1-0.3-0.2-0.4-0.5h0l0-0.5c0-1.2,2.2-5.5,5.7-10.8c4.7-7.4,11.9-17,20-24.3
					c11.3-10.2,22.7-16.4,31.2-16.8l0.9,0c4.6,0,7.4,2.9,7.4,7.7c0,1.1-0.2,2.3-0.5,3.4c0.8-1.5,1.4-3.3,1.4-5.2
					c0-8-8.4-10.1-13.4-10.1c-13,0-28.7,7.6-43.1,20.8c-12.9,11.8-21.5,25.5-21.5,34.2c0,3,4,9.3,6.7,10.6l0.1,0.1
					c0.1,0.1,0.8,0.4,1,0.4c0.8,0,2.1-0.5,3.6-1.3c8.7-4.8,26.1-20.1,34.6-28.3l2.3-2.2C197.2,115.4,197.5,115,197.8,114.7z
					 M188,135.8c-0.3,1.2-0.7,2.5-0.7,3.6c0,0,0,0.1,0,0.1C187.3,138.4,187.6,137.2,188,135.8C188,135.8,188,135.8,188,135.8z
					 M227.4,124.4c-3,6.6-4.6,11.5-4.6,14.6c0,0,0,0.1,0,0.1c0-3.2,1.6-8.2,4.7-14.8C227.5,124.3,227.4,124.4,227.4,124.4z
					 M195.1,118.8c-1.6,2.6-3,5.4-4.2,8.1C192.2,124,193.7,121.1,195.1,118.8C195.1,118.7,195.1,118.7,195.1,118.8z M240.3,102
					c-0.8,1.3-1.7,2.6-2.5,3.9C238.6,104.5,239.5,103.2,240.3,102z M211.2,98.4c-0.7,0.6-1.5,1.3-2.3,2
					C209.7,99.6,210.5,99,211.2,98.4z M222.2,98.9l0.4,0.2c0,0,0-0.1,0.1-0.1L222.2,98.9z"/>
			</g>
			<g>
				<path class="st1" d="M407.9,182.1c-6.7,0-28.5-1.3-28.5-18.4c0-9,7.5-20.1,21.1-31.4c12.9-10.7,29.8-20.3,46.2-26.5l1-0.3v1.1
					c0,0.5-0.4,0.8-1.1,1.3l-0.3,0.2c-13.5,6.6-28,16.1-38.9,25.3c-8.9,7.7-19.5,18.9-19.5,28.5c0,6.5,10.2,7.5,16.3,7.5
					c33.4,0,77.3-15.2,114.7-39.7c38.8-25.5,62-55.7,62-80.6c0-21-24.2-32.7-46.9-33h-1c-20.3,0-43.5,6.6-63.6,18.2
					c-17.2,9.8-29.1,22.2-29.1,30c0,4.1,1.8,7.8,4.8,9.5l2.3,1.4h-2.6c-7.4,0-13.9-7.4-13.9-15.9c0-24.5,46.4-49.7,91.9-50h0.7
					c24.6,0,44.8,6.7,56.7,18.7c8.4,8.6,12.4,19.2,12.1,31.7C591,115.8,491.1,182.1,407.9,182.1z M445.9,107.2
					c-16,6.1-32.2,15.5-44.8,25.9c-13.4,11.1-20.7,22-20.7,30.6c0,16.1,21,17.4,27.5,17.4c82.7,0,182.1-65.8,183.3-121.3
					c0.3-12.2-3.7-22.6-11.9-30.9c-11.7-11.9-31.6-18.4-55.9-18.4h-0.7c-45,0.3-90.9,25-90.9,49c0,7.6,5.5,14.3,12,14.9
					c-2.8-2-4.5-5.7-4.5-9.9c0-8.3,11.9-20.7,29.7-30.8c20.2-11.7,43.6-18.4,64-18.4h1c23.2,0.3,47.9,12.3,47.9,34
					c0,25.3-23.3,55.7-62.4,81.4c-37.6,24.6-81.7,39.9-115.3,39.9c-6.5,0-17.3-1.1-17.3-8.5c0-10,10.8-21.4,19.9-29.3
					C417.7,123.4,432.3,113.9,445.9,107.2L445.9,107.2z"/>
				<path class="st1" d="M407.7,182.4c-4,0-11.6-0.4-17.9-3.2c-7.2-3.2-10.9-8.4-10.9-15.4c0-19.5,34.9-45.8,67.4-58.1l1.4-0.6v1.5
					c0,0.7-0.6,1.1-1.3,1.6l-0.2,0.1c-13.7,6.7-28.2,16.2-38.8,25.3C394.5,145,388,154.5,388,162.1c0,2.2,1.6,7.3,16.1,7.3
					c33.3,0,77.2-15.2,114.5-39.7c18.3-12,33.6-25.4,44.3-38.8c11.7-14.7,17.6-28.7,17.6-41.6c0-20.8-24-32.4-46.6-32.8h-1
					c-20.4,0-43.5,6.6-63.5,18.1c-17,9.8-29,22.1-29,29.8c0,4.1,1.8,7.6,4.6,9.3l3.3,1.8h-3.8c-7.5,0-14.1-7.5-14.1-16.1
					c0-12.2,10.9-24.9,30-34.8c18.1-9.5,41.4-15.3,62.2-15.4h0.7c24.8,0,44.9,6.7,56.6,18.9c8.2,8.3,12.4,19.3,12.2,31.9
					c-0.3,13.9-6.3,28.5-17.9,43.5c-10.8,13.8-26,27.4-44.2,39.3C492.2,167.6,446.5,182.4,407.7,182.4z M440.4,109.8
					c-14.3,6.1-28.3,14.5-39.2,23.6c-13.3,11-20.6,21.8-20.6,30.4c0,15.9,20.9,17.1,27.3,17.1c82.6,0,181.8-65.6,183-121
					c0.2-12.2-3.7-22.5-11.8-30.7c-11.6-11.8-31.4-18.4-55.7-18.4h-0.7C477.8,10.9,432,35.5,432,59.4c0,7.1,4.9,13.4,10.9,14.4
					c-2.4-2.1-3.9-5.6-3.9-9.4c0-17.3,48.3-49.4,94-49.4h1c23.3,0.4,48.1,12.6,48.1,34.3c0,25.4-23.4,55.9-62.5,81.7
					c-37.5,24.6-81.7,39.9-115.4,39.9c-6.6,0-17.6-1.1-17.6-8.8C386.6,145.3,416.5,122.5,440.4,109.8z"/>
			</g>
			<g>
				<path class="st1" d="M975,168.6c-19.8,0-41.2-19.7-52.4-39.5c-0.2,0.4-0.4,0.8-0.7,1.3c-0.4,0.7-0.7,1.4-1.1,2.1
					c-2.5,4.5-6.6,11.9-5.3,14.4c0.3,0.5,0.9,0.9,1.8,1l2.4,0.3l-2.3,1.1c-0.6,0.3-1.3,0.5-2.1,0.5c-1.2,0-2.5-0.5-3.9-1.5
					c-1.5-0.6-4.5-4.4-5.9-6.9l0-0.1c-0.6-1.9-0.2-7.8,4.7-18.4c0.8-2.1,1.8-4.1,2.8-6.1c0.3-0.6,0.6-1.3,0.9-1.9
					c0.3-0.6,0.6-1.2,0.9-1.8c-0.5-1.8-0.8-3.3-0.8-4.4c-9.8,3.7-17.6,7.4-23.4,11c2.3,2.3,5.4,6.6,5.1,10.1
					c-1.1,5.2-5.8,10-14,14.6c-6.7,3.6-14.6,6-19.9,6c-3.4,0-5.8-2.6-6.6-7.2l0-0.1l0-0.1c0.5-7.7,23.1-21,28.7-23.7
					c-0.3-0.3-0.8-0.7-1.2-1.1l-0.2-0.2c-2.9-2.6-9-7.9-7.8-14.2c2.6-12.8,25.4-25.8,39.9-25.8c1.4,0,2.6,0.6,3.6,1.8
					c2.5,2.7,3.4,8,3,11.7c-0.2,2.4-10.3,13-15.1,13c-0.7,0-1.1-1.1-1.1-1.4v-0.8l0.6-0.2c0.9-0.7,9.2-9.9,10.7-13.6
					c-3.8,0.1-10.9,3.3-18.4,8.3c-7.7,5.2-13,10.5-13.9,13.7c-0.5,1.9,1.7,3.8,3.4,5.2l0.3,0.3c0.2,0.1,0.3,0.2,0.4,0.4
					c9.5-5.6,19.3-10.2,29.1-13.7c1.2-0.9,2.8-1.4,4.4-1.8c9.3-16.7,20.1-33.7,32.1-50.5c8.4-11.9,14.9-19.8,19.9-24
					c1.9-1.5,4.5-3.3,6.4-3.3c7.9,0,13.8,7,13.8,8.9c0,0.1,0,0.4-0.2,0.7c-0.2,0.2-0.5,0.2-0.7,0.2c-0.3,0-0.6-0.1-0.9-0.4
					c-0.4-0.2-0.9-0.3-1.3-0.3c-3.7,0-8.9,5.5-17.2,15.6c-1.1,1.4-4.4,6-6.9,9.3c-2.5,3.5-2.6,3.5-2.6,3.5
					c-8.6,11.6-18.6,27.5-26,39.8c12.2-12.7,27.8-24.7,34.9-24.7c4,0,8.4,7.4,8.4,11.4c0,12.4-30.2,33.1-48.3,33.1c-0.3,0-0.7,0-1,0
					c3.7,9.4,10.4,19.7,18.3,27.7c6.7,6.8,17.2,15,28.8,15c5.7,0,10.9-1.9,15.8-5.7c0.2-0.3,0.7-0.4,1.2-0.4c0.6,0,1,0.3,1.2,0.7
					c0.2,0.5,0,0.9-0.3,1.3C990.6,165.4,983.2,168.6,975,168.6z M922.6,127.1l0.4,0.8c10.9,19.7,32.3,39.7,52,39.7
					c7.9,0,15-3.1,21.2-9.4c0.1-0.1,0.1-0.2,0.1-0.2c0-0.1-0.1-0.1-0.3-0.1c-0.3,0-0.4,0.1-0.5,0.2c-5.1,4-10.5,5.9-16.5,5.9
					c-12,0-22.7-8.3-29.6-15.2c-8.2-8.3-15.2-19-18.8-28.8l-0.3-0.8l0.9,0.1c0.6,0.1,1.1,0.1,1.7,0.1c17.7,0,47.3-20.1,47.3-32.1
					c0-3.4-4.1-10.4-7.4-10.4c-7.4,0-25.2,14.4-37.3,27.7l-3.2,3.5l2.4-4.1c7.5-12.7,18.9-30.8,28.4-43.8c0.1-0.1,1.2-1.7,2.6-3.5
					c2.5-3.4,5.9-8,6.9-9.4c8.7-10.6,13.9-16,18-16c0.7,0,1.3,0.2,1.8,0.4l0.2,0.1c0,0,0.1,0.1,0.1,0.1c-0.5-1.5-5.5-7.7-12.8-7.7
					c-1.2,0-3.3,1.1-5.8,3.1c-4.9,4.1-11.5,12.1-19.7,23.8c-12,16.8-22.9,33.8-32.2,50.6l-0.1,0.2L922,102c-1.6,0.4-3.2,0.9-4.3,1.7
					l-0.1,0.1c-9.8,3.5-19.7,8.2-29.3,13.9l-0.3,0.2l-0.3-0.3c-0.2-0.2-0.4-0.4-0.6-0.5l-0.3-0.3c-1.8-1.6-4.3-3.8-3.7-6.2
					c0.9-3.5,6.3-8.8,14.3-14.3c7.7-5.2,15.2-8.5,19.1-8.5h1.1l-0.1,0.6c-0.7,3.7-10.5,14.5-11.4,15l0,0.1c0,0.1,0.1,0.3,0.2,0.4
					c4.3-0.2,13.8-10.1,14-12.1c0.4-3.5-0.5-8.5-2.8-10.9c-0.8-1-1.7-1.4-2.8-1.4c-14.1,0-36.4,12.6-38.9,25
					c-1.1,5.7,4.7,10.8,7.4,13.2l0.2,0.2c0.7,0.7,1.4,1.2,1.8,1.7l0.4,0.5l-0.6,0.3c-5.3,2.4-28.1,16.1-28.7,23.1
					c0.8,4.1,2.7,6.3,5.6,6.3c5.2,0,12.9-2.3,19.5-5.8c7.9-4.4,12.4-9.1,13.4-13.9c0.3-3.4-3.4-8-5.2-9.6l-0.5-0.4l0.5-0.4
					c6-3.9,14.3-7.9,24.8-11.8l0.7-0.3l-0.1,0.8c-0.1,1.2,0.2,2.8,0.8,5l0,0.2l-0.1,0.2c-0.3,0.7-0.6,1.3-1,2
					c-0.3,0.6-0.6,1.3-0.9,1.9c-1,2-2,4-2.8,6.1c-4.8,10.2-5.2,15.9-4.7,17.6c1.4,2.5,4.3,6,5.4,6.4l0.1,0.1
					c1.3,0.9,2.4,1.3,3.4,1.3c0.4,0,0.7,0,1.1-0.1c-0.8-0.3-1.3-0.7-1.7-1.3c-1.5-2.8,1.7-8.9,5.3-15.4c0.4-0.7,0.8-1.4,1.1-2.1
					c0.4-0.7,0.7-1.4,1.1-2.1L922.6,127.1z M858.6,141.7l1.6-1.6c4.8-4.8,15.2-12.4,24.7-18l0.9-0.5l-0.2,1
					c-0.9,6.1-17.8,15.7-24.9,18.3L858.6,141.7z M884.2,123.7c-7.8,4.7-16.4,10.8-21.4,15.3C870.3,135.7,881.8,128.5,884.2,123.7z
					 M930.1,118l-0.2-0.3c-0.2-0.3-0.6-1.1-0.9-3.1l0-0.2l0.1-0.2c0.4-0.8,1.4-1.7,2.8-3.1l1.3-1.3c12.7-12.3,20.9-18.6,25.5-21.7
					c3.8-2.6,6.4-4,7.9-4.2l0.9-0.1l-0.4,0.8c-1.8,3.7-5.1,8.6-8.9,13c-3.1,3.9-9.4,11.3-17.6,16.1c-3.7,2.4-7,3.8-10.1,4.2
					L930.1,118z M930,114.6c0.3,1.3,0.5,2,0.7,2.4c2.9-0.4,5.9-1.8,9.3-4c8.1-4.7,14.4-12,17.4-15.9c3.4-4,6.4-8.3,8.2-11.8
					c-1.4,0.5-3.6,1.8-6.5,3.7c-4.6,3.1-12.7,9.3-25.3,21.5l-1.3,1.3C931.4,113,930.5,114,930,114.6z"/>
				<path class="st1" d="M974.9,168.6c-9.6,0-20.2-4.5-30.5-13c-8.4-7-16.3-16.5-21.9-26.1c-0.5,1-1,2-1.6,3
					c-2.7,5-6.4,11.9-5.2,14.2c0.2,0.5,0.7,0.7,1.5,0.8l3.5,0.4l-3.1,1.4c-0.8,0.3-1.4,0.5-2.2,0.5c-1.6,0-3-0.8-4-1.4
					c-1.6-0.7-4.7-4.4-6-7c0-0.1-1.7-4.7,4.7-18.5c0.8-2.1,1.8-4.1,2.8-6.1c0.6-1.1,1.2-2.4,1.7-3.6c-0.3-1.4-0.7-2.8-0.7-4
					c-9.8,3.7-17.3,7.2-22.7,10.7c2.1,2.1,5.3,6.4,5,10.1c-2.3,11.8-24.2,20.7-34.2,20.7c-3.5,0-5.9-2.6-6.9-7.4l0-0.3
					c0.5-7.5,22.5-20.7,28.6-23.8c-0.3-0.3-0.7-0.6-1-0.9l-0.2-0.1c-2.9-2.6-9-7.9-7.9-14.4c1.2-6.1,7-12.6,15.8-18
					c8-4.9,17.4-8,24.4-8c1.3,0,2.7,0.7,3.8,1.9c2.6,2.9,3.5,8.3,3.1,11.9c-0.3,1.9-3.9,5.7-6.1,7.7c0,0-5.7,5.6-9.3,5.6
					c-0.9,0-1.4-1-1.4-1.6c0-0.1,0-0.4,0.2-0.7c0.1-0.1,0.2-0.2,0.4-0.3c0.6-0.6,3.1-3.1,5.6-6.3c2.4-3,4.1-5.4,4.8-7
					c-3.7,0.3-10.6,3.5-17.8,8.3c-7.6,5.1-13,10.4-13.8,13.6c-0.4,1.8,1.6,3.7,3.5,5.3c0.1,0.1,0.2,0.2,0.3,0.2c0,0,0,0,0.1,0
					c9.4-5.5,19.1-10.1,28.9-13.6c1.2-0.9,2.8-1.4,4.4-1.8c9.5-17.1,20.3-34.1,32-50.5c8.3-11.8,15-19.9,20-24.1
					c2.5-2.1,4.9-3.3,6.5-3.3c8.1,0,14.1,7.3,14.2,8.9c0,0.5-0.2,0.7-0.3,0.9c-0.2,0.2-0.5,0.3-0.9,0.3c-0.3,0-0.6-0.1-0.9-0.4
					c-0.4-0.2-0.9-0.2-1.3-0.2c-3.6,0-8.7,5.5-17,15.5c-1.1,1.4-4.6,6.2-7,9.4c-2.5,3.4-2.5,3.4-2.5,3.4
					c-8.2,11.1-17.9,26.3-24.9,38c11.7-11.8,26.6-23.3,33.7-23.3c4,0,8.6,7.6,8.6,11.6c0,12.4-30.4,33.3-48.6,33.3h-0.7
					c3.6,9.2,10.3,19.4,18.1,27.2c12.2,12.3,22.3,14.9,28.6,14.9c5.6,0,10.7-1.8,15.6-5.7c0.3-0.4,0.7-0.5,1.4-0.5
					c0.6,0,1.2,0.3,1.4,0.8c0.1,0.2,0.3,0.9-0.4,1.6C990.7,165.3,983.2,168.6,974.9,168.6z M922.6,126.5l0.5,0.8
					c10.9,19.9,32.2,40,52,40c7.8,0,14.9-3.1,21.1-9.3c-0.1,0-0.2,0.1-0.2,0.1c-5.3,4.1-10.7,6-16.7,6c-12.1,0-22.8-8.3-29.7-15.3
					c-8.3-8.4-15.4-19.3-19.1-29.2l-0.3-0.8l0.8,0.1c0.6,0.1,1.3,0.1,2,0.1c17.6,0,47.1-19.9,47.1-31.8c0-3.6-4.2-10.1-7.1-10.1
					c-7.6,0-26.5,15.6-38.8,29.5l-0.8-0.6c8-13.6,20-32.9,29.7-46c0.1-0.1,7.8-10.6,9.5-12.8c8.8-10.7,14.1-16.1,18.2-16.1
					c0.6,0,1.1,0.1,1.6,0.3c-1.1-1.9-5.8-7-12.3-7c-0.6,0-2.3,0.3-5.6,3c-5,4.2-11.6,12.2-19.7,23.8c-11.7,16.3-22.5,33.4-32.2,50.7
					l-0.1,0.2l-0.2,0.1c-1.5,0.4-3.3,0.8-4.4,1.7l-0.1,0.1c-6.7,2.4-17.2,6.7-29.4,14l-0.3,0.2l-0.3-0.3c-0.2-0.2-0.5-0.5-0.8-0.7
					c-1.9-1.6-4.7-4-4-6.8c1.1-4.3,8.1-10.3,14.4-14.5c7.7-5.2,15.3-8.5,19.2-8.5c0.2,0,0.4,0,0.6,0.1c0.1,0,0.2,0,0.2,0h0.5l0,0.5
					c-0.2,2-3.2,6-5.7,9.1c0,0.1-4,4.9-5.6,6.1c4.2-0.4,13.5-10.1,13.7-11.9c0.3-3.4-0.6-8.3-2.7-10.7c-0.8-0.9-1.7-1.3-2.7-1.3
					c-14.1,0-36.2,12.5-38.7,24.8c-1,5.4,4.2,10.2,7.4,13c1,0.9,1.8,1.6,2.2,2.2l0.4,0.5l-0.6,0.2c-5.4,2.3-28.3,16.3-28.9,23
					c0.5,2.3,1.8,6.1,5.4,6.1c9.7,0,30.5-8.8,32.7-19.4c0.3-3.3-3.4-7.9-5.4-9.6l-0.5-0.4l0.6-0.4c5.9-3.9,14.3-7.9,25.5-12.1
					l0.8-0.3l-0.1,0.8c-0.2,1.5,0.3,3.5,0.8,5.4l0,0.2l-0.1,0.2c-0.6,1.4-1.3,2.7-1.9,4c-1,1.9-2,4-2.8,6c-5,10.7-5.1,16.2-4.7,17.5
					c1.4,2.6,4.3,5.9,5.3,6.3c1,0.6,2.1,1.3,3.3,1.3c0,0,0,0,0,0c-0.4-0.3-0.7-0.6-1-1.1c-1.6-3.1,2.1-9.8,5.3-15.6
					c0.9-1.7,1.8-3.2,2.4-4.6L922.6,126.5z M996.2,158L996.2,158L996.2,158z M858,142l1.3-1.3c4.9-5.2,17-13.7,25.9-19l0.8-0.4v0.9
					c0,6.7-20,17.6-26.2,19.4L858,142z M883.6,124.4c-7.1,4.3-14.3,9.5-19.1,13.5C871.1,134.7,880.6,128.8,883.6,124.4z
					 M930.3,118.2L930.3,118.2c-0.5,0-1-0.3-1.6-3.7l0-0.2l0.1-0.2c0.4-0.7,1.5-1.8,3-3.2l1.3-1.3c3.5-3.4,15.6-15,25.5-21.7
					c4.1-2.9,6.9-4.3,8.4-4.3h0.8l-0.2,0.7c-1.6,3.6-5,8.5-9.1,13.4c-3.9,4.9-10.1,11.8-17.7,16.2
					C936.8,116.4,933.4,117.8,930.3,118.2L930.3,118.2z M930.2,114.6c0.2,1.1,0.4,1.7,0.5,2c2.7-0.4,5.6-1.7,9.2-3.9
					c5.9-3.5,11.7-8.8,17.4-15.9c3.2-3.8,6-7.8,7.8-11.2c-1.4,0.6-3.3,1.8-5.8,3.5c-11.1,7.4-24.7,20.9-25.2,21.4l-1.3,1.3
					c-0.3,0.3-0.7,0.7-1,1C931.2,113.6,930.5,114.2,930.2,114.6z"/>
			</g>
		</g>
	</g>
</g>
</svg>
